<?xml version="1.0" encoding="utf-8" standalone="no"?>
<!DOCTYPE svg PUBLIC "-//W3C//DTD SVG 1.1//EN"
  "http://www.w3.org/Graphics/SVG/1.1/DTD/svg11.dtd">
<svg xmlns:xlink="http://www.w3.org/1999/xlink" width="432pt" height="432pt" viewBox="0 0 432 432" xmlns="http://www.w3.org/2000/svg" version="1.1">
 <metadata>
  <rdf:RDF xmlns:dc="http://purl.org/dc/elements/1.1/" xmlns:cc="http://creativecommons.org/ns#" xmlns:rdf="http://www.w3.org/1999/02/22-rdf-syntax-ns#">
   <cc:Work>
    <dc:type rdf:resource="http://purl.org/dc/dcmitype/StillImage"/>
    <dc:date>2024-06-13T22:38:50.364059</dc:date>
    <dc:format>image/svg+xml</dc:format>
    <dc:creator>
     <cc:Agent>
      <dc:title>Matplotlib v3.7.0, https://matplotlib.org/</dc:title>
     </cc:Agent>
    </dc:creator>
   </cc:Work>
  </rdf:RDF>
 </metadata>
 <defs>
  <style type="text/css">*{stroke-linejoin: round; stroke-linecap: butt}</style>
 </defs>
 <g id="figure_1">
  <g id="patch_1">
   <path d="M 0 432 
L 432 432 
L 432 0 
L 0 0 
z
" style="fill: #ffffff"/>
  </g>
  <g id="axes_1">
   <g id="patch_2">
    <path d="M 96.593395 306.110594 
L 421.2 306.110594 
L 421.2 10.8 
L 96.593395 10.8 
z
" style="fill: #ffffff"/>
   </g>
   <g id="PolyCollection_1">
    <defs>
     <path id="mcbc5751a6d" d="M 111.34824 -138.735182 
L 111.34824 -138.734949 
L 112.83114 -138.735931 
L 114.314039 -138.737903 
L 115.796938 -138.740998 
L 117.279837 -138.745109 
L 118.762736 -138.750159 
L 120.245635 -138.757124 
L 121.728534 -138.765272 
L 123.211433 -138.774728 
L 124.694332 -138.787626 
L 126.177231 -138.800531 
L 127.66013 -138.818842 
L 129.143029 -138.833096 
L 130.625928 -138.856732 
L 132.108827 -138.885602 
L 133.591726 -138.899875 
L 135.074625 -138.937045 
L 136.557525 -138.979855 
L 138.040424 -139.0212 
L 139.523323 -139.064165 
L 141.006222 -139.082011 
L 142.489121 -139.142002 
L 143.97202 -139.220065 
L 145.454919 -139.291062 
L 146.937818 -139.358834 
L 148.420717 -139.450622 
L 149.903616 -139.542448 
L 151.386515 -139.614856 
L 152.869414 -139.70278 
L 154.352313 -139.763655 
L 155.835212 -139.845064 
L 157.318111 -139.958509 
L 158.801011 -140.135081 
L 160.28391 -140.301379 
L 161.766809 -140.48126 
L 163.249708 -140.691923 
L 164.732607 -140.918931 
L 166.215506 -141.16765 
L 167.698405 -141.432377 
L 169.181304 -141.657955 
L 170.664203 -141.933448 
L 172.147102 -142.200085 
L 173.630001 -142.466871 
L 175.1129 -142.751922 
L 176.595799 -143.069074 
L 178.078698 -143.30523 
L 179.561597 -143.696675 
L 181.044497 -144.03657 
L 182.527396 -144.440507 
L 184.010295 -144.916394 
L 185.493194 -145.311058 
L 186.976093 -145.728076 
L 188.458992 -146.287033 
L 189.941891 -146.699936 
L 191.42479 -147.261925 
L 192.907689 -147.652385 
L 194.390588 -148.30234 
L 195.873487 -148.694314 
L 197.356386 -149.139649 
L 198.839285 -149.824264 
L 200.322184 -150.425401 
L 201.805083 -151.22022 
L 203.287982 -151.540061 
L 204.770882 -152.211511 
L 206.253781 -153.030621 
L 207.73668 -153.784021 
L 209.219579 -154.457642 
L 210.702478 -154.91675 
L 212.185377 -156.114157 
L 213.668276 -156.667248 
L 215.151175 -157.282618 
L 216.634074 -158.338723 
L 218.116973 -158.941095 
L 219.599872 -159.922943 
L 221.082771 -161.142282 
L 222.56567 -161.834891 
L 224.048569 -162.572004 
L 225.531468 -163.73062 
L 227.014368 -164.6907 
L 228.497267 -165.428637 
L 229.980166 -166.141312 
L 231.463065 -167.548924 
L 232.945964 -168.148489 
L 234.428863 -169.238098 
L 235.911762 -170.165188 
L 237.394661 -171.161326 
L 238.87756 -172.269815 
L 240.360459 -173.997116 
L 241.843358 -174.765833 
L 243.326257 -175.427149 
L 244.809156 -176.688303 
L 246.292055 -177.904334 
L 247.774954 -178.854738 
L 249.257853 -179.640522 
L 250.740753 -180.372865 
L 252.223652 -181.799852 
L 253.706551 -182.698369 
L 255.18945 -183.925726 
L 256.672349 -184.97868 
L 258.155248 -186.130347 
L 259.638147 -186.552635 
L 261.121046 -187.403032 
L 262.603945 -188.522326 
L 264.086844 -189.70716 
L 265.569743 -191.097376 
L 267.052642 -191.485316 
L 268.535541 -192.802966 
L 270.01844 -193.970448 
L 271.501339 -194.679006 
L 272.984239 -195.998622 
L 274.467138 -196.681158 
L 275.950037 -198.075724 
L 277.432936 -198.736573 
L 278.915835 -199.563759 
L 280.398734 -200.322441 
L 281.881633 -201.370843 
L 283.364532 -202.043269 
L 284.847431 -203.168077 
L 286.33033 -203.044657 
L 287.813229 -204.758726 
L 289.296128 -205.837204 
L 290.779027 -206.381184 
L 292.261926 -207.404506 
L 293.744825 -208.038222 
L 295.227724 -208.933461 
L 296.710624 -209.867897 
L 298.193523 -210.735887 
L 299.676422 -211.536304 
L 301.159321 -211.740495 
L 302.64222 -212.620159 
L 304.125119 -213.800038 
L 305.608018 -214.439157 
L 307.090917 -215.008744 
L 308.573816 -215.929175 
L 310.056715 -217.032083 
L 311.539614 -217.591961 
L 313.022513 -217.3751 
L 314.505412 -218.635036 
L 315.988311 -219.011113 
L 317.47121 -220.2312 
L 318.95411 -220.971607 
L 320.437009 -220.824737 
L 321.919908 -221.140141 
L 323.402807 -222.134687 
L 324.885706 -222.743663 
L 326.368605 -223.18053 
L 327.851504 -224.305814 
L 329.334403 -224.412764 
L 330.817302 -225.108551 
L 332.300201 -225.981096 
L 333.7831 -226.288608 
L 335.265999 -226.466048 
L 336.748898 -227.008123 
L 338.231797 -228.141376 
L 339.714696 -228.123133 
L 341.197595 -229.272969 
L 342.680495 -229.714013 
L 344.163394 -230.080018 
L 345.646293 -229.716654 
L 347.129192 -230.092347 
L 348.612091 -231.255146 
L 350.09499 -231.176767 
L 351.577889 -231.962794 
L 353.060788 -232.228076 
L 354.543687 -232.90062 
L 356.026586 -232.894315 
L 357.509485 -233.654146 
L 358.992384 -233.478065 
L 360.475283 -234.362639 
L 361.958182 -234.942643 
L 363.441081 -235.164517 
L 364.923981 -235.061615 
L 366.40688 -236.17751 
L 367.889779 -236.037767 
L 369.372678 -236.261788 
L 370.855577 -236.891459 
L 372.338476 -237.1702 
L 373.821375 -237.719205 
L 375.304274 -238.212204 
L 376.787173 -238.329824 
L 378.270072 -238.741145 
L 379.752971 -238.78943 
L 381.23587 -238.797207 
L 382.718769 -239.385067 
L 384.201668 -240.015719 
L 385.684567 -239.552032 
L 387.167466 -240.218759 
L 388.650366 -240.771043 
L 390.133265 -240.92327 
L 391.616164 -241.078101 
L 393.099063 -241.806839 
L 394.581962 -241.765385 
L 396.064861 -241.253684 
L 397.54776 -241.553477 
L 399.030659 -242.394767 
L 400.513558 -242.221727 
L 401.996457 -242.200857 
L 403.479356 -243.196571 
L 404.962255 -242.761074 
L 406.445154 -243.549105 
L 406.445154 -246.68914 
L 406.445154 -246.68914 
L 404.962255 -247.206479 
L 403.479356 -246.112552 
L 401.996457 -246.476272 
L 400.513558 -246.200199 
L 399.030659 -245.6675 
L 397.54776 -246.034651 
L 396.064861 -245.949563 
L 394.581962 -245.313511 
L 393.099063 -245.043922 
L 391.616164 -245.298011 
L 390.133265 -244.946896 
L 388.650366 -244.33293 
L 387.167466 -244.115315 
L 385.684567 -244.372751 
L 384.201668 -243.527326 
L 382.718769 -243.918543 
L 381.23587 -243.925963 
L 379.752971 -243.121662 
L 378.270072 -242.583412 
L 376.787173 -242.741527 
L 375.304274 -242.560045 
L 373.821375 -242.26731 
L 372.338476 -242.233267 
L 370.855577 -241.966061 
L 369.372678 -241.89384 
L 367.889779 -241.253549 
L 366.40688 -240.829936 
L 364.923981 -241.443194 
L 363.441081 -240.356715 
L 361.958182 -240.096629 
L 360.475283 -240.218038 
L 358.992384 -240.327669 
L 357.509485 -239.780569 
L 356.026586 -239.980872 
L 354.543687 -239.103534 
L 353.060788 -239.219368 
L 351.577889 -238.710613 
L 350.09499 -238.723528 
L 348.612091 -237.829127 
L 347.129192 -238.031837 
L 345.646293 -237.861072 
L 344.163394 -236.769786 
L 342.680495 -236.161042 
L 341.197595 -235.61874 
L 339.714696 -235.915937 
L 338.231797 -234.942457 
L 336.748898 -235.15684 
L 335.265999 -234.778225 
L 333.7831 -234.011349 
L 332.300201 -233.439637 
L 330.817302 -233.236313 
L 329.334403 -232.915865 
L 327.851504 -232.115515 
L 326.368605 -232.702688 
L 324.885706 -232.230889 
L 323.402807 -231.63956 
L 321.919908 -231.292794 
L 320.437009 -230.691013 
L 318.95411 -229.621708 
L 317.47121 -229.148172 
L 315.988311 -229.468323 
L 314.505412 -228.462784 
L 313.022513 -228.42684 
L 311.539614 -227.171296 
L 310.056715 -226.686611 
L 308.573816 -226.301159 
L 307.090917 -225.716287 
L 305.608018 -225.033872 
L 304.125119 -224.560245 
L 302.64222 -224.413123 
L 301.159321 -224.195296 
L 299.676422 -223.2489 
L 298.193523 -222.519362 
L 296.710624 -221.875335 
L 295.227724 -221.480115 
L 293.744825 -220.975071 
L 292.261926 -219.924351 
L 290.779027 -219.291495 
L 289.296128 -218.426863 
L 287.813229 -218.139441 
L 286.33033 -218.449028 
L 284.847431 -216.792651 
L 283.364532 -216.423368 
L 281.881633 -215.403947 
L 280.398734 -214.932275 
L 278.915835 -213.918575 
L 277.432936 -213.097049 
L 275.950037 -212.404865 
L 274.467138 -212.133766 
L 272.984239 -210.916319 
L 271.501339 -210.469658 
L 270.01844 -209.494635 
L 268.535541 -208.828162 
L 267.052642 -208.389268 
L 265.569743 -207.021816 
L 264.086844 -206.57488 
L 262.603945 -205.875665 
L 261.121046 -205.104278 
L 259.638147 -204.196322 
L 258.155248 -202.695058 
L 256.672349 -201.962793 
L 255.18945 -201.057743 
L 253.706551 -200.518339 
L 252.223652 -199.416728 
L 250.740753 -198.738812 
L 249.257853 -197.595967 
L 247.774954 -196.527811 
L 246.292055 -195.35313 
L 244.809156 -194.366232 
L 243.326257 -193.74041 
L 241.843358 -192.41609 
L 240.360459 -191.25296 
L 238.87756 -191.011743 
L 237.394661 -190.052985 
L 235.911762 -188.906828 
L 234.428863 -187.706939 
L 232.945964 -186.876849 
L 231.463065 -185.495931 
L 229.980166 -184.842608 
L 228.497267 -183.475449 
L 227.014368 -181.980398 
L 225.531468 -180.728579 
L 224.048569 -179.974695 
L 222.56567 -178.663422 
L 221.082771 -177.213029 
L 219.599872 -176.468431 
L 218.116973 -175.478362 
L 216.634074 -174.036962 
L 215.151175 -173.054514 
L 213.668276 -171.666802 
L 212.185377 -170.275694 
L 210.702478 -169.452935 
L 209.219579 -167.99194 
L 207.73668 -166.558301 
L 206.253781 -165.199972 
L 204.770882 -164.052211 
L 203.287982 -162.837109 
L 201.805083 -161.298103 
L 200.322184 -160.244423 
L 198.839285 -158.932012 
L 197.356386 -157.849088 
L 195.873487 -156.546969 
L 194.390588 -155.154762 
L 192.907689 -154.085376 
L 191.42479 -152.844679 
L 189.941891 -151.80772 
L 188.458992 -150.623887 
L 186.976093 -149.769282 
L 185.493194 -148.79215 
L 184.010295 -147.820323 
L 182.527396 -147.057997 
L 181.044497 -146.3163 
L 179.561597 -145.585729 
L 178.078698 -144.969137 
L 176.595799 -144.27755 
L 175.1129 -143.796936 
L 173.630001 -143.341784 
L 172.147102 -142.911667 
L 170.664203 -142.554107 
L 169.181304 -142.277465 
L 167.698405 -141.98355 
L 166.215506 -141.773303 
L 164.732607 -141.589302 
L 163.249708 -141.419662 
L 161.766809 -141.276206 
L 160.28391 -141.129458 
L 158.801011 -140.99131 
L 157.318111 -140.860554 
L 155.835212 -140.680917 
L 154.352313 -140.467221 
L 152.869414 -140.227278 
L 151.386515 -140.039184 
L 149.903616 -139.868267 
L 148.420717 -139.749866 
L 146.937818 -139.656808 
L 145.454919 -139.563724 
L 143.97202 -139.490163 
L 142.489121 -139.436234 
L 141.006222 -139.366703 
L 139.523323 -139.258998 
L 138.040424 -139.188431 
L 136.557525 -139.133171 
L 135.074625 -139.092438 
L 133.591726 -139.052475 
L 132.108827 -138.994407 
L 130.625928 -138.958627 
L 129.143029 -138.925881 
L 127.66013 -138.889889 
L 126.177231 -138.863802 
L 124.694332 -138.838096 
L 123.211433 -138.817279 
L 121.728534 -138.797874 
L 120.245635 -138.781465 
L 118.762736 -138.768166 
L 117.279837 -138.756898 
L 115.796938 -138.748193 
L 114.314039 -138.741741 
L 112.83114 -138.737381 
L 111.34824 -138.735182 
z
" style="stroke: #5d9ca2; stroke-opacity: 0.3"/>
    </defs>
    <g clip-path="url(#p2a14666737)">
     <use xlink:href="#mcbc5751a6d" x="0" y="432" style="fill: #5d9ca2; fill-opacity: 0.3; stroke: #5d9ca2; stroke-opacity: 0.3"/>
    </g>
   </g>
   <g id="PolyCollection_2">
    <defs>
     <path id="m379b8fafa3" d="M 111.34824 -138.735181 
L 111.34824 -138.734947 
L 112.83114 -138.735917 
L 114.314039 -138.737909 
L 115.796938 -138.740936 
L 117.279837 -138.745068 
L 118.762736 -138.750405 
L 120.245635 -138.757067 
L 121.728534 -138.765191 
L 123.211433 -138.774933 
L 124.694332 -138.786465 
L 126.177231 -138.799979 
L 127.66013 -138.815682 
L 129.143029 -138.833801 
L 130.625928 -138.854576 
L 132.108827 -138.878267 
L 133.591726 -138.905144 
L 135.074625 -138.935496 
L 136.557525 -138.969622 
L 138.040424 -139.007833 
L 139.523323 -139.050453 
L 141.006222 -139.097814 
L 142.489121 -139.150256 
L 143.97202 -139.208127 
L 145.454919 -139.271782 
L 146.937818 -139.341579 
L 148.420717 -139.417881 
L 149.903616 -139.501054 
L 151.386515 -139.591464 
L 152.869414 -139.689479 
L 154.352313 -139.795467 
L 155.835212 -139.909795 
L 157.318111 -140.032828 
L 158.801011 -140.164928 
L 160.28391 -140.306454 
L 161.766809 -140.457763 
L 163.249708 -140.619206 
L 164.732607 -140.791133 
L 166.215506 -140.973885 
L 167.698405 -141.167801 
L 169.181304 -141.373215 
L 170.664203 -141.590454 
L 172.147102 -141.819844 
L 173.630001 -142.061702 
L 175.1129 -142.316343 
L 176.595799 -142.584076 
L 178.078698 -142.865209 
L 179.561597 -143.160045 
L 181.044497 -143.468886 
L 182.527396 -143.792033 
L 184.010295 -144.129785 
L 185.493194 -144.482442 
L 186.976093 -144.850307 
L 188.458992 -145.233682 
L 189.941891 -145.632873 
L 191.42479 -146.048187 
L 192.907689 -146.479935 
L 194.390588 -146.928429 
L 195.873487 -147.393984 
L 197.356386 -147.876916 
L 198.839285 -148.377541 
L 200.322184 -148.896175 
L 201.805083 -149.433133 
L 203.287982 -149.988725 
L 204.770882 -150.563257 
L 206.253781 -151.157029 
L 207.73668 -151.770334 
L 209.219579 -152.403452 
L 210.702478 -153.056653 
L 212.185377 -153.730194 
L 213.668276 -154.424313 
L 215.151175 -155.13923 
L 216.634074 -155.875146 
L 218.116973 -156.632235 
L 219.599872 -157.410648 
L 221.082771 -158.210507 
L 222.56567 -159.031901 
L 224.048569 -159.874887 
L 225.531468 -160.739486 
L 227.014368 -161.62568 
L 228.497267 -162.533412 
L 229.980166 -163.462582 
L 231.463065 -164.413046 
L 232.945964 -165.384614 
L 234.428863 -166.377053 
L 235.911762 -167.390081 
L 237.394661 -168.42337 
L 238.87756 -169.476546 
L 240.360459 -170.54919 
L 241.843358 -171.640837 
L 243.326257 -172.750983 
L 244.809156 -173.879082 
L 246.292055 -175.024551 
L 247.774954 -176.186777 
L 249.257853 -177.365113 
L 250.740753 -178.558891 
L 252.223652 -179.767422 
L 253.706551 -180.990005 
L 255.18945 -182.22593 
L 256.672349 -183.474487 
L 258.155248 -184.73497 
L 259.638147 -186.006691 
L 261.121046 -187.288976 
L 262.603945 -188.581184 
L 264.086844 -189.882706 
L 265.569743 -191.192973 
L 267.052642 -192.511463 
L 268.535541 -193.837704 
L 270.01844 -195.171279 
L 271.501339 -196.511827 
L 272.984239 -197.859047 
L 274.467138 -199.212694 
L 275.950037 -200.57258 
L 277.432936 -201.938573 
L 278.915835 -203.310592 
L 280.398734 -204.688604 
L 281.881633 -206.072622 
L 283.364532 -207.462695 
L 284.847431 -208.85891 
L 286.33033 -210.26138 
L 287.813229 -211.670249 
L 289.296128 -213.085678 
L 290.779027 -214.507847 
L 292.261926 -215.936951 
L 293.744825 -217.373194 
L 295.227724 -218.816791 
L 296.710624 -220.267959 
L 298.193523 -221.726922 
L 299.676422 -223.193903 
L 301.159321 -224.669129 
L 302.64222 -226.152824 
L 304.125119 -227.645211 
L 305.608018 -229.146512 
L 307.090917 -230.656945 
L 308.573816 -232.176724 
L 310.056715 -233.706063 
L 311.539614 -235.245168 
L 313.022513 -236.794244 
L 314.505412 -238.353492 
L 315.988311 -239.923107 
L 317.47121 -241.503283 
L 318.95411 -243.094207 
L 320.437009 -244.696065 
L 321.919908 -246.309038 
L 323.402807 -247.933302 
L 324.885706 -249.569033 
L 326.368605 -251.2164 
L 327.851504 -252.875571 
L 329.334403 -254.54671 
L 330.817302 -256.229977 
L 332.300201 -257.925532 
L 333.7831 -259.633529 
L 335.265999 -261.35412 
L 336.748898 -263.087457 
L 338.231797 -264.833685 
L 339.714696 -266.592951 
L 341.197595 -268.365397 
L 342.680495 -270.151164 
L 344.163394 -271.950389 
L 345.646293 -273.76321 
L 347.129192 -275.589761 
L 348.612091 -277.430174 
L 350.09499 -279.284581 
L 351.577889 -281.153109 
L 353.060788 -283.035888 
L 354.543687 -284.933041 
L 356.026586 -286.844695 
L 357.509485 -288.770971 
L 358.992384 -290.71199 
L 360.475283 -292.667874 
L 361.958182 -294.63874 
L 363.441081 -296.624705 
L 364.923981 -298.625887 
L 366.40688 -300.642401 
L 367.889779 -302.674359 
L 369.372678 -304.721875 
L 370.855577 -306.785061 
L 372.338476 -308.864027 
L 373.821375 -310.958884 
L 375.304274 -313.06974 
L 376.787173 -315.196703 
L 378.270072 -317.339881 
L 379.752971 -319.499379 
L 381.23587 -321.675303 
L 382.718769 -323.867758 
L 384.201668 -326.076848 
L 385.684567 -328.302676 
L 387.167466 -330.545344 
L 388.650366 -332.804955 
L 390.133265 -335.081609 
L 391.616164 -337.375407 
L 393.099063 -339.686449 
L 394.581962 -342.014835 
L 396.064861 -344.360663 
L 397.54776 -346.724032 
L 399.030659 -349.105039 
L 400.513558 -351.503781 
L 401.996457 -353.920013 
L 403.479356 -356.342432 
L 404.962255 -358.631818 
L 406.445154 -360.170223 
L 406.445154 -388.758115 
L 406.445154 -388.758115 
L 404.962255 -386.990327 
L 403.479356 -384.471222 
L 401.996457 -381.818734 
L 400.513558 -379.172064 
L 399.030659 -376.5425 
L 397.54776 -373.930271 
L 396.064861 -371.335264 
L 394.581962 -368.757363 
L 393.099063 -366.196455 
L 391.616164 -363.652423 
L 390.133265 -361.125151 
L 388.650366 -358.614523 
L 387.167466 -356.120421 
L 385.684567 -353.642727 
L 384.201668 -351.181324 
L 382.718769 -348.736091 
L 381.23587 -346.306909 
L 379.752971 -343.893658 
L 378.270072 -341.496218 
L 376.787173 -339.114467 
L 375.304274 -336.748284 
L 373.821375 -334.397547 
L 372.338476 -332.062133 
L 370.855577 -329.74192 
L 369.372678 -327.436785 
L 367.889779 -325.146604 
L 366.40688 -322.871253 
L 364.923981 -320.610611 
L 363.441081 -318.364551 
L 361.958182 -316.132951 
L 360.475283 -313.915688 
L 358.992384 -311.712637 
L 357.509485 -309.523675 
L 356.026586 -307.34868 
L 354.543687 -305.187528 
L 353.060788 -303.040099 
L 351.577889 -300.90627 
L 350.09499 -298.785922 
L 348.612091 -296.678936 
L 347.129192 -294.585193 
L 345.646293 -292.504576 
L 344.163394 -290.436971 
L 342.680495 -288.382265 
L 341.197595 -286.340345 
L 339.714696 -284.311104 
L 338.231797 -282.294434 
L 336.748898 -280.290233 
L 335.265999 -278.2984 
L 333.7831 -276.318838 
L 332.300201 -274.351453 
L 330.817302 -272.396158 
L 329.334403 -270.452868 
L 327.851504 -268.521504 
L 326.368605 -266.601993 
L 324.885706 -264.694267 
L 323.402807 -262.798264 
L 321.919908 -260.913932 
L 320.437009 -259.041224 
L 318.95411 -257.180101 
L 317.47121 -255.330535 
L 315.988311 -253.492506 
L 314.505412 -251.666005 
L 313.022513 -249.851032 
L 311.539614 -248.047599 
L 310.056715 -246.255733 
L 308.573816 -244.475471 
L 307.090917 -242.706863 
L 305.608018 -240.949975 
L 304.125119 -239.204886 
L 302.64222 -237.471692 
L 301.159321 -235.750504 
L 299.676422 -234.041447 
L 298.193523 -232.344664 
L 296.710624 -230.660313 
L 295.227724 -228.98857 
L 293.744825 -227.329622 
L 292.261926 -225.683674 
L 290.779027 -224.050944 
L 289.296128 -222.431661 
L 287.813229 -220.826063 
L 286.33033 -219.234399 
L 284.847431 -217.65692 
L 283.364532 -216.09388 
L 281.881633 -214.545532 
L 280.398734 -213.012123 
L 278.915835 -211.493891 
L 277.432936 -209.99106 
L 275.950037 -208.503835 
L 274.467138 -207.032403 
L 272.984239 -205.57692 
L 271.501339 -204.137519 
L 270.01844 -202.714297 
L 268.535541 -201.307324 
L 267.052642 -199.916632 
L 265.569743 -198.542222 
L 264.086844 -197.184066 
L 262.603945 -195.842104 
L 261.121046 -194.516252 
L 259.638147 -193.206404 
L 258.155248 -191.912435 
L 256.672349 -190.634209 
L 255.18945 -189.37158 
L 253.706551 -188.1244 
L 252.223652 -186.892521 
L 250.740753 -185.6758 
L 249.257853 -184.474102 
L 247.774954 -183.287303 
L 246.292055 -182.115294 
L 244.809156 -180.957983 
L 243.326257 -179.815295 
L 241.843358 -178.687171 
L 240.360459 -177.573577 
L 238.87756 -176.474493 
L 237.394661 -175.389921 
L 235.911762 -174.319884 
L 234.428863 -173.264421 
L 232.945964 -172.223589 
L 231.463065 -171.197463 
L 229.980166 -170.186133 
L 228.497267 -169.189704 
L 227.014368 -168.208294 
L 225.531468 -167.242033 
L 224.048569 -166.291062 
L 222.56567 -165.355531 
L 221.082771 -164.4356 
L 219.599872 -163.531432 
L 218.116973 -162.643198 
L 216.634074 -161.771072 
L 215.151175 -160.915229 
L 213.668276 -160.075845 
L 212.185377 -159.253097 
L 210.702478 -158.447155 
L 209.219579 -157.658187 
L 207.73668 -156.886357 
L 206.253781 -156.131816 
L 204.770882 -155.394709 
L 203.287982 -154.675168 
L 201.805083 -153.973313 
L 200.322184 -153.289247 
L 198.839285 -152.623058 
L 197.356386 -151.974816 
L 195.873487 -151.344572 
L 194.390588 -150.732354 
L 192.907689 -150.138172 
L 191.42479 -149.562012 
L 189.941891 -149.003839 
L 188.458992 -148.463593 
L 186.976093 -147.941194 
L 185.493194 -147.436539 
L 184.010295 -146.949507 
L 182.527396 -146.479952 
L 181.044497 -146.027715 
L 179.561597 -145.592615 
L 178.078698 -145.174458 
L 176.595799 -144.773035 
L 175.1129 -144.388122 
L 173.630001 -144.019485 
L 172.147102 -143.666878 
L 170.664203 -143.330044 
L 169.181304 -143.008714 
L 167.698405 -142.702612 
L 166.215506 -142.411449 
L 164.732607 -142.134927 
L 163.249708 -141.872737 
L 161.766809 -141.624559 
L 160.28391 -141.390062 
L 158.801011 -141.168904 
L 157.318111 -140.960732 
L 155.835212 -140.76518 
L 154.352313 -140.581873 
L 152.869414 -140.410423 
L 151.386515 -140.250434 
L 149.903616 -140.101497 
L 148.420717 -139.963195 
L 146.937818 -139.835104 
L 145.454919 -139.716792 
L 143.97202 -139.60782 
L 142.489121 -139.507746 
L 141.006222 -139.416124 
L 139.523323 -139.332507 
L 138.040424 -139.256451 
L 136.557525 -139.187512 
L 135.074625 -139.125254 
L 133.591726 -139.069245 
L 132.108827 -139.019067 
L 130.625928 -138.974312 
L 129.143029 -138.934585 
L 127.66013 -138.899511 
L 126.177231 -138.868732 
L 124.694332 -138.841911 
L 123.211433 -138.818734 
L 121.728534 -138.798911 
L 120.245635 -138.782177 
L 118.762736 -138.768292 
L 117.279837 -138.757042 
L 115.796938 -138.748243 
L 114.314039 -138.741734 
L 112.83114 -138.737397 
L 111.34824 -138.735181 
z
" style="stroke: #ff6f61; stroke-opacity: 0.3"/>
    </defs>
    <g clip-path="url(#p2a14666737)">
     <use xlink:href="#m379b8fafa3" x="0" y="432" style="fill: #ff6f61; fill-opacity: 0.3; stroke: #ff6f61; stroke-opacity: 0.3"/>
    </g>
   </g>
   <g id="matplotlib.axis_1">
    <g id="xtick_1">
     <g id="line2d_1">
      <path d="M 111.34824 306.110594 
L 111.34824 10.8 
" clip-path="url(#p2a14666737)" style="fill: none; stroke-dasharray: 2.59,1.12; stroke-dashoffset: 0; stroke: #808080; stroke-width: 0.7"/>
     </g>
     <g id="line2d_2">
      <defs>
       <path id="m0ed5a60e56" d="M 0 0 
L 0 3.5 
" style="stroke: #000000; stroke-width: 0.8"/>
      </defs>
      <g>
       <use xlink:href="#m0ed5a60e56" x="111.34824" y="306.110594" style="stroke: #000000; stroke-width: 0.8"/>
      </g>
     </g>
     <g id="text_1">
      <!-- 1 / 0.00 -->
      <g transform="translate(54.167609 378.095917) rotate(-45) scale(0.2 -0.2)">
       <defs>
        <path id="DejaVuSans-31" d="M 794 531 
L 1825 531 
L 1825 4091 
L 703 3866 
L 703 4441 
L 1819 4666 
L 2450 4666 
L 2450 531 
L 3481 531 
L 3481 0 
L 794 0 
L 794 531 
z
" transform="scale(0.015625)"/>
        <path id="DejaVuSans-20" transform="scale(0.015625)"/>
        <path id="DejaVuSans-2f" d="M 1625 4666 
L 2156 4666 
L 531 -594 
L 0 -594 
L 1625 4666 
z
" transform="scale(0.015625)"/>
        <path id="DejaVuSans-30" d="M 2034 4250 
Q 1547 4250 1301 3770 
Q 1056 3291 1056 2328 
Q 1056 1369 1301 889 
Q 1547 409 2034 409 
Q 2525 409 2770 889 
Q 3016 1369 3016 2328 
Q 3016 3291 2770 3770 
Q 2525 4250 2034 4250 
z
M 2034 4750 
Q 2819 4750 3233 4129 
Q 3647 3509 3647 2328 
Q 3647 1150 3233 529 
Q 2819 -91 2034 -91 
Q 1250 -91 836 529 
Q 422 1150 422 2328 
Q 422 3509 836 4129 
Q 1250 4750 2034 4750 
z
" transform="scale(0.015625)"/>
        <path id="DejaVuSans-2e" d="M 684 794 
L 1344 794 
L 1344 0 
L 684 0 
L 684 794 
z
" transform="scale(0.015625)"/>
       </defs>
       <use xlink:href="#DejaVuSans-31"/>
       <use xlink:href="#DejaVuSans-20" x="63.623047"/>
       <use xlink:href="#DejaVuSans-2f" x="95.410156"/>
       <use xlink:href="#DejaVuSans-20" x="129.101562"/>
       <use xlink:href="#DejaVuSans-30" x="160.888672"/>
       <use xlink:href="#DejaVuSans-2e" x="224.511719"/>
       <use xlink:href="#DejaVuSans-30" x="256.298828"/>
       <use xlink:href="#DejaVuSans-30" x="319.921875"/>
      </g>
     </g>
    </g>
    <g id="xtick_2">
     <g id="line2d_3">
      <path d="M 170.367623 306.110594 
L 170.367623 10.8 
" clip-path="url(#p2a14666737)" style="fill: none; stroke-dasharray: 2.59,1.12; stroke-dashoffset: 0; stroke: #808080; stroke-width: 0.7"/>
     </g>
     <g id="line2d_4">
      <g>
       <use xlink:href="#m0ed5a60e56" x="170.367623" y="306.110594" style="stroke: #000000; stroke-width: 0.8"/>
      </g>
     </g>
     <g id="text_2">
      <!-- 11 / 0.06 -->
      <g transform="translate(104.189058 387.093851) rotate(-45) scale(0.2 -0.2)">
       <defs>
        <path id="DejaVuSans-36" d="M 2113 2584 
Q 1688 2584 1439 2293 
Q 1191 2003 1191 1497 
Q 1191 994 1439 701 
Q 1688 409 2113 409 
Q 2538 409 2786 701 
Q 3034 994 3034 1497 
Q 3034 2003 2786 2293 
Q 2538 2584 2113 2584 
z
M 3366 4563 
L 3366 3988 
Q 3128 4100 2886 4159 
Q 2644 4219 2406 4219 
Q 1781 4219 1451 3797 
Q 1122 3375 1075 2522 
Q 1259 2794 1537 2939 
Q 1816 3084 2150 3084 
Q 2853 3084 3261 2657 
Q 3669 2231 3669 1497 
Q 3669 778 3244 343 
Q 2819 -91 2113 -91 
Q 1303 -91 875 529 
Q 447 1150 447 2328 
Q 447 3434 972 4092 
Q 1497 4750 2381 4750 
Q 2619 4750 2861 4703 
Q 3103 4656 3366 4563 
z
" transform="scale(0.015625)"/>
       </defs>
       <use xlink:href="#DejaVuSans-31"/>
       <use xlink:href="#DejaVuSans-31" x="63.623047"/>
       <use xlink:href="#DejaVuSans-20" x="127.246094"/>
       <use xlink:href="#DejaVuSans-2f" x="159.033203"/>
       <use xlink:href="#DejaVuSans-20" x="192.724609"/>
       <use xlink:href="#DejaVuSans-30" x="224.511719"/>
       <use xlink:href="#DejaVuSans-2e" x="288.134766"/>
       <use xlink:href="#DejaVuSans-30" x="319.921875"/>
       <use xlink:href="#DejaVuSans-36" x="383.544922"/>
      </g>
     </g>
    </g>
    <g id="xtick_3">
     <g id="line2d_5">
      <path d="M 229.387006 306.110594 
L 229.387006 10.8 
" clip-path="url(#p2a14666737)" style="fill: none; stroke-dasharray: 2.59,1.12; stroke-dashoffset: 0; stroke: #808080; stroke-width: 0.7"/>
     </g>
     <g id="line2d_6">
      <g>
       <use xlink:href="#m0ed5a60e56" x="229.387006" y="306.110594" style="stroke: #000000; stroke-width: 0.8"/>
      </g>
     </g>
     <g id="text_3">
      <!-- 20 / 0.12 -->
      <g transform="translate(163.20844 387.093851) rotate(-45) scale(0.2 -0.2)">
       <defs>
        <path id="DejaVuSans-32" d="M 1228 531 
L 3431 531 
L 3431 0 
L 469 0 
L 469 531 
Q 828 903 1448 1529 
Q 2069 2156 2228 2338 
Q 2531 2678 2651 2914 
Q 2772 3150 2772 3378 
Q 2772 3750 2511 3984 
Q 2250 4219 1831 4219 
Q 1534 4219 1204 4116 
Q 875 4013 500 3803 
L 500 4441 
Q 881 4594 1212 4672 
Q 1544 4750 1819 4750 
Q 2544 4750 2975 4387 
Q 3406 4025 3406 3419 
Q 3406 3131 3298 2873 
Q 3191 2616 2906 2266 
Q 2828 2175 2409 1742 
Q 1991 1309 1228 531 
z
" transform="scale(0.015625)"/>
       </defs>
       <use xlink:href="#DejaVuSans-32"/>
       <use xlink:href="#DejaVuSans-30" x="63.623047"/>
       <use xlink:href="#DejaVuSans-20" x="127.246094"/>
       <use xlink:href="#DejaVuSans-2f" x="159.033203"/>
       <use xlink:href="#DejaVuSans-20" x="192.724609"/>
       <use xlink:href="#DejaVuSans-30" x="224.511719"/>
       <use xlink:href="#DejaVuSans-2e" x="288.134766"/>
       <use xlink:href="#DejaVuSans-31" x="319.921875"/>
       <use xlink:href="#DejaVuSans-32" x="383.544922"/>
      </g>
     </g>
    </g>
    <g id="xtick_4">
     <g id="line2d_7">
      <path d="M 288.406389 306.110594 
L 288.406389 10.8 
" clip-path="url(#p2a14666737)" style="fill: none; stroke-dasharray: 2.59,1.12; stroke-dashoffset: 0; stroke: #808080; stroke-width: 0.7"/>
     </g>
     <g id="line2d_8">
      <g>
       <use xlink:href="#m0ed5a60e56" x="288.406389" y="306.110594" style="stroke: #000000; stroke-width: 0.8"/>
      </g>
     </g>
     <g id="text_4">
      <!-- 30 / 0.18 -->
      <g transform="translate(222.227823 387.093851) rotate(-45) scale(0.2 -0.2)">
       <defs>
        <path id="DejaVuSans-33" d="M 2597 2516 
Q 3050 2419 3304 2112 
Q 3559 1806 3559 1356 
Q 3559 666 3084 287 
Q 2609 -91 1734 -91 
Q 1441 -91 1130 -33 
Q 819 25 488 141 
L 488 750 
Q 750 597 1062 519 
Q 1375 441 1716 441 
Q 2309 441 2620 675 
Q 2931 909 2931 1356 
Q 2931 1769 2642 2001 
Q 2353 2234 1838 2234 
L 1294 2234 
L 1294 2753 
L 1863 2753 
Q 2328 2753 2575 2939 
Q 2822 3125 2822 3475 
Q 2822 3834 2567 4026 
Q 2313 4219 1838 4219 
Q 1578 4219 1281 4162 
Q 984 4106 628 3988 
L 628 4550 
Q 988 4650 1302 4700 
Q 1616 4750 1894 4750 
Q 2613 4750 3031 4423 
Q 3450 4097 3450 3541 
Q 3450 3153 3228 2886 
Q 3006 2619 2597 2516 
z
" transform="scale(0.015625)"/>
        <path id="DejaVuSans-38" d="M 2034 2216 
Q 1584 2216 1326 1975 
Q 1069 1734 1069 1313 
Q 1069 891 1326 650 
Q 1584 409 2034 409 
Q 2484 409 2743 651 
Q 3003 894 3003 1313 
Q 3003 1734 2745 1975 
Q 2488 2216 2034 2216 
z
M 1403 2484 
Q 997 2584 770 2862 
Q 544 3141 544 3541 
Q 544 4100 942 4425 
Q 1341 4750 2034 4750 
Q 2731 4750 3128 4425 
Q 3525 4100 3525 3541 
Q 3525 3141 3298 2862 
Q 3072 2584 2669 2484 
Q 3125 2378 3379 2068 
Q 3634 1759 3634 1313 
Q 3634 634 3220 271 
Q 2806 -91 2034 -91 
Q 1263 -91 848 271 
Q 434 634 434 1313 
Q 434 1759 690 2068 
Q 947 2378 1403 2484 
z
M 1172 3481 
Q 1172 3119 1398 2916 
Q 1625 2713 2034 2713 
Q 2441 2713 2670 2916 
Q 2900 3119 2900 3481 
Q 2900 3844 2670 4047 
Q 2441 4250 2034 4250 
Q 1625 4250 1398 4047 
Q 1172 3844 1172 3481 
z
" transform="scale(0.015625)"/>
       </defs>
       <use xlink:href="#DejaVuSans-33"/>
       <use xlink:href="#DejaVuSans-30" x="63.623047"/>
       <use xlink:href="#DejaVuSans-20" x="127.246094"/>
       <use xlink:href="#DejaVuSans-2f" x="159.033203"/>
       <use xlink:href="#DejaVuSans-20" x="192.724609"/>
       <use xlink:href="#DejaVuSans-30" x="224.511719"/>
       <use xlink:href="#DejaVuSans-2e" x="288.134766"/>
       <use xlink:href="#DejaVuSans-31" x="319.921875"/>
       <use xlink:href="#DejaVuSans-38" x="383.544922"/>
      </g>
     </g>
    </g>
    <g id="xtick_5">
     <g id="line2d_9">
      <path d="M 347.425772 306.110594 
L 347.425772 10.8 
" clip-path="url(#p2a14666737)" style="fill: none; stroke-dasharray: 2.59,1.12; stroke-dashoffset: 0; stroke: #808080; stroke-width: 0.7"/>
     </g>
     <g id="line2d_10">
      <g>
       <use xlink:href="#m0ed5a60e56" x="347.425772" y="306.110594" style="stroke: #000000; stroke-width: 0.8"/>
      </g>
     </g>
     <g id="text_5">
      <!-- 40 / 0.24 -->
      <g transform="translate(281.247206 387.093851) rotate(-45) scale(0.2 -0.2)">
       <defs>
        <path id="DejaVuSans-34" d="M 2419 4116 
L 825 1625 
L 2419 1625 
L 2419 4116 
z
M 2253 4666 
L 3047 4666 
L 3047 1625 
L 3713 1625 
L 3713 1100 
L 3047 1100 
L 3047 0 
L 2419 0 
L 2419 1100 
L 313 1100 
L 313 1709 
L 2253 4666 
z
" transform="scale(0.015625)"/>
       </defs>
       <use xlink:href="#DejaVuSans-34"/>
       <use xlink:href="#DejaVuSans-30" x="63.623047"/>
       <use xlink:href="#DejaVuSans-20" x="127.246094"/>
       <use xlink:href="#DejaVuSans-2f" x="159.033203"/>
       <use xlink:href="#DejaVuSans-20" x="192.724609"/>
       <use xlink:href="#DejaVuSans-30" x="224.511719"/>
       <use xlink:href="#DejaVuSans-2e" x="288.134766"/>
       <use xlink:href="#DejaVuSans-32" x="319.921875"/>
       <use xlink:href="#DejaVuSans-34" x="383.544922"/>
      </g>
     </g>
    </g>
    <g id="xtick_6">
     <g id="line2d_11">
      <path d="M 406.445154 306.110594 
L 406.445154 10.8 
" clip-path="url(#p2a14666737)" style="fill: none; stroke-dasharray: 2.59,1.12; stroke-dashoffset: 0; stroke: #808080; stroke-width: 0.7"/>
     </g>
     <g id="line2d_12">
      <g>
       <use xlink:href="#m0ed5a60e56" x="406.445154" y="306.110594" style="stroke: #000000; stroke-width: 0.8"/>
      </g>
     </g>
     <g id="text_6">
      <!-- 50 / 0.30 -->
      <g transform="translate(340.266589 387.093851) rotate(-45) scale(0.2 -0.2)">
       <defs>
        <path id="DejaVuSans-35" d="M 691 4666 
L 3169 4666 
L 3169 4134 
L 1269 4134 
L 1269 2991 
Q 1406 3038 1543 3061 
Q 1681 3084 1819 3084 
Q 2600 3084 3056 2656 
Q 3513 2228 3513 1497 
Q 3513 744 3044 326 
Q 2575 -91 1722 -91 
Q 1428 -91 1123 -41 
Q 819 9 494 109 
L 494 744 
Q 775 591 1075 516 
Q 1375 441 1709 441 
Q 2250 441 2565 725 
Q 2881 1009 2881 1497 
Q 2881 1984 2565 2268 
Q 2250 2553 1709 2553 
Q 1456 2553 1204 2497 
Q 953 2441 691 2322 
L 691 4666 
z
" transform="scale(0.015625)"/>
       </defs>
       <use xlink:href="#DejaVuSans-35"/>
       <use xlink:href="#DejaVuSans-30" x="63.623047"/>
       <use xlink:href="#DejaVuSans-20" x="127.246094"/>
       <use xlink:href="#DejaVuSans-2f" x="159.033203"/>
       <use xlink:href="#DejaVuSans-20" x="192.724609"/>
       <use xlink:href="#DejaVuSans-30" x="224.511719"/>
       <use xlink:href="#DejaVuSans-2e" x="288.134766"/>
       <use xlink:href="#DejaVuSans-33" x="319.921875"/>
       <use xlink:href="#DejaVuSans-30" x="383.544922"/>
      </g>
     </g>
    </g>
    <g id="text_7">
     <!-- $f$ (Hz) / $\eta$ (a.u.) -->
     <g transform="translate(171.056697 412.274973) scale(0.24 -0.24)">
      <defs>
       <path id="DejaVuSans-Oblique-66" d="M 3059 4863 
L 2969 4384 
L 2419 4384 
Q 2106 4384 1964 4261 
Q 1822 4138 1753 3809 
L 1691 3500 
L 2638 3500 
L 2553 3053 
L 1606 3053 
L 1013 0 
L 434 0 
L 1031 3053 
L 481 3053 
L 563 3500 
L 1113 3500 
L 1159 3744 
Q 1278 4363 1576 4613 
Q 1875 4863 2516 4863 
L 3059 4863 
z
" transform="scale(0.015625)"/>
       <path id="DejaVuSans-28" d="M 1984 4856 
Q 1566 4138 1362 3434 
Q 1159 2731 1159 2009 
Q 1159 1288 1364 580 
Q 1569 -128 1984 -844 
L 1484 -844 
Q 1016 -109 783 600 
Q 550 1309 550 2009 
Q 550 2706 781 3412 
Q 1013 4119 1484 4856 
L 1984 4856 
z
" transform="scale(0.015625)"/>
       <path id="DejaVuSans-48" d="M 628 4666 
L 1259 4666 
L 1259 2753 
L 3553 2753 
L 3553 4666 
L 4184 4666 
L 4184 0 
L 3553 0 
L 3553 2222 
L 1259 2222 
L 1259 0 
L 628 0 
L 628 4666 
z
" transform="scale(0.015625)"/>
       <path id="DejaVuSans-7a" d="M 353 3500 
L 3084 3500 
L 3084 2975 
L 922 459 
L 3084 459 
L 3084 0 
L 275 0 
L 275 525 
L 2438 3041 
L 353 3041 
L 353 3500 
z
" transform="scale(0.015625)"/>
       <path id="DejaVuSans-29" d="M 513 4856 
L 1013 4856 
Q 1481 4119 1714 3412 
Q 1947 2706 1947 2009 
Q 1947 1309 1714 600 
Q 1481 -109 1013 -844 
L 513 -844 
Q 928 -128 1133 580 
Q 1338 1288 1338 2009 
Q 1338 2731 1133 3434 
Q 928 4138 513 4856 
z
" transform="scale(0.015625)"/>
       <path id="DejaVuSans-Oblique-3b7" d="M 3703 2113 
L 3034 -1331 
L 2459 -1331 
L 3125 2094 
Q 3222 2591 3075 2838 
Q 2931 3084 2544 3084 
Q 2078 3084 1750 2788 
Q 1425 2491 1325 1978 
L 941 0 
L 363 0 
L 1044 3500 
L 1622 3500 
L 1516 2956 
Q 1781 3272 2094 3428 
Q 2403 3584 2769 3584 
Q 3372 3584 3609 3213 
Q 3844 2838 3703 2113 
z
" transform="scale(0.015625)"/>
       <path id="DejaVuSans-61" d="M 2194 1759 
Q 1497 1759 1228 1600 
Q 959 1441 959 1056 
Q 959 750 1161 570 
Q 1363 391 1709 391 
Q 2188 391 2477 730 
Q 2766 1069 2766 1631 
L 2766 1759 
L 2194 1759 
z
M 3341 1997 
L 3341 0 
L 2766 0 
L 2766 531 
Q 2569 213 2275 61 
Q 1981 -91 1556 -91 
Q 1019 -91 701 211 
Q 384 513 384 1019 
Q 384 1609 779 1909 
Q 1175 2209 1959 2209 
L 2766 2209 
L 2766 2266 
Q 2766 2663 2505 2880 
Q 2244 3097 1772 3097 
Q 1472 3097 1187 3025 
Q 903 2953 641 2809 
L 641 3341 
Q 956 3463 1253 3523 
Q 1550 3584 1831 3584 
Q 2591 3584 2966 3190 
Q 3341 2797 3341 1997 
z
" transform="scale(0.015625)"/>
       <path id="DejaVuSans-75" d="M 544 1381 
L 544 3500 
L 1119 3500 
L 1119 1403 
Q 1119 906 1312 657 
Q 1506 409 1894 409 
Q 2359 409 2629 706 
Q 2900 1003 2900 1516 
L 2900 3500 
L 3475 3500 
L 3475 0 
L 2900 0 
L 2900 538 
Q 2691 219 2414 64 
Q 2138 -91 1772 -91 
Q 1169 -91 856 284 
Q 544 659 544 1381 
z
M 1991 3584 
L 1991 3584 
z
" transform="scale(0.015625)"/>
      </defs>
      <use xlink:href="#DejaVuSans-Oblique-66" transform="translate(0 0.015625)"/>
      <use xlink:href="#DejaVuSans-20" transform="translate(35.205078 0.015625)"/>
      <use xlink:href="#DejaVuSans-28" transform="translate(66.992188 0.015625)"/>
      <use xlink:href="#DejaVuSans-48" transform="translate(106.005859 0.015625)"/>
      <use xlink:href="#DejaVuSans-7a" transform="translate(181.201172 0.015625)"/>
      <use xlink:href="#DejaVuSans-29" transform="translate(233.691406 0.015625)"/>
      <use xlink:href="#DejaVuSans-20" transform="translate(272.705078 0.015625)"/>
      <use xlink:href="#DejaVuSans-2f" transform="translate(304.492188 0.015625)"/>
      <use xlink:href="#DejaVuSans-20" transform="translate(338.183594 0.015625)"/>
      <use xlink:href="#DejaVuSans-Oblique-3b7" transform="translate(369.970703 0.015625)"/>
      <use xlink:href="#DejaVuSans-20" transform="translate(433.349609 0.015625)"/>
      <use xlink:href="#DejaVuSans-28" transform="translate(465.136719 0.015625)"/>
      <use xlink:href="#DejaVuSans-61" transform="translate(504.150391 0.015625)"/>
      <use xlink:href="#DejaVuSans-2e" transform="translate(565.429688 0.015625)"/>
      <use xlink:href="#DejaVuSans-75" transform="translate(597.216797 0.015625)"/>
      <use xlink:href="#DejaVuSans-2e" transform="translate(660.595703 0.015625)"/>
      <use xlink:href="#DejaVuSans-29" transform="translate(692.382812 0.015625)"/>
     </g>
    </g>
   </g>
   <g id="matplotlib.axis_2">
    <g id="ytick_1">
     <g id="line2d_13">
      <path d="M 96.593395 293.26606 
L 421.2 293.26606 
" clip-path="url(#p2a14666737)" style="fill: none; stroke-dasharray: 2.59,1.12; stroke-dashoffset: 0; stroke: #808080; stroke-width: 0.7"/>
     </g>
     <g id="line2d_14">
      <defs>
       <path id="m3c7169ff9e" d="M 0 0 
L -3.5 0 
" style="stroke: #000000; stroke-width: 0.8"/>
      </defs>
      <g>
       <use xlink:href="#m3c7169ff9e" x="96.593395" y="293.26606" style="stroke: #000000; stroke-width: 0.8"/>
      </g>
     </g>
     <g id="text_8">
      <!-- $0$ -->
      <g transform="translate(76.793395 300.864498) scale(0.2 -0.2)">
       <use xlink:href="#DejaVuSans-30" transform="translate(0 0.78125)"/>
      </g>
     </g>
    </g>
    <g id="ytick_2">
     <g id="line2d_15">
      <path d="M 96.593395 226.012236 
L 421.2 226.012236 
" clip-path="url(#p2a14666737)" style="fill: none; stroke-dasharray: 2.59,1.12; stroke-dashoffset: 0; stroke: #808080; stroke-width: 0.7"/>
     </g>
     <g id="line2d_16">
      <g>
       <use xlink:href="#m3c7169ff9e" x="96.593395" y="226.012236" style="stroke: #000000; stroke-width: 0.8"/>
      </g>
     </g>
     <g id="text_9">
      <!-- $\pi/2$ -->
      <g transform="translate(58.793395 233.610674) scale(0.2 -0.2)">
       <defs>
        <path id="DejaVuSans-Oblique-3c0" d="M 584 3500 
L 3938 3500 
L 3825 2925 
L 3384 2925 
L 2966 775 
Q 2922 550 2981 450 
Q 3038 353 3209 353 
Q 3256 353 3325 363 
Q 3397 369 3419 372 
L 3338 -44 
Q 3222 -84 3103 -103 
Q 2981 -122 2866 -122 
Q 2491 -122 2388 81 
Q 2284 288 2391 838 
L 2797 2925 
L 1506 2925 
L 938 0 
L 350 0 
L 919 2925 
L 472 2925 
L 584 3500 
z
" transform="scale(0.015625)"/>
       </defs>
       <use xlink:href="#DejaVuSans-Oblique-3c0" transform="translate(0 0.78125)"/>
       <use xlink:href="#DejaVuSans-2f" transform="translate(60.205078 0.78125)"/>
       <use xlink:href="#DejaVuSans-32" transform="translate(90.271484 0.78125)"/>
      </g>
     </g>
    </g>
    <g id="ytick_3">
     <g id="line2d_17">
      <path d="M 96.593395 158.758412 
L 421.2 158.758412 
" clip-path="url(#p2a14666737)" style="fill: none; stroke-dasharray: 2.59,1.12; stroke-dashoffset: 0; stroke: #808080; stroke-width: 0.7"/>
     </g>
     <g id="line2d_18">
      <g>
       <use xlink:href="#m3c7169ff9e" x="96.593395" y="158.758412" style="stroke: #000000; stroke-width: 0.8"/>
      </g>
     </g>
     <g id="text_10">
      <!-- $\pi$ -->
      <g transform="translate(77.393395 166.35685) scale(0.2 -0.2)">
       <use xlink:href="#DejaVuSans-Oblique-3c0" transform="translate(0 0.3125)"/>
      </g>
     </g>
    </g>
    <g id="ytick_4">
     <g id="line2d_19">
      <path d="M 96.593395 91.504589 
L 421.2 91.504589 
" clip-path="url(#p2a14666737)" style="fill: none; stroke-dasharray: 2.59,1.12; stroke-dashoffset: 0; stroke: #808080; stroke-width: 0.7"/>
     </g>
     <g id="line2d_20">
      <g>
       <use xlink:href="#m3c7169ff9e" x="96.593395" y="91.504589" style="stroke: #000000; stroke-width: 0.8"/>
      </g>
     </g>
     <g id="text_11">
      <!-- $3\pi/2$ -->
      <g transform="translate(45.993395 99.103026) scale(0.2 -0.2)">
       <use xlink:href="#DejaVuSans-33" transform="translate(0 0.78125)"/>
       <use xlink:href="#DejaVuSans-Oblique-3c0" transform="translate(63.623047 0.78125)"/>
       <use xlink:href="#DejaVuSans-2f" transform="translate(123.828125 0.78125)"/>
       <use xlink:href="#DejaVuSans-32" transform="translate(153.894531 0.78125)"/>
      </g>
     </g>
    </g>
    <g id="ytick_5">
     <g id="line2d_21">
      <path d="M 96.593395 24.250765 
L 421.2 24.250765 
" clip-path="url(#p2a14666737)" style="fill: none; stroke-dasharray: 2.59,1.12; stroke-dashoffset: 0; stroke: #808080; stroke-width: 0.7"/>
     </g>
     <g id="line2d_22">
      <g>
       <use xlink:href="#m3c7169ff9e" x="96.593395" y="24.250765" style="stroke: #000000; stroke-width: 0.8"/>
      </g>
     </g>
     <g id="text_12">
      <!-- $2\pi$ -->
      <g transform="translate(64.793395 31.849202) scale(0.2 -0.2)">
       <use xlink:href="#DejaVuSans-32" transform="translate(0 0.78125)"/>
       <use xlink:href="#DejaVuSans-Oblique-3c0" transform="translate(63.623047 0.78125)"/>
      </g>
     </g>
    </g>
    <g id="text_13">
     <!-- $\overline{Var}[\phi]$ -->
     <g transform="translate(36.953395 196.255297) rotate(-90) scale(0.24 -0.24)">
      <defs>
       <path id="DejaVuSans-Oblique-56" d="M 1319 0 
L 500 4666 
L 1119 4666 
L 1797 653 
L 4063 4666 
L 4750 4666 
L 2053 0 
L 1319 0 
z
" transform="scale(0.015625)"/>
       <path id="DejaVuSans-Oblique-61" d="M 3438 1997 
L 3047 0 
L 2472 0 
L 2578 531 
Q 2325 219 2001 64 
Q 1678 -91 1281 -91 
Q 834 -91 548 182 
Q 263 456 263 884 
Q 263 1497 752 1853 
Q 1241 2209 2100 2209 
L 2900 2209 
L 2931 2363 
Q 2938 2388 2941 2417 
Q 2944 2447 2944 2509 
Q 2944 2788 2717 2942 
Q 2491 3097 2081 3097 
Q 1800 3097 1504 3025 
Q 1209 2953 897 2809 
L 997 3341 
Q 1322 3463 1633 3523 
Q 1944 3584 2234 3584 
Q 2853 3584 3176 3315 
Q 3500 3047 3500 2534 
Q 3500 2431 3484 2292 
Q 3469 2153 3438 1997 
z
M 2816 1759 
L 2241 1759 
Q 1534 1759 1195 1570 
Q 856 1381 856 984 
Q 856 709 1029 553 
Q 1203 397 1509 397 
Q 1978 397 2328 733 
Q 2678 1069 2791 1631 
L 2816 1759 
z
" transform="scale(0.015625)"/>
       <path id="DejaVuSans-Oblique-72" d="M 2853 2969 
Q 2766 3016 2653 3041 
Q 2541 3066 2413 3066 
Q 1953 3066 1609 2717 
Q 1266 2369 1153 1784 
L 800 0 
L 225 0 
L 909 3500 
L 1484 3500 
L 1375 2956 
Q 1603 3259 1920 3421 
Q 2238 3584 2597 3584 
Q 2691 3584 2781 3573 
Q 2872 3563 2963 3538 
L 2853 2969 
z
" transform="scale(0.015625)"/>
       <path id="DejaVuSans-5b" d="M 550 4863 
L 1875 4863 
L 1875 4416 
L 1125 4416 
L 1125 -397 
L 1875 -397 
L 1875 -844 
L 550 -844 
L 550 4863 
z
" transform="scale(0.015625)"/>
       <path id="DejaVuSans-Oblique-3d5" d="M 2991 4863 
L 2738 3572 
Q 3363 3572 3684 3094 
Q 4016 2606 3850 1747 
Q 3681 888 3159 400 
Q 2653 -78 2028 -78 
L 1784 -1331 
L 1213 -1331 
L 1456 -78 
Q 834 -78 509 400 
Q 178 888 347 1747 
Q 513 2606 1034 3094 
Q 1544 3572 2166 3572 
L 2419 4863 
L 2991 4863 
z
M 2128 434 
Q 2481 434 2784 756 
Q 3116 1116 3244 1747 
Q 3369 2372 3169 2738 
Q 2991 3059 2638 3059 
L 2128 434 
z
M 1556 434 
L 2066 3059 
Q 1716 3059 1413 2738 
Q 1072 2372 953 1747 
Q 834 1116 1028 756 
Q 1203 434 1556 434 
z
" transform="scale(0.015625)"/>
       <path id="DejaVuSans-5d" d="M 1947 4863 
L 1947 -844 
L 622 -844 
L 622 -397 
L 1369 -397 
L 1369 4416 
L 622 4416 
L 622 4863 
L 1947 4863 
z
" transform="scale(0.015625)"/>
      </defs>
      <use xlink:href="#DejaVuSans-Oblique-56" transform="translate(0 0.84375)"/>
      <use xlink:href="#DejaVuSans-Oblique-61" transform="translate(68.408203 0.84375)"/>
      <use xlink:href="#DejaVuSans-Oblique-72" transform="translate(129.6875 0.84375)"/>
      <use xlink:href="#DejaVuSans-5b" transform="translate(170.800781 0.34375)"/>
      <use xlink:href="#DejaVuSans-Oblique-3d5" transform="translate(209.814453 0.34375)"/>
      <use xlink:href="#DejaVuSans-5d" transform="translate(275.78125 0.34375)"/>
      <path d="M 0 85.5 
L 0 91.75 
L 170.800781 91.75 
L 170.800781 85.5 
L 0 85.5 
z
"/>
     </g>
    </g>
   </g>
   <g id="line2d_23">
    <path d="M 111.34824 293.264934 
L 127.66013 293.145634 
L 139.523323 292.838419 
L 149.903616 292.294642 
L 157.318111 291.590468 
L 164.732607 290.745884 
L 169.181304 290.03229 
L 173.630001 289.095672 
L 176.595799 288.326688 
L 181.044497 286.823565 
L 184.010295 285.631641 
L 188.458992 283.54454 
L 194.390588 280.271449 
L 203.287982 274.811415 
L 206.253781 272.884703 
L 210.702478 269.815157 
L 227.014368 258.664451 
L 229.980166 256.50804 
L 240.360459 249.374962 
L 244.809156 246.472733 
L 247.774954 244.308725 
L 250.740753 242.444161 
L 253.706551 240.391646 
L 256.672349 238.529264 
L 267.052642 232.062708 
L 275.950037 226.759705 
L 277.432936 226.083189 
L 286.33033 221.253158 
L 292.261926 218.335571 
L 293.744825 217.493354 
L 301.159321 214.032105 
L 304.125119 212.819858 
L 307.090917 211.637485 
L 310.056715 210.140653 
L 313.022513 209.09903 
L 315.988311 207.760282 
L 317.47121 207.310314 
L 318.95411 206.703343 
L 321.919908 205.783533 
L 324.885706 204.512724 
L 326.368605 204.058391 
L 327.851504 203.789336 
L 330.817302 202.827568 
L 333.7831 201.850021 
L 344.163394 198.575098 
L 351.577889 196.663297 
L 356.026586 195.562407 
L 363.441081 194.239384 
L 364.923981 193.747595 
L 369.372678 192.922186 
L 372.338476 192.298266 
L 376.787173 191.464325 
L 378.270072 191.337722 
L 384.201668 190.228477 
L 387.167466 189.832963 
L 390.133265 189.064917 
L 393.099063 188.57462 
L 397.54776 188.205936 
L 400.513558 187.789037 
L 401.996457 187.661436 
L 404.962255 187.016224 
L 406.445154 186.880878 
L 406.445154 186.880878 
" clip-path="url(#p2a14666737)" style="fill: none; stroke: #5d9ca2; stroke-opacity: 0.8; stroke-width: 5; stroke-linecap: square"/>
   </g>
   <g id="line2d_24">
    <path d="M 111.34824 293.264936 
L 127.66013 293.142403 
L 138.040424 292.867858 
L 146.937818 292.411658 
L 154.352313 291.81133 
L 161.766809 290.958839 
L 167.698405 290.064794 
L 173.630001 288.959406 
L 179.561597 287.62367 
L 185.493194 286.040509 
L 191.42479 284.1949 
L 197.356386 282.074134 
L 203.287982 279.668054 
L 209.219579 276.96918 
L 215.151175 273.97277 
L 221.082771 270.676947 
L 227.014368 267.083013 
L 232.945964 263.195898 
L 238.87756 259.024481 
L 244.809156 254.581467 
L 250.740753 249.882655 
L 258.155248 243.676297 
L 265.569743 237.132402 
L 272.984239 230.282016 
L 280.398734 223.149636 
L 287.813229 215.751844 
L 296.710624 206.535864 
L 305.608018 196.951757 
L 314.505412 186.990252 
L 323.402807 176.634217 
L 330.817302 167.686932 
L 338.231797 158.43594 
L 345.646293 148.866107 
L 353.060788 138.962007 
L 360.475283 128.708219 
L 367.889779 118.089519 
L 375.304274 107.090988 
L 382.718769 95.698076 
L 390.133265 83.89662 
L 397.54776 71.672848 
L 404.962255 59.188928 
L 406.445154 57.535831 
L 406.445154 57.535831 
" clip-path="url(#p2a14666737)" style="fill: none; stroke: #ff6f61; stroke-opacity: 0.8; stroke-width: 5; stroke-linecap: square"/>
   </g>
   <g id="legend_1">
    <g id="line2d_25">
     <path d="M 112.793395 34.377188 
L 130.793395 34.377188 
L 148.793395 34.377188 
" style="fill: none; stroke: #5d9ca2; stroke-opacity: 0.8; stroke-width: 5; stroke-linecap: square"/>
    </g>
    <g id="text_14">
     <!-- Simulations -->
     <g transform="translate(163.193395 40.677188) scale(0.18 -0.18)">
      <defs>
       <path id="DejaVuSans-53" d="M 3425 4513 
L 3425 3897 
Q 3066 4069 2747 4153 
Q 2428 4238 2131 4238 
Q 1616 4238 1336 4038 
Q 1056 3838 1056 3469 
Q 1056 3159 1242 3001 
Q 1428 2844 1947 2747 
L 2328 2669 
Q 3034 2534 3370 2195 
Q 3706 1856 3706 1288 
Q 3706 609 3251 259 
Q 2797 -91 1919 -91 
Q 1588 -91 1214 -16 
Q 841 59 441 206 
L 441 856 
Q 825 641 1194 531 
Q 1563 422 1919 422 
Q 2459 422 2753 634 
Q 3047 847 3047 1241 
Q 3047 1584 2836 1778 
Q 2625 1972 2144 2069 
L 1759 2144 
Q 1053 2284 737 2584 
Q 422 2884 422 3419 
Q 422 4038 858 4394 
Q 1294 4750 2059 4750 
Q 2388 4750 2728 4690 
Q 3069 4631 3425 4513 
z
" transform="scale(0.015625)"/>
       <path id="DejaVuSans-69" d="M 603 3500 
L 1178 3500 
L 1178 0 
L 603 0 
L 603 3500 
z
M 603 4863 
L 1178 4863 
L 1178 4134 
L 603 4134 
L 603 4863 
z
" transform="scale(0.015625)"/>
       <path id="DejaVuSans-6d" d="M 3328 2828 
Q 3544 3216 3844 3400 
Q 4144 3584 4550 3584 
Q 5097 3584 5394 3201 
Q 5691 2819 5691 2113 
L 5691 0 
L 5113 0 
L 5113 2094 
Q 5113 2597 4934 2840 
Q 4756 3084 4391 3084 
Q 3944 3084 3684 2787 
Q 3425 2491 3425 1978 
L 3425 0 
L 2847 0 
L 2847 2094 
Q 2847 2600 2669 2842 
Q 2491 3084 2119 3084 
Q 1678 3084 1418 2786 
Q 1159 2488 1159 1978 
L 1159 0 
L 581 0 
L 581 3500 
L 1159 3500 
L 1159 2956 
Q 1356 3278 1631 3431 
Q 1906 3584 2284 3584 
Q 2666 3584 2933 3390 
Q 3200 3197 3328 2828 
z
" transform="scale(0.015625)"/>
       <path id="DejaVuSans-6c" d="M 603 4863 
L 1178 4863 
L 1178 0 
L 603 0 
L 603 4863 
z
" transform="scale(0.015625)"/>
       <path id="DejaVuSans-74" d="M 1172 4494 
L 1172 3500 
L 2356 3500 
L 2356 3053 
L 1172 3053 
L 1172 1153 
Q 1172 725 1289 603 
Q 1406 481 1766 481 
L 2356 481 
L 2356 0 
L 1766 0 
Q 1100 0 847 248 
Q 594 497 594 1153 
L 594 3053 
L 172 3053 
L 172 3500 
L 594 3500 
L 594 4494 
L 1172 4494 
z
" transform="scale(0.015625)"/>
       <path id="DejaVuSans-6f" d="M 1959 3097 
Q 1497 3097 1228 2736 
Q 959 2375 959 1747 
Q 959 1119 1226 758 
Q 1494 397 1959 397 
Q 2419 397 2687 759 
Q 2956 1122 2956 1747 
Q 2956 2369 2687 2733 
Q 2419 3097 1959 3097 
z
M 1959 3584 
Q 2709 3584 3137 3096 
Q 3566 2609 3566 1747 
Q 3566 888 3137 398 
Q 2709 -91 1959 -91 
Q 1206 -91 779 398 
Q 353 888 353 1747 
Q 353 2609 779 3096 
Q 1206 3584 1959 3584 
z
" transform="scale(0.015625)"/>
       <path id="DejaVuSans-6e" d="M 3513 2113 
L 3513 0 
L 2938 0 
L 2938 2094 
Q 2938 2591 2744 2837 
Q 2550 3084 2163 3084 
Q 1697 3084 1428 2787 
Q 1159 2491 1159 1978 
L 1159 0 
L 581 0 
L 581 3500 
L 1159 3500 
L 1159 2956 
Q 1366 3272 1645 3428 
Q 1925 3584 2291 3584 
Q 2894 3584 3203 3211 
Q 3513 2838 3513 2113 
z
" transform="scale(0.015625)"/>
       <path id="DejaVuSans-73" d="M 2834 3397 
L 2834 2853 
Q 2591 2978 2328 3040 
Q 2066 3103 1784 3103 
Q 1356 3103 1142 2972 
Q 928 2841 928 2578 
Q 928 2378 1081 2264 
Q 1234 2150 1697 2047 
L 1894 2003 
Q 2506 1872 2764 1633 
Q 3022 1394 3022 966 
Q 3022 478 2636 193 
Q 2250 -91 1575 -91 
Q 1294 -91 989 -36 
Q 684 19 347 128 
L 347 722 
Q 666 556 975 473 
Q 1284 391 1588 391 
Q 1994 391 2212 530 
Q 2431 669 2431 922 
Q 2431 1156 2273 1281 
Q 2116 1406 1581 1522 
L 1381 1569 
Q 847 1681 609 1914 
Q 372 2147 372 2553 
Q 372 3047 722 3315 
Q 1072 3584 1716 3584 
Q 2034 3584 2315 3537 
Q 2597 3491 2834 3397 
z
" transform="scale(0.015625)"/>
      </defs>
      <use xlink:href="#DejaVuSans-53"/>
      <use xlink:href="#DejaVuSans-69" x="63.476562"/>
      <use xlink:href="#DejaVuSans-6d" x="91.259766"/>
      <use xlink:href="#DejaVuSans-75" x="188.671875"/>
      <use xlink:href="#DejaVuSans-6c" x="252.050781"/>
      <use xlink:href="#DejaVuSans-61" x="279.833984"/>
      <use xlink:href="#DejaVuSans-74" x="341.113281"/>
      <use xlink:href="#DejaVuSans-69" x="380.322266"/>
      <use xlink:href="#DejaVuSans-6f" x="408.105469"/>
      <use xlink:href="#DejaVuSans-6e" x="469.287109"/>
      <use xlink:href="#DejaVuSans-73" x="532.666016"/>
     </g>
    </g>
    <g id="line2d_26">
     <path d="M 112.793395 60.797812 
L 130.793395 60.797812 
L 148.793395 60.797812 
" style="fill: none; stroke: #ff6f61; stroke-opacity: 0.8; stroke-width: 5; stroke-linecap: square"/>
    </g>
    <g id="text_15">
     <!-- Theory -->
     <g transform="translate(163.193395 67.097812) scale(0.18 -0.18)">
      <defs>
       <path id="DejaVuSans-54" d="M -19 4666 
L 3928 4666 
L 3928 4134 
L 2272 4134 
L 2272 0 
L 1638 0 
L 1638 4134 
L -19 4134 
L -19 4666 
z
" transform="scale(0.015625)"/>
       <path id="DejaVuSans-68" d="M 3513 2113 
L 3513 0 
L 2938 0 
L 2938 2094 
Q 2938 2591 2744 2837 
Q 2550 3084 2163 3084 
Q 1697 3084 1428 2787 
Q 1159 2491 1159 1978 
L 1159 0 
L 581 0 
L 581 4863 
L 1159 4863 
L 1159 2956 
Q 1366 3272 1645 3428 
Q 1925 3584 2291 3584 
Q 2894 3584 3203 3211 
Q 3513 2838 3513 2113 
z
" transform="scale(0.015625)"/>
       <path id="DejaVuSans-65" d="M 3597 1894 
L 3597 1613 
L 953 1613 
Q 991 1019 1311 708 
Q 1631 397 2203 397 
Q 2534 397 2845 478 
Q 3156 559 3463 722 
L 3463 178 
Q 3153 47 2828 -22 
Q 2503 -91 2169 -91 
Q 1331 -91 842 396 
Q 353 884 353 1716 
Q 353 2575 817 3079 
Q 1281 3584 2069 3584 
Q 2775 3584 3186 3129 
Q 3597 2675 3597 1894 
z
M 3022 2063 
Q 3016 2534 2758 2815 
Q 2500 3097 2075 3097 
Q 1594 3097 1305 2825 
Q 1016 2553 972 2059 
L 3022 2063 
z
" transform="scale(0.015625)"/>
       <path id="DejaVuSans-72" d="M 2631 2963 
Q 2534 3019 2420 3045 
Q 2306 3072 2169 3072 
Q 1681 3072 1420 2755 
Q 1159 2438 1159 1844 
L 1159 0 
L 581 0 
L 581 3500 
L 1159 3500 
L 1159 2956 
Q 1341 3275 1631 3429 
Q 1922 3584 2338 3584 
Q 2397 3584 2469 3576 
Q 2541 3569 2628 3553 
L 2631 2963 
z
" transform="scale(0.015625)"/>
       <path id="DejaVuSans-79" d="M 2059 -325 
Q 1816 -950 1584 -1140 
Q 1353 -1331 966 -1331 
L 506 -1331 
L 506 -850 
L 844 -850 
Q 1081 -850 1212 -737 
Q 1344 -625 1503 -206 
L 1606 56 
L 191 3500 
L 800 3500 
L 1894 763 
L 2988 3500 
L 3597 3500 
L 2059 -325 
z
" transform="scale(0.015625)"/>
      </defs>
      <use xlink:href="#DejaVuSans-54"/>
      <use xlink:href="#DejaVuSans-68" x="61.083984"/>
      <use xlink:href="#DejaVuSans-65" x="124.462891"/>
      <use xlink:href="#DejaVuSans-6f" x="185.986328"/>
      <use xlink:href="#DejaVuSans-72" x="247.167969"/>
      <use xlink:href="#DejaVuSans-79" x="288.28125"/>
     </g>
    </g>
   </g>
  </g>
 </g>
 <defs>
  <clipPath id="p2a14666737">
   <rect x="96.593395" y="10.8" width="324.606605" height="295.310594"/>
  </clipPath>
 </defs>
</svg>
