<?xml version="1.0" encoding="utf-8" standalone="no"?>
<!DOCTYPE svg PUBLIC "-//W3C//DTD SVG 1.1//EN"
  "http://www.w3.org/Graphics/SVG/1.1/DTD/svg11.dtd">
<svg xmlns:xlink="http://www.w3.org/1999/xlink" width="360pt" height="360pt" viewBox="0 0 360 360" xmlns="http://www.w3.org/2000/svg" version="1.1">
 <metadata>
  <rdf:RDF xmlns:dc="http://purl.org/dc/elements/1.1/" xmlns:cc="http://creativecommons.org/ns#" xmlns:rdf="http://www.w3.org/1999/02/22-rdf-syntax-ns#">
   <cc:Work>
    <dc:type rdf:resource="http://purl.org/dc/dcmitype/StillImage"/>
    <dc:date>2024-06-24T23:26:01.705217</dc:date>
    <dc:format>image/svg+xml</dc:format>
    <dc:creator>
     <cc:Agent>
      <dc:title>Matplotlib v3.7.0, https://matplotlib.org/</dc:title>
     </cc:Agent>
    </dc:creator>
   </cc:Work>
  </rdf:RDF>
 </metadata>
 <defs>
  <style type="text/css">*{stroke-linejoin: round; stroke-linecap: butt}</style>
 </defs>
 <g id="figure_1">
  <g id="patch_1">
   <path d="M 0 360 
L 360 360 
L 360 0 
L 0 0 
z
" style="fill: #ffffff"/>
  </g>
  <g id="axes_1">
   <g id="patch_2">
    <path d="M 75.89 294.28 
L 342.846818 294.28 
L 342.846818 35.52 
L 75.89 35.52 
z
" style="fill: #ffffff"/>
   </g>
   <g id="matplotlib.axis_1">
    <g id="xtick_1">
     <g id="line2d_1">
      <defs>
       <path id="m8a14cdd201" d="M 0 0 
L 0 3.5 
" style="stroke: #000000; stroke-width: 0.8"/>
      </defs>
      <g>
       <use xlink:href="#m8a14cdd201" x="88.024401" y="294.28" style="stroke: #000000; stroke-width: 0.8"/>
      </g>
     </g>
     <g id="text_1">
      <!-- 20 -->
      <g transform="translate(75.299401 316.476875) scale(0.2 -0.2)">
       <defs>
        <path id="DejaVuSans-32" d="M 1228 531 
L 3431 531 
L 3431 0 
L 469 0 
L 469 531 
Q 828 903 1448 1529 
Q 2069 2156 2228 2338 
Q 2531 2678 2651 2914 
Q 2772 3150 2772 3378 
Q 2772 3750 2511 3984 
Q 2250 4219 1831 4219 
Q 1534 4219 1204 4116 
Q 875 4013 500 3803 
L 500 4441 
Q 881 4594 1212 4672 
Q 1544 4750 1819 4750 
Q 2544 4750 2975 4387 
Q 3406 4025 3406 3419 
Q 3406 3131 3298 2873 
Q 3191 2616 2906 2266 
Q 2828 2175 2409 1742 
Q 1991 1309 1228 531 
z
" transform="scale(0.015625)"/>
        <path id="DejaVuSans-30" d="M 2034 4250 
Q 1547 4250 1301 3770 
Q 1056 3291 1056 2328 
Q 1056 1369 1301 889 
Q 1547 409 2034 409 
Q 2525 409 2770 889 
Q 3016 1369 3016 2328 
Q 3016 3291 2770 3770 
Q 2525 4250 2034 4250 
z
M 2034 4750 
Q 2819 4750 3233 4129 
Q 3647 3509 3647 2328 
Q 3647 1150 3233 529 
Q 2819 -91 2034 -91 
Q 1250 -91 836 529 
Q 422 1150 422 2328 
Q 422 3509 836 4129 
Q 1250 4750 2034 4750 
z
" transform="scale(0.015625)"/>
       </defs>
       <use xlink:href="#DejaVuSans-32"/>
       <use xlink:href="#DejaVuSans-30" x="63.623047"/>
      </g>
     </g>
    </g>
    <g id="xtick_2">
     <g id="line2d_2">
      <g>
       <use xlink:href="#m8a14cdd201" x="148.696405" y="294.28" style="stroke: #000000; stroke-width: 0.8"/>
      </g>
     </g>
     <g id="text_2">
      <!-- 40 -->
      <g transform="translate(135.971405 316.476875) scale(0.2 -0.2)">
       <defs>
        <path id="DejaVuSans-34" d="M 2419 4116 
L 825 1625 
L 2419 1625 
L 2419 4116 
z
M 2253 4666 
L 3047 4666 
L 3047 1625 
L 3713 1625 
L 3713 1100 
L 3047 1100 
L 3047 0 
L 2419 0 
L 2419 1100 
L 313 1100 
L 313 1709 
L 2253 4666 
z
" transform="scale(0.015625)"/>
       </defs>
       <use xlink:href="#DejaVuSans-34"/>
       <use xlink:href="#DejaVuSans-30" x="63.623047"/>
      </g>
     </g>
    </g>
    <g id="xtick_3">
     <g id="line2d_3">
      <g>
       <use xlink:href="#m8a14cdd201" x="209.368409" y="294.28" style="stroke: #000000; stroke-width: 0.8"/>
      </g>
     </g>
     <g id="text_3">
      <!-- 60 -->
      <g transform="translate(196.643409 316.476875) scale(0.2 -0.2)">
       <defs>
        <path id="DejaVuSans-36" d="M 2113 2584 
Q 1688 2584 1439 2293 
Q 1191 2003 1191 1497 
Q 1191 994 1439 701 
Q 1688 409 2113 409 
Q 2538 409 2786 701 
Q 3034 994 3034 1497 
Q 3034 2003 2786 2293 
Q 2538 2584 2113 2584 
z
M 3366 4563 
L 3366 3988 
Q 3128 4100 2886 4159 
Q 2644 4219 2406 4219 
Q 1781 4219 1451 3797 
Q 1122 3375 1075 2522 
Q 1259 2794 1537 2939 
Q 1816 3084 2150 3084 
Q 2853 3084 3261 2657 
Q 3669 2231 3669 1497 
Q 3669 778 3244 343 
Q 2819 -91 2113 -91 
Q 1303 -91 875 529 
Q 447 1150 447 2328 
Q 447 3434 972 4092 
Q 1497 4750 2381 4750 
Q 2619 4750 2861 4703 
Q 3103 4656 3366 4563 
z
" transform="scale(0.015625)"/>
       </defs>
       <use xlink:href="#DejaVuSans-36"/>
       <use xlink:href="#DejaVuSans-30" x="63.623047"/>
      </g>
     </g>
    </g>
    <g id="xtick_4">
     <g id="line2d_4">
      <g>
       <use xlink:href="#m8a14cdd201" x="270.040413" y="294.28" style="stroke: #000000; stroke-width: 0.8"/>
      </g>
     </g>
     <g id="text_4">
      <!-- 80 -->
      <g transform="translate(257.315413 316.476875) scale(0.2 -0.2)">
       <defs>
        <path id="DejaVuSans-38" d="M 2034 2216 
Q 1584 2216 1326 1975 
Q 1069 1734 1069 1313 
Q 1069 891 1326 650 
Q 1584 409 2034 409 
Q 2484 409 2743 651 
Q 3003 894 3003 1313 
Q 3003 1734 2745 1975 
Q 2488 2216 2034 2216 
z
M 1403 2484 
Q 997 2584 770 2862 
Q 544 3141 544 3541 
Q 544 4100 942 4425 
Q 1341 4750 2034 4750 
Q 2731 4750 3128 4425 
Q 3525 4100 3525 3541 
Q 3525 3141 3298 2862 
Q 3072 2584 2669 2484 
Q 3125 2378 3379 2068 
Q 3634 1759 3634 1313 
Q 3634 634 3220 271 
Q 2806 -91 2034 -91 
Q 1263 -91 848 271 
Q 434 634 434 1313 
Q 434 1759 690 2068 
Q 947 2378 1403 2484 
z
M 1172 3481 
Q 1172 3119 1398 2916 
Q 1625 2713 2034 2713 
Q 2441 2713 2670 2916 
Q 2900 3119 2900 3481 
Q 2900 3844 2670 4047 
Q 2441 4250 2034 4250 
Q 1625 4250 1398 4047 
Q 1172 3844 1172 3481 
z
" transform="scale(0.015625)"/>
       </defs>
       <use xlink:href="#DejaVuSans-38"/>
       <use xlink:href="#DejaVuSans-30" x="63.623047"/>
      </g>
     </g>
    </g>
    <g id="xtick_5">
     <g id="line2d_5">
      <g>
       <use xlink:href="#m8a14cdd201" x="330.712417" y="294.28" style="stroke: #000000; stroke-width: 0.8"/>
      </g>
     </g>
     <g id="text_5">
      <!-- 100 -->
      <g transform="translate(311.624917 316.476875) scale(0.2 -0.2)">
       <defs>
        <path id="DejaVuSans-31" d="M 794 531 
L 1825 531 
L 1825 4091 
L 703 3866 
L 703 4441 
L 1819 4666 
L 2450 4666 
L 2450 531 
L 3481 531 
L 3481 0 
L 794 0 
L 794 531 
z
" transform="scale(0.015625)"/>
       </defs>
       <use xlink:href="#DejaVuSans-31"/>
       <use xlink:href="#DejaVuSans-30" x="63.623047"/>
       <use xlink:href="#DejaVuSans-30" x="127.246094"/>
      </g>
     </g>
    </g>
    <g id="text_6">
     <!-- $I_{osc}$ (pA) -->
     <g transform="translate(166.248409 341.35625) scale(0.22 -0.22)">
      <defs>
       <path id="DejaVuSans-Oblique-49" d="M 1081 4666 
L 1716 4666 
L 806 0 
L 172 0 
L 1081 4666 
z
" transform="scale(0.015625)"/>
       <path id="DejaVuSans-Oblique-6f" d="M 1625 -91 
Q 1009 -91 651 289 
Q 294 669 294 1325 
Q 294 1706 417 2101 
Q 541 2497 738 2766 
Q 1047 3184 1428 3384 
Q 1809 3584 2291 3584 
Q 2888 3584 3255 3212 
Q 3622 2841 3622 2241 
Q 3622 1825 3500 1412 
Q 3378 1000 3181 728 
Q 2875 309 2494 109 
Q 2113 -91 1625 -91 
z
M 891 1344 
Q 891 869 1089 633 
Q 1288 397 1691 397 
Q 2269 397 2648 901 
Q 3028 1406 3028 2181 
Q 3028 2634 2825 2865 
Q 2622 3097 2228 3097 
Q 1903 3097 1650 2945 
Q 1397 2794 1197 2484 
Q 1050 2253 970 1956 
Q 891 1659 891 1344 
z
" transform="scale(0.015625)"/>
       <path id="DejaVuSans-Oblique-73" d="M 3200 3397 
L 3091 2853 
Q 2863 2978 2609 3040 
Q 2356 3103 2088 3103 
Q 1634 3103 1373 2948 
Q 1113 2794 1113 2528 
Q 1113 2219 1719 2053 
Q 1766 2041 1788 2034 
L 1972 1978 
Q 2547 1819 2739 1644 
Q 2931 1469 2931 1166 
Q 2931 609 2489 259 
Q 2047 -91 1331 -91 
Q 1053 -91 747 -37 
Q 441 16 72 128 
L 184 722 
Q 500 559 806 475 
Q 1113 391 1394 391 
Q 1816 391 2080 572 
Q 2344 753 2344 1031 
Q 2344 1331 1650 1516 
L 1591 1531 
L 1394 1581 
Q 956 1697 753 1886 
Q 550 2075 550 2369 
Q 550 2928 970 3256 
Q 1391 3584 2113 3584 
Q 2397 3584 2667 3537 
Q 2938 3491 3200 3397 
z
" transform="scale(0.015625)"/>
       <path id="DejaVuSans-Oblique-63" d="M 3431 3366 
L 3316 2797 
Q 3109 2947 2876 3022 
Q 2644 3097 2394 3097 
Q 2119 3097 1870 3000 
Q 1622 2903 1453 2725 
Q 1184 2453 1037 2087 
Q 891 1722 891 1331 
Q 891 859 1127 628 
Q 1363 397 1844 397 
Q 2081 397 2348 469 
Q 2616 541 2906 684 
L 2797 116 
Q 2547 13 2283 -39 
Q 2019 -91 1741 -91 
Q 1044 -91 669 257 
Q 294 606 294 1253 
Q 294 1797 489 2255 
Q 684 2713 1069 3078 
Q 1331 3328 1684 3456 
Q 2038 3584 2456 3584 
Q 2700 3584 2940 3529 
Q 3181 3475 3431 3366 
z
" transform="scale(0.015625)"/>
       <path id="DejaVuSans-20" transform="scale(0.015625)"/>
       <path id="DejaVuSans-28" d="M 1984 4856 
Q 1566 4138 1362 3434 
Q 1159 2731 1159 2009 
Q 1159 1288 1364 580 
Q 1569 -128 1984 -844 
L 1484 -844 
Q 1016 -109 783 600 
Q 550 1309 550 2009 
Q 550 2706 781 3412 
Q 1013 4119 1484 4856 
L 1984 4856 
z
" transform="scale(0.015625)"/>
       <path id="DejaVuSans-70" d="M 1159 525 
L 1159 -1331 
L 581 -1331 
L 581 3500 
L 1159 3500 
L 1159 2969 
Q 1341 3281 1617 3432 
Q 1894 3584 2278 3584 
Q 2916 3584 3314 3078 
Q 3713 2572 3713 1747 
Q 3713 922 3314 415 
Q 2916 -91 2278 -91 
Q 1894 -91 1617 61 
Q 1341 213 1159 525 
z
M 3116 1747 
Q 3116 2381 2855 2742 
Q 2594 3103 2138 3103 
Q 1681 3103 1420 2742 
Q 1159 2381 1159 1747 
Q 1159 1113 1420 752 
Q 1681 391 2138 391 
Q 2594 391 2855 752 
Q 3116 1113 3116 1747 
z
" transform="scale(0.015625)"/>
       <path id="DejaVuSans-41" d="M 2188 4044 
L 1331 1722 
L 3047 1722 
L 2188 4044 
z
M 1831 4666 
L 2547 4666 
L 4325 0 
L 3669 0 
L 3244 1197 
L 1141 1197 
L 716 0 
L 50 0 
L 1831 4666 
z
" transform="scale(0.015625)"/>
       <path id="DejaVuSans-29" d="M 513 4856 
L 1013 4856 
Q 1481 4119 1714 3412 
Q 1947 2706 1947 2009 
Q 1947 1309 1714 600 
Q 1481 -109 1013 -844 
L 513 -844 
Q 928 -128 1133 580 
Q 1338 1288 1338 2009 
Q 1338 2731 1133 3434 
Q 928 4138 513 4856 
z
" transform="scale(0.015625)"/>
      </defs>
      <use xlink:href="#DejaVuSans-Oblique-49" transform="translate(0 0.125)"/>
      <use xlink:href="#DejaVuSans-Oblique-6f" transform="translate(29.492188 -16.28125) scale(0.7)"/>
      <use xlink:href="#DejaVuSans-Oblique-73" transform="translate(72.319336 -16.28125) scale(0.7)"/>
      <use xlink:href="#DejaVuSans-Oblique-63" transform="translate(108.789062 -16.28125) scale(0.7)"/>
      <use xlink:href="#DejaVuSans-20" transform="translate(150.009766 0.125)"/>
      <use xlink:href="#DejaVuSans-28" transform="translate(181.796875 0.125)"/>
      <use xlink:href="#DejaVuSans-70" transform="translate(220.810547 0.125)"/>
      <use xlink:href="#DejaVuSans-41" transform="translate(284.287109 0.125)"/>
      <use xlink:href="#DejaVuSans-29" transform="translate(352.695312 0.125)"/>
     </g>
    </g>
   </g>
   <g id="matplotlib.axis_2">
    <g id="ytick_1">
     <g id="line2d_6">
      <defs>
       <path id="m47b9fe9c23" d="M 0 0 
L -3.5 0 
" style="stroke: #000000; stroke-width: 0.8"/>
      </defs>
      <g>
       <use xlink:href="#m47b9fe9c23" x="75.89" y="290.708409" style="stroke: #000000; stroke-width: 0.8"/>
      </g>
     </g>
     <g id="text_7">
      <!-- 4.2 -->
      <g transform="translate(37.08375 298.306847) scale(0.2 -0.2)">
       <defs>
        <path id="DejaVuSans-2e" d="M 684 794 
L 1344 794 
L 1344 0 
L 684 0 
L 684 794 
z
" transform="scale(0.015625)"/>
       </defs>
       <use xlink:href="#DejaVuSans-34"/>
       <use xlink:href="#DejaVuSans-2e" x="63.623047"/>
       <use xlink:href="#DejaVuSans-32" x="95.410156"/>
      </g>
     </g>
    </g>
    <g id="ytick_2">
     <g id="line2d_7">
      <g>
       <use xlink:href="#m47b9fe9c23" x="75.89" y="244.196293" style="stroke: #000000; stroke-width: 0.8"/>
      </g>
     </g>
     <g id="text_8">
      <!-- 4.3 -->
      <g transform="translate(37.08375 251.794731) scale(0.2 -0.2)">
       <defs>
        <path id="DejaVuSans-33" d="M 2597 2516 
Q 3050 2419 3304 2112 
Q 3559 1806 3559 1356 
Q 3559 666 3084 287 
Q 2609 -91 1734 -91 
Q 1441 -91 1130 -33 
Q 819 25 488 141 
L 488 750 
Q 750 597 1062 519 
Q 1375 441 1716 441 
Q 2309 441 2620 675 
Q 2931 909 2931 1356 
Q 2931 1769 2642 2001 
Q 2353 2234 1838 2234 
L 1294 2234 
L 1294 2753 
L 1863 2753 
Q 2328 2753 2575 2939 
Q 2822 3125 2822 3475 
Q 2822 3834 2567 4026 
Q 2313 4219 1838 4219 
Q 1578 4219 1281 4162 
Q 984 4106 628 3988 
L 628 4550 
Q 988 4650 1302 4700 
Q 1616 4750 1894 4750 
Q 2613 4750 3031 4423 
Q 3450 4097 3450 3541 
Q 3450 3153 3228 2886 
Q 3006 2619 2597 2516 
z
" transform="scale(0.015625)"/>
       </defs>
       <use xlink:href="#DejaVuSans-34"/>
       <use xlink:href="#DejaVuSans-2e" x="63.623047"/>
       <use xlink:href="#DejaVuSans-33" x="95.410156"/>
      </g>
     </g>
    </g>
    <g id="ytick_3">
     <g id="line2d_8">
      <g>
       <use xlink:href="#m47b9fe9c23" x="75.89" y="197.684178" style="stroke: #000000; stroke-width: 0.8"/>
      </g>
     </g>
     <g id="text_9">
      <!-- 4.4 -->
      <g transform="translate(37.08375 205.282615) scale(0.2 -0.2)">
       <use xlink:href="#DejaVuSans-34"/>
       <use xlink:href="#DejaVuSans-2e" x="63.623047"/>
       <use xlink:href="#DejaVuSans-34" x="95.410156"/>
      </g>
     </g>
    </g>
    <g id="ytick_4">
     <g id="line2d_9">
      <g>
       <use xlink:href="#m47b9fe9c23" x="75.89" y="151.172062" style="stroke: #000000; stroke-width: 0.8"/>
      </g>
     </g>
     <g id="text_10">
      <!-- 4.5 -->
      <g transform="translate(37.08375 158.770499) scale(0.2 -0.2)">
       <defs>
        <path id="DejaVuSans-35" d="M 691 4666 
L 3169 4666 
L 3169 4134 
L 1269 4134 
L 1269 2991 
Q 1406 3038 1543 3061 
Q 1681 3084 1819 3084 
Q 2600 3084 3056 2656 
Q 3513 2228 3513 1497 
Q 3513 744 3044 326 
Q 2575 -91 1722 -91 
Q 1428 -91 1123 -41 
Q 819 9 494 109 
L 494 744 
Q 775 591 1075 516 
Q 1375 441 1709 441 
Q 2250 441 2565 725 
Q 2881 1009 2881 1497 
Q 2881 1984 2565 2268 
Q 2250 2553 1709 2553 
Q 1456 2553 1204 2497 
Q 953 2441 691 2322 
L 691 4666 
z
" transform="scale(0.015625)"/>
       </defs>
       <use xlink:href="#DejaVuSans-34"/>
       <use xlink:href="#DejaVuSans-2e" x="63.623047"/>
       <use xlink:href="#DejaVuSans-35" x="95.410156"/>
      </g>
     </g>
    </g>
    <g id="ytick_5">
     <g id="line2d_10">
      <g>
       <use xlink:href="#m47b9fe9c23" x="75.89" y="104.659946" style="stroke: #000000; stroke-width: 0.8"/>
      </g>
     </g>
     <g id="text_11">
      <!-- 4.6 -->
      <g transform="translate(37.08375 112.258384) scale(0.2 -0.2)">
       <use xlink:href="#DejaVuSans-34"/>
       <use xlink:href="#DejaVuSans-2e" x="63.623047"/>
       <use xlink:href="#DejaVuSans-36" x="95.410156"/>
      </g>
     </g>
    </g>
    <g id="ytick_6">
     <g id="line2d_11">
      <g>
       <use xlink:href="#m47b9fe9c23" x="75.89" y="58.14783" style="stroke: #000000; stroke-width: 0.8"/>
      </g>
     </g>
     <g id="text_12">
      <!-- 4.7 -->
      <g transform="translate(37.08375 65.746268) scale(0.2 -0.2)">
       <defs>
        <path id="DejaVuSans-37" d="M 525 4666 
L 3525 4666 
L 3525 4397 
L 1831 0 
L 1172 0 
L 2766 4134 
L 525 4134 
L 525 4666 
z
" transform="scale(0.015625)"/>
       </defs>
       <use xlink:href="#DejaVuSans-34"/>
       <use xlink:href="#DejaVuSans-2e" x="63.623047"/>
       <use xlink:href="#DejaVuSans-37" x="95.410156"/>
      </g>
     </g>
    </g>
    <g id="text_13">
     <!-- $f$ (Hz) -->
     <g transform="translate(28.508437 194.93) rotate(-90) scale(0.22 -0.22)">
      <defs>
       <path id="DejaVuSans-Oblique-66" d="M 3059 4863 
L 2969 4384 
L 2419 4384 
Q 2106 4384 1964 4261 
Q 1822 4138 1753 3809 
L 1691 3500 
L 2638 3500 
L 2553 3053 
L 1606 3053 
L 1013 0 
L 434 0 
L 1031 3053 
L 481 3053 
L 563 3500 
L 1113 3500 
L 1159 3744 
Q 1278 4363 1576 4613 
Q 1875 4863 2516 4863 
L 3059 4863 
z
" transform="scale(0.015625)"/>
       <path id="DejaVuSans-48" d="M 628 4666 
L 1259 4666 
L 1259 2753 
L 3553 2753 
L 3553 4666 
L 4184 4666 
L 4184 0 
L 3553 0 
L 3553 2222 
L 1259 2222 
L 1259 0 
L 628 0 
L 628 4666 
z
" transform="scale(0.015625)"/>
       <path id="DejaVuSans-7a" d="M 353 3500 
L 3084 3500 
L 3084 2975 
L 922 459 
L 3084 459 
L 3084 0 
L 275 0 
L 275 525 
L 2438 3041 
L 353 3041 
L 353 3500 
z
" transform="scale(0.015625)"/>
      </defs>
      <use xlink:href="#DejaVuSans-Oblique-66" transform="translate(0 0.015625)"/>
      <use xlink:href="#DejaVuSans-20" transform="translate(35.205078 0.015625)"/>
      <use xlink:href="#DejaVuSans-28" transform="translate(66.992188 0.015625)"/>
      <use xlink:href="#DejaVuSans-48" transform="translate(106.005859 0.015625)"/>
      <use xlink:href="#DejaVuSans-7a" transform="translate(181.201172 0.015625)"/>
      <use xlink:href="#DejaVuSans-29" transform="translate(233.691406 0.015625)"/>
     </g>
    </g>
   </g>
   <g id="line2d_12">
    <path d="M 88.024401 282.518182 
L 88.631424 281.587474 
L 88.752829 281.587474 
L 89.481257 280.42409 
L 89.602662 280.42409 
L 90.5739 278.795351 
L 90.695304 278.795351 
L 91.666542 277.166613 
L 91.787947 277.166613 
L 93.001994 275.07252 
L 93.123399 275.07252 
L 94.70166 272.280397 
L 94.823065 272.280397 
L 97.129754 268.092213 
L 97.251159 268.092213 
L 112.912367 237.844214 
L 113.155176 237.146183 
L 116.554508 230.398552 
L 116.797317 229.700522 
L 119.832435 223.650922 
L 120.075244 222.952891 
L 123.231767 216.670614 
L 123.474576 215.972583 
L 126.631099 209.690307 
L 126.873908 208.992276 
L 130.51605 201.779291 
L 130.758859 201.081261 
L 135.615047 191.541507 
L 135.857857 190.843476 
L 153.097326 158.036031 
L 153.21873 158.036031 
L 156.618062 151.753754 
L 156.739467 151.753754 
L 159.288966 147.100216 
L 159.410371 147.100216 
L 161.595655 143.144708 
L 161.71706 143.144708 
L 163.538131 139.887231 
L 163.659536 139.887231 
L 165.359201 136.862431 
L 165.480606 136.862431 
L 166.937463 134.302985 
L 167.058867 134.302985 
L 168.515724 131.743539 
L 168.637129 131.743539 
L 169.851176 129.649447 
L 169.97258 129.649447 
L 171.186628 127.555355 
L 171.308032 127.555355 
L 172.522079 125.461262 
L 172.643484 125.461262 
L 173.736127 123.599847 
L 173.857531 123.599847 
L 174.828769 121.971109 
L 174.950174 121.971109 
L 175.921411 120.34237 
L 176.042816 120.34237 
L 177.014054 118.713632 
L 177.135458 118.713632 
L 178.106696 117.084893 
L 178.228101 117.084893 
L 179.077934 115.688832 
L 179.199339 115.688832 
L 180.049171 114.29277 
L 180.170576 114.29277 
L 181.020409 112.896709 
L 181.141814 112.896709 
L 181.870242 111.733324 
L 181.991647 111.733324 
L 182.84148 110.337263 
L 182.962885 110.337263 
L 183.691313 109.173878 
L 183.812718 109.173878 
L 184.541146 108.010494 
L 184.66255 108.010494 
L 185.390979 106.847109 
L 185.512383 106.847109 
L 186.119407 105.916401 
L 186.240812 105.916401 
L 186.96924 104.753017 
L 187.090645 104.753017 
L 187.697668 103.822309 
L 187.819073 103.822309 
L 188.547501 102.658925 
L 188.668906 102.658925 
L 189.275929 101.728217 
L 189.397334 101.728217 
L 190.004358 100.797509 
L 190.125762 100.797509 
L 190.732786 99.866802 
L 190.854191 99.866802 
L 191.461214 98.936094 
L 191.582619 98.936094 
L 192.068238 98.238063 
L 192.189643 98.238063 
L 192.796666 97.307355 
L 192.918071 97.307355 
L 193.525094 96.376648 
L 193.646499 96.376648 
L 194.132118 95.678617 
L 194.253523 95.678617 
L 194.860546 94.747909 
L 194.981951 94.747909 
L 195.46757 94.049879 
L 195.588974 94.049879 
L 196.074593 93.351848 
L 196.195998 93.351848 
L 196.681617 92.653817 
L 196.803022 92.653817 
L 197.410045 91.723109 
L 197.53145 91.723109 
L 198.017069 91.025079 
L 198.138473 91.025079 
L 198.624092 90.327048 
L 198.745497 90.327048 
L 199.231116 89.629017 
L 199.35252 89.629017 
L 199.716735 89.163663 
L 199.838139 89.163663 
L 200.323758 88.465633 
L 200.445163 88.465633 
L 200.930782 87.767602 
L 201.052186 87.767602 
L 201.537805 87.069571 
L 201.65921 87.069571 
L 202.144829 86.37154 
L 202.266234 86.37154 
L 202.630448 85.906186 
L 202.751852 85.906186 
L 203.237471 85.208156 
L 203.358876 85.208156 
L 203.72309 84.742802 
L 203.844495 84.742802 
L 204.330114 84.044771 
L 204.451518 84.044771 
L 204.815732 83.579417 
L 204.937137 83.579417 
L 205.422756 82.881387 
L 205.544161 82.881387 
L 205.908375 82.416033 
L 206.02978 82.416033 
L 206.393994 81.950679 
L 206.515398 81.950679 
L 207.001017 81.252648 
L 207.122422 81.252648 
L 207.486636 80.787294 
L 207.608041 80.787294 
L 207.972255 80.32194 
L 208.09366 80.32194 
L 208.457874 79.856587 
L 208.579278 79.856587 
L 208.943493 79.391233 
L 209.064897 79.391233 
L 209.550516 78.693202 
L 209.671921 78.693202 
L 210.036135 78.227848 
L 210.15754 78.227848 
L 210.521754 77.762494 
L 210.643159 77.762494 
L 211.007373 77.297141 
L 211.128777 77.297141 
L 211.492992 76.831787 
L 211.614396 76.831787 
L 211.97861 76.366433 
L 212.100015 76.366433 
L 212.342825 76.133756 
L 212.464229 76.133756 
L 212.828443 75.668402 
L 212.949848 75.668402 
L 213.314062 75.203048 
L 213.435467 75.203048 
L 213.799681 74.737694 
L 213.921086 74.737694 
L 214.2853 74.272341 
L 214.406705 74.272341 
L 214.770919 73.806987 
L 214.892323 73.806987 
L 215.135133 73.57431 
L 215.256538 73.57431 
L 215.620752 73.108956 
L 215.742156 73.108956 
L 216.106371 72.643602 
L 216.227775 72.643602 
L 216.591989 72.178248 
L 216.834799 72.178248 
L 217.199013 71.712895 
L 217.320418 71.712895 
L 217.684632 71.247541 
L 217.927441 71.247541 
L 218.291655 70.782187 
L 218.41306 70.782187 
L 218.777274 70.316833 
L 219.020084 70.316833 
L 219.384298 69.851479 
L 219.505702 69.851479 
L 219.748512 69.618802 
L 219.869917 69.618802 
L 220.234131 69.153448 
L 220.355535 69.153448 
L 220.598345 68.920772 
L 220.71975 68.920772 
L 221.083964 68.455418 
L 221.205368 68.455418 
L 221.448178 68.222741 
L 221.569583 68.222741 
L 221.933797 67.757387 
L 222.176606 67.757387 
L 222.54082 67.292033 
L 222.78363 67.292033 
L 223.147844 66.826679 
L 223.390653 66.826679 
L 223.754867 66.361325 
L 223.997677 66.361325 
L 224.361891 65.895972 
L 224.6047 65.895972 
L 224.968914 65.430618 
L 225.211724 65.430618 
L 225.454533 65.197941 
L 225.575938 65.197941 
L 225.940152 64.732587 
L 226.182962 64.732587 
L 226.547176 64.267233 
L 226.789985 64.267233 
L 227.032794 64.034556 
L 227.154199 64.034556 
L 227.397009 63.801879 
L 227.518413 63.801879 
L 227.882627 63.336525 
L 228.125437 63.336525 
L 228.368246 63.103849 
L 228.489651 63.103849 
L 228.73246 62.871172 
L 228.853865 62.871172 
L 229.218079 62.405818 
L 229.460889 62.405818 
L 229.703698 62.173141 
L 229.825103 62.173141 
L 230.067912 61.940464 
L 230.189317 61.940464 
L 230.432126 61.707787 
L 230.553531 61.707787 
L 230.796341 61.47511 
L 230.917745 61.47511 
L 231.160555 61.242433 
L 231.281959 61.242433 
L 231.524769 61.009756 
L 231.646173 61.009756 
L 231.888983 60.777079 
L 232.010388 60.777079 
L 232.253197 60.544402 
L 232.374602 60.544402 
L 232.617411 60.311726 
L 232.738816 60.311726 
L 232.981625 60.079049 
L 233.10303 60.079049 
L 233.345839 59.846372 
L 233.467244 59.846372 
L 233.710054 59.613695 
L 233.831458 59.613695 
L 234.074268 59.381018 
L 234.195672 59.381018 
L 234.438482 59.148341 
L 234.681291 59.148341 
L 234.924101 58.915664 
L 235.045505 58.915664 
L 235.288315 58.682987 
L 235.40972 58.682987 
L 235.652529 58.45031 
L 235.773934 58.45031 
L 236.016743 58.217633 
L 236.259552 58.217633 
L 236.502362 57.984956 
L 236.623767 57.984956 
L 236.866576 57.752279 
L 237.109385 57.752279 
L 237.352195 57.519603 
L 237.4736 57.519603 
L 237.716409 57.286926 
L 237.837814 57.286926 
L 238.080623 57.054249 
L 238.323433 57.054249 
L 238.566242 56.821572 
L 238.809051 56.821572 
L 239.051861 56.588895 
L 239.173266 56.588895 
L 239.416075 56.356218 
L 239.658884 56.356218 
L 239.901694 56.123541 
L 240.144503 56.123541 
L 240.387313 55.890864 
L 240.508717 55.890864 
L 240.751527 55.658187 
L 240.994336 55.658187 
L 241.237146 55.42551 
L 241.479955 55.42551 
L 241.722764 55.192833 
L 241.965574 55.192833 
L 242.208383 54.960156 
L 242.451193 54.960156 
L 242.694002 54.72748 
L 242.936812 54.72748 
L 243.179621 54.494803 
L 243.42243 54.494803 
L 243.66524 54.262126 
L 243.908049 54.262126 
L 244.150859 54.029449 
L 244.515073 54.029449 
L 244.757882 53.796772 
L 245.000692 53.796772 
L 245.243501 53.564095 
L 245.486311 53.564095 
L 245.72912 53.331418 
L 246.093334 53.331418 
L 246.336143 53.098741 
L 246.700358 53.098741 
L 246.943167 52.866064 
L 247.185976 52.866064 
L 247.428786 52.633387 
L 247.793 52.633387 
L 248.035809 52.40071 
L 248.400024 52.40071 
L 248.642833 52.168033 
L 249.007047 52.168033 
L 249.249857 51.935357 
L 249.614071 51.935357 
L 249.85688 51.70268 
L 250.221094 51.70268 
L 250.463904 51.470003 
L 250.949522 51.470003 
L 251.192332 51.237326 
L 251.556546 51.237326 
L 251.799355 51.004649 
L 252.284974 51.004649 
L 252.527784 50.771972 
L 253.013403 50.771972 
L 253.256212 50.539295 
L 253.741831 50.539295 
L 253.98464 50.306618 
L 254.591664 50.306618 
L 254.834473 50.073941 
L 255.320092 50.073941 
L 255.562901 49.841264 
L 256.169925 49.841264 
L 256.412734 49.608587 
L 257.141163 49.608587 
L 257.383972 49.37591 
L 258.1124 49.37591 
L 258.35521 49.143234 
L 259.083638 49.143234 
L 259.326448 48.910557 
L 260.17628 48.910557 
L 260.41909 48.67788 
L 261.268923 48.67788 
L 261.511732 48.445203 
L 262.604375 48.445203 
L 262.847184 48.212526 
L 263.939827 48.212526 
L 264.182636 47.979849 
L 265.639492 47.979849 
L 265.882302 47.747172 
L 267.703373 47.747172 
L 267.946182 47.514495 
L 270.9813 47.514495 
L 271.224109 47.281818 
L 277.294345 47.281818 
L 277.537154 47.514495 
L 280.572272 47.514495 
L 280.815081 47.747172 
L 282.636152 47.747172 
L 282.878961 47.979849 
L 284.335818 47.979849 
L 284.578627 48.212526 
L 285.792674 48.212526 
L 286.035484 48.445203 
L 287.006722 48.445203 
L 287.249531 48.67788 
L 288.220769 48.67788 
L 288.463578 48.910557 
L 289.313411 48.910557 
L 289.55622 49.143234 
L 290.284649 49.143234 
L 290.527458 49.37591 
L 291.255886 49.37591 
L 291.498696 49.608587 
L 292.105719 49.608587 
L 292.348529 49.841264 
L 292.955552 49.841264 
L 293.198362 50.073941 
L 293.805385 50.073941 
L 294.048195 50.306618 
L 294.533814 50.306618 
L 294.776623 50.539295 
L 295.383647 50.539295 
L 295.626456 50.771972 
L 296.112075 50.771972 
L 296.354884 51.004649 
L 296.719098 51.004649 
L 296.961908 51.237326 
L 297.447527 51.237326 
L 297.690336 51.470003 
L 298.05455 51.470003 
L 298.29736 51.70268 
L 298.782978 51.70268 
L 299.025788 51.935357 
L 299.390002 51.935357 
L 299.632811 52.168033 
L 299.997026 52.168033 
L 300.239835 52.40071 
L 300.604049 52.40071 
L 300.846859 52.633387 
L 301.211073 52.633387 
L 301.453882 52.866064 
L 301.696692 52.866064 
L 301.939501 53.098741 
L 302.303715 53.098741 
L 302.546524 53.331418 
L 302.910739 53.331418 
L 303.153548 53.564095 
L 303.396357 53.564095 
L 303.639167 53.796772 
L 303.881976 53.796772 
L 304.124786 54.029449 
L 304.489 54.029449 
L 304.731809 54.262126 
L 304.974619 54.262126 
L 305.217428 54.494803 
L 305.460238 54.494803 
L 305.703047 54.72748 
L 305.945856 54.72748 
L 306.188666 54.960156 
L 306.431475 54.960156 
L 306.674285 55.192833 
L 306.917094 55.192833 
L 307.159903 55.42551 
L 307.402713 55.42551 
L 307.645522 55.658187 
L 307.888332 55.658187 
L 308.131141 55.890864 
L 308.373951 55.890864 
L 308.61676 56.123541 
L 308.738165 56.123541 
L 308.980974 56.356218 
L 309.223784 56.356218 
L 309.466593 56.588895 
L 309.709402 56.588895 
L 309.952212 56.821572 
L 310.073617 56.821572 
L 310.316426 57.054249 
L 310.559235 57.054249 
L 310.802045 57.286926 
L 310.92345 57.286926 
L 311.166259 57.519603 
L 311.409068 57.519603 
L 311.651878 57.752279 
L 311.773282 57.752279 
L 312.016092 57.984956 
L 312.258901 57.984956 
L 312.501711 58.217633 
L 312.623115 58.217633 
L 312.865925 58.45031 
L 312.98733 58.45031 
L 313.230139 58.682987 
L 313.472948 58.682987 
L 313.715758 58.915664 
L 313.837163 58.915664 
L 314.079972 59.148341 
L 314.201377 59.148341 
L 314.444186 59.381018 
L 314.565591 59.381018 
L 314.8084 59.613695 
L 315.05121 59.613695 
L 315.294019 59.846372 
L 315.415424 59.846372 
L 315.658233 60.079049 
L 315.779638 60.079049 
L 316.022447 60.311726 
L 316.143852 60.311726 
L 316.386662 60.544402 
L 316.508066 60.544402 
L 316.750876 60.777079 
L 316.87228 60.777079 
L 317.11509 61.009756 
L 317.236494 61.009756 
L 317.479304 61.242433 
L 317.600709 61.242433 
L 317.843518 61.47511 
L 317.964923 61.47511 
L 318.207732 61.707787 
L 318.329137 61.707787 
L 318.571946 61.940464 
L 318.693351 61.940464 
L 318.93616 62.173141 
L 319.057565 62.173141 
L 319.300375 62.405818 
L 319.421779 62.405818 
L 319.785993 62.871172 
L 320.028803 62.871172 
L 320.271612 63.103849 
L 320.393017 63.103849 
L 320.635826 63.336525 
L 320.757231 63.336525 
L 321.121445 63.801879 
L 321.364255 63.801879 
L 321.607064 64.034556 
L 321.728469 64.034556 
L 321.971278 64.267233 
L 322.092683 64.267233 
L 322.456897 64.732587 
L 322.699706 64.732587 
L 322.942516 64.965264 
L 323.063921 64.965264 
L 323.428135 65.430618 
L 323.670944 65.430618 
L 324.035158 65.895972 
L 324.277968 65.895972 
L 324.520777 66.128649 
L 324.642182 66.128649 
L 325.006396 66.594002 
L 325.249205 66.594002 
L 325.61342 67.059356 
L 325.856229 67.059356 
L 326.220443 67.52471 
L 326.463252 67.52471 
L 326.827467 67.990064 
L 326.948871 67.990064 
L 327.191681 68.222741 
L 327.313085 68.222741 
L 327.6773 68.688095 
L 327.920109 68.688095 
L 328.284323 69.153448 
L 328.405728 69.153448 
L 328.648537 69.386125 
L 328.769942 69.386125 
L 329.134156 69.851479 
L 329.255561 69.851479 
L 329.49837 70.084156 
L 329.619775 70.084156 
L 329.983989 70.54951 
L 330.105394 70.54951 
L 330.348203 70.782187 
L 330.469608 70.782187 
L 330.712417 71.014864 
L 330.712417 71.014864 
" clip-path="url(#p0024dc76e6)" style="fill: none; stroke: #ff6f61; stroke-width: 5; stroke-linecap: square"/>
   </g>
   <g id="patch_3">
    <path d="M 75.89 294.28 
L 75.89 35.52 
" style="fill: none; stroke: #000000; stroke-width: 0.8; stroke-linejoin: miter; stroke-linecap: square"/>
   </g>
   <g id="patch_4">
    <path d="M 75.89 294.28 
L 342.846818 294.28 
" style="fill: none; stroke: #000000; stroke-width: 0.8; stroke-linejoin: miter; stroke-linecap: square"/>
   </g>
   <g id="text_14">
    <!-- $f*$ -->
    <g transform="translate(194.368409 29.52) scale(0.24 -0.24)">
     <defs>
      <path id="DejaVuSans-2a" d="M 3009 3897 
L 1888 3291 
L 3009 2681 
L 2828 2375 
L 1778 3009 
L 1778 1831 
L 1422 1831 
L 1422 3009 
L 372 2375 
L 191 2681 
L 1313 3291 
L 191 3897 
L 372 4206 
L 1422 3572 
L 1422 4750 
L 1778 4750 
L 1778 3572 
L 2828 4206 
L 3009 3897 
z
" transform="scale(0.015625)"/>
     </defs>
     <use xlink:href="#DejaVuSans-Oblique-66" transform="translate(0 0.015625)"/>
     <use xlink:href="#DejaVuSans-2a" transform="translate(54.6875 0.015625)"/>
    </g>
   </g>
  </g>
 </g>
 <defs>
  <clipPath id="p0024dc76e6">
   <rect x="75.89" y="35.52" width="266.956818" height="258.76"/>
  </clipPath>
 </defs>
</svg>
