<?xml version="1.0" encoding="utf-8" standalone="no"?>
<!DOCTYPE svg PUBLIC "-//W3C//DTD SVG 1.1//EN"
  "http://www.w3.org/Graphics/SVG/1.1/DTD/svg11.dtd">
<svg xmlns:xlink="http://www.w3.org/1999/xlink" width="1080pt" height="432pt" viewBox="0 0 1080 432" xmlns="http://www.w3.org/2000/svg" version="1.1">
 <metadata>
  <rdf:RDF xmlns:dc="http://purl.org/dc/elements/1.1/" xmlns:cc="http://creativecommons.org/ns#" xmlns:rdf="http://www.w3.org/1999/02/22-rdf-syntax-ns#">
   <cc:Work>
    <dc:type rdf:resource="http://purl.org/dc/dcmitype/StillImage"/>
    <dc:date>2024-06-15T15:43:43.670550</dc:date>
    <dc:format>image/svg+xml</dc:format>
    <dc:creator>
     <cc:Agent>
      <dc:title>Matplotlib v3.7.0, https://matplotlib.org/</dc:title>
     </cc:Agent>
    </dc:creator>
   </cc:Work>
  </rdf:RDF>
 </metadata>
 <defs>
  <style type="text/css">*{stroke-linejoin: round; stroke-linecap: butt}</style>
 </defs>
 <g id="figure_1">
  <g id="patch_1">
   <path d="M 0 432 
L 1080 432 
L 1080 0 
L 0 0 
z
" style="fill: #ffffff"/>
  </g>
  <g id="axes_1">
   <g id="line2d_1">
    <path d="M 58.909091 120.381839 
L 59.872236 112.093357 
L 60.835381 98.478574 
L 61.798526 103.426259 
L 62.761671 106.064749 
L 63.724816 101.075229 
L 64.687961 107.448651 
L 65.651106 99.853386 
L 66.614251 101.048002 
L 67.577396 98.744242 
L 68.540541 92.329034 
L 69.503686 93.879865 
L 70.46683 99.134994 
L 71.429975 98.43002 
L 72.39312 106.777958 
L 73.356265 91.958227 
L 74.31941 96.466602 
L 75.282555 94.833275 
L 76.2457 91.892061 
L 77.208845 102.1322 
L 78.17199 118.952798 
L 79.135135 133.070966 
L 80.09828 122.187511 
L 81.061425 133.488647 
L 82.02457 139.726989 
L 82.987715 143.239347 
L 83.95086 148.013894 
L 84.914005 149.034485 
L 86.840295 138.525375 
L 88.766585 145.426278 
L 89.72973 141.191156 
L 90.692875 145.839336 
L 91.65602 145.59777 
L 92.619165 150.835148 
L 93.58231 143.41707 
L 94.545455 137.623958 
L 95.5086 150.432491 
L 96.471744 148.48203 
L 97.434889 142.289872 
L 98.398034 141.781553 
L 99.361179 144.937222 
L 100.324324 130.858336 
L 101.287469 141.491199 
L 102.250614 133.240116 
L 103.213759 123.451277 
L 104.176904 131.303358 
L 105.140049 121.169283 
L 106.103194 119.22536 
L 107.066339 114.250563 
L 108.029484 106.18861 
L 108.992629 104.161964 
L 109.955774 100.831945 
L 110.918919 92.17597 
L 111.882064 79.856299 
L 112.845209 82.456937 
L 113.808354 82.775247 
L 114.771499 90.214792 
L 115.734644 95.182088 
L 116.697789 104.038613 
L 117.660934 104.256113 
L 118.624079 115.246051 
L 119.587224 107.740459 
L 120.550369 108.052465 
L 121.513514 99.831752 
L 122.476658 96.397643 
L 123.439803 103.548198 
L 124.402948 108.490997 
L 125.366093 107.368467 
L 126.329238 103.224064 
L 127.292383 95.873451 
L 128.255528 90.937267 
L 129.218673 89.726609 
L 131.144963 103.876882 
L 132.108108 95.781307 
L 133.071253 94.60576 
L 134.034398 88.612631 
L 135.960688 82.411065 
L 136.923833 83.93424 
L 137.886978 97.06088 
L 138.850123 92.410302 
L 139.813268 104.616137 
L 140.776413 80.623775 
L 141.739558 79.917136 
L 142.702703 93.551636 
L 143.665848 75.138704 
L 144.628993 78.840086 
L 145.592138 77.586439 
L 146.555283 74.089445 
L 147.518428 66.276118 
L 148.481572 67.611955 
L 149.444717 66.112889 
L 150.407862 60.187093 
L 151.371007 77.032278 
L 152.334152 71.80202 
L 153.297297 84.891191 
L 154.260442 83.03844 
L 155.223587 88.944805 
L 156.186732 108.06227 
L 157.149877 103.031533 
L 158.113022 105.703814 
L 159.076167 96.983729 
L 160.039312 95.607898 
L 161.002457 104.118809 
L 162.928747 98.917432 
L 163.891892 99.372899 
L 164.855037 103.275428 
L 165.818182 111.622331 
L 166.781327 102.497194 
L 168.707617 82.197016 
L 169.670762 82.589827 
L 170.633907 86.676503 
L 171.597052 89.010818 
L 172.560197 85.445804 
L 174.486486 74.416752 
L 175.449631 80.094314 
L 176.412776 96.01446 
L 177.375921 92.860814 
L 178.339066 92.217042 
L 179.302211 93.182513 
L 180.265356 100.087851 
L 181.228501 100.735195 
L 182.191646 100.734423 
L 183.154791 95.949507 
L 184.117936 104.158338 
L 185.081081 99.283081 
L 186.044226 105.381 
L 187.007371 99.207873 
L 188.933661 89.95324 
L 189.896806 83.700645 
L 190.859951 80.8007 
L 191.823096 81.004524 
L 192.786241 70.527697 
L 193.749386 66.815858 
L 194.712531 59.287367 
L 195.675676 59.226809 
L 196.638821 56.616643 
L 197.601966 57.551493 
L 198.565111 46.783827 
L 199.528256 52.517349 
L 200.4914 57.133431 
L 201.454545 51.69897 
L 202.41769 53.27733 
L 203.380835 61.289266 
L 204.34398 63.585164 
L 205.307125 66.371985 
L 206.27027 56.09925 
L 208.19656 44.75807 
L 209.159705 53.848935 
L 210.12285 53.099912 
L 211.085995 54.089925 
L 212.04914 52.189823 
L 213.012285 40.551229 
L 213.97543 35.068925 
L 214.938575 31.403025 
L 215.90172 35.878146 
L 216.864865 29.454545 
L 217.82801 34.853952 
L 218.791155 47.150387 
L 219.7543 48.814959 
L 220.717445 47.812513 
L 221.68059 56.306714 
L 222.643735 63.334631 
L 223.60688 59.677594 
L 224.570025 63.993119 
L 225.53317 71.641992 
L 226.496314 66.955449 
L 227.459459 70.996154 
L 228.422604 80.965082 
L 229.385749 86.981199 
L 230.348894 96.246052 
L 231.312039 108.199467 
L 232.275184 102.045059 
L 233.238329 96.630973 
L 234.201474 98.879872 
L 235.164619 100.261099 
L 236.127764 101.367414 
L 237.090909 109.684365 
L 238.054054 113.416209 
L 239.017199 118.304514 
L 239.980344 123.959504 
L 240.943489 119.5709 
L 241.906634 121.483845 
L 242.869779 120.987811 
L 243.832924 130.661855 
L 244.796069 131.610553 
L 245.759214 137.24388 
L 246.722359 137.164209 
L 247.685504 123.990565 
L 248.648649 136.638175 
L 249.611794 146.198799 
L 250.574939 147.735144 
L 251.538084 155.302114 
L 252.501229 165.392738 
L 253.464373 153.978774 
L 254.427518 157.172976 
L 255.390663 147.958803 
L 256.353808 152.909011 
L 258.280098 167.987101 
L 259.243243 170.85885 
L 260.206388 167.43629 
L 261.169533 174.619885 
L 262.132678 162.350487 
L 263.095823 158.38417 
L 264.058968 163.412977 
L 265.022113 161.107376 
L 265.985258 163.247182 
L 266.948403 164.146561 
L 267.911548 178.871004 
L 268.874693 186.878302 
L 269.837838 188.536474 
L 270.800983 193.143102 
L 271.764128 194.266987 
L 272.727273 191.641012 
L 273.690418 197.122104 
L 274.653563 207.442612 
L 275.616708 208.037966 
L 276.579853 211.286034 
L 277.542998 205.204327 
L 278.506143 210.768051 
L 279.469287 209.908966 
L 280.432432 213.019905 
L 281.395577 209.261905 
L 282.358722 202.28903 
L 283.321867 205.155859 
L 284.285012 211.009307 
L 285.248157 202.131779 
L 286.211302 190.785331 
L 287.174447 198.99038 
L 288.137592 192.481255 
L 289.100737 183.291675 
L 290.063882 195.200174 
L 291.027027 176.822013 
L 291.990172 175.169023 
L 292.953317 183.238859 
L 293.916462 184.069228 
L 294.879607 187.211954 
L 295.842752 179.300144 
L 296.805897 179.056756 
L 297.769042 175.568356 
L 298.732187 179.023456 
L 299.695332 181.378507 
L 300.658477 179.894121 
L 301.621622 182.643144 
L 302.584767 187.00594 
L 303.547912 181.019671 
L 304.511057 177.26523 
L 305.474201 178.342046 
L 306.437346 182.60849 
L 307.400491 203.81419 
L 308.363636 194.117399 
L 309.326781 195.869627 
L 310.289926 182.849454 
L 311.253071 180.913222 
L 312.216216 165.370194 
L 313.179361 162.180249 
L 314.142506 158.015202 
L 315.105651 169.607384 
L 317.031941 180.340326 
L 317.995086 188.016267 
L 318.958231 189.251872 
L 319.921376 185.958062 
L 320.884521 189.05655 
L 321.847666 188.254858 
L 322.810811 186.80863 
L 323.773956 192.723423 
L 324.737101 187.75308 
L 325.700246 186.558316 
L 326.663391 181.437457 
L 327.626536 198.841457 
L 328.589681 190.294273 
L 329.552826 184.686564 
L 330.515971 195.503389 
L 331.479115 192.535186 
L 332.44226 201.346157 
L 333.405405 193.988515 
L 335.331695 166.292993 
L 337.257985 178.469127 
L 338.22113 173.44099 
L 339.184275 163.415551 
L 340.14742 166.846038 
L 341.110565 163.606159 
L 342.07371 172.533174 
L 343.036855 163.358248 
L 344 163.121154 
L 344.963145 157.465303 
L 345.92629 169.790201 
L 346.889435 166.010981 
L 347.85258 166.909985 
L 348.815725 165.759597 
L 349.77887 158.797276 
L 350.742015 150.997956 
L 351.70516 148.328299 
L 352.668305 147.482089 
L 353.63145 159.618922 
L 354.594595 149.937579 
L 355.55774 146.30046 
L 356.520885 148.576559 
L 357.484029 153.185176 
L 358.447174 159.479564 
L 360.373464 148.301204 
L 361.336609 147.639865 
L 362.299754 149.055748 
L 363.262899 148.442687 
L 364.226044 151.390073 
L 365.189189 157.388624 
L 366.152334 152.46474 
L 368.078624 164.143949 
L 369.041769 162.644621 
L 370.004914 177.507483 
L 370.968059 176.551412 
L 371.931204 178.751196 
L 372.894349 177.065685 
L 373.857494 181.411765 
L 375.783784 206.458715 
L 376.746929 196.651457 
L 377.710074 202.582934 
L 378.673219 198.120213 
L 379.636364 189.25714 
L 380.599509 206.766344 
L 381.562654 200.160811 
L 382.525799 196.481661 
L 383.488943 185.717322 
L 384.452088 189.226409 
L 385.415233 176.840182 
L 386.378378 171.071052 
L 387.341523 177.741954 
L 388.304668 200.562394 
L 389.267813 198.910643 
L 390.230958 211.250477 
L 392.157248 203.833614 
L 393.120393 192.784226 
L 394.083538 184.576376 
L 395.046683 179.935483 
L 396.009828 190.576291 
L 396.972973 181.202804 
L 397.936118 182.854761 
L 398.899263 181.975431 
L 399.862408 196.404356 
L 400.825553 192.775871 
L 401.788698 198.17074 
L 402.751843 193.000708 
L 403.714988 191.377266 
L 404.678133 190.96239 
L 405.641278 193.179281 
L 406.604423 196.81416 
L 407.567568 184.412564 
L 408.530713 164.768063 
L 409.493857 158.646445 
L 410.457002 148.566143 
L 411.420147 170.421351 
L 412.383292 174.593675 
L 413.346437 166.647262 
L 414.309582 164.300098 
L 415.272727 163.407144 
L 416.235872 150.974736 
L 417.199017 165.476906 
L 418.162162 170.677309 
L 419.125307 169.029351 
L 420.088452 169.171663 
L 421.051597 159.812209 
L 422.014742 161.493996 
L 422.977887 153.247919 
L 423.941032 143.44841 
L 424.904177 151.366626 
L 425.867322 153.946632 
L 426.830467 160.082042 
L 427.793612 159.009474 
L 428.756757 171.253732 
L 429.719902 159.775728 
L 430.683047 159.615566 
L 431.646192 153.439293 
L 432.609337 152.865118 
L 433.572482 153.330078 
L 434.535627 148.448655 
L 435.498771 142.350146 
L 436.461916 135.31655 
L 437.425061 134.633744 
L 438.388206 142.898603 
L 439.351351 133.414712 
L 440.314496 133.18052 
L 441.277641 141.622985 
L 442.240786 139.130185 
L 443.203931 148.480585 
L 444.167076 151.864866 
L 445.130221 158.31522 
L 446.093366 157.422162 
L 447.056511 155.522619 
L 448.019656 155.572443 
L 448.982801 154.867172 
L 449.945946 155.104499 
L 450.909091 162.721573 
L 451.872236 168.988763 
L 452.835381 169.079335 
L 453.798526 176.63375 
L 454.761671 178.246586 
L 455.724816 174.562776 
L 456.687961 188.000369 
L 457.651106 192.222726 
L 458.614251 190.645447 
L 459.577396 185.649097 
L 461.503686 163.125873 
L 462.46683 165.101277 
L 463.429975 162.412445 
L 464.39312 166.037342 
L 465.356265 177.247313 
L 466.31941 183.974577 
L 467.282555 183.4209 
L 468.2457 176.615643 
L 469.208845 162.179295 
L 470.17199 169.316683 
L 471.135135 162.700122 
L 472.09828 153.143665 
L 473.061425 152.517263 
L 474.02457 153.306046 
L 474.987715 151.07261 
L 475.95086 144.79522 
L 476.914005 147.786469 
L 477.87715 159.409742 
L 478.840295 168.195741 
L 479.80344 160.683216 
L 480.766585 156.855608 
L 481.72973 151.947163 
L 482.692875 152.341811 
L 483.65602 149.921437 
L 484.619165 138.675706 
L 485.58231 123.90193 
L 486.545455 125.141963 
L 487.5086 118.818057 
L 489.434889 129.69002 
L 490.398034 126.686767 
L 491.361179 125.327518 
L 492.324324 123.596253 
L 493.287469 130.078176 
L 494.250614 139.448928 
L 495.213759 138.724516 
L 496.176904 144.942731 
L 498.103194 129.067898 
L 499.066339 137.879334 
L 500.029484 141.420884 
L 500.992629 130.898916 
L 501.955774 144.132325 
L 502.918919 149.669804 
L 503.882064 150.530909 
L 504.845209 151.133585 
L 505.808354 141.760219 
L 506.771499 152.664691 
L 507.734644 152.283248 
L 508.697789 161.122896 
L 509.660934 161.622857 
L 510.624079 152.097126 
L 511.587224 156.347322 
L 512.550369 146.636593 
L 513.513514 146.546267 
L 514.476658 152.095835 
L 515.439803 151.508193 
L 516.402948 157.213724 
L 517.366093 155.579952 
L 518.329238 138.448967 
L 519.292383 132.726661 
L 520.255528 141.766458 
L 521.218673 135.693084 
L 522.181818 149.362646 
L 523.144963 144.806337 
L 524.108108 155.056342 
L 525.071253 155.613784 
L 526.034398 149.399117 
L 526.997543 144.836969 
L 527.960688 147.80374 
L 528.923833 145.75534 
L 529.886978 132.10455 
L 531.813268 123.854186 
L 532.776413 110.484397 
L 533.739558 115.050037 
L 534.702703 109.065242 
L 535.665848 112.906991 
L 536.628993 121.379232 
L 537.592138 124.72808 
L 539.518428 137.257094 
L 540.481572 153.556126 
L 541.444717 160.364146 
L 542.407862 146.794389 
L 543.371007 159.187543 
L 544.334152 160.812194 
L 545.297297 169.101859 
L 546.260442 169.627575 
L 547.223587 161.340053 
L 548.186732 156.018371 
L 549.149877 160.844801 
L 550.113022 160.518761 
L 551.076167 159.534513 
L 552.039312 155.237197 
L 553.002457 158.659142 
L 553.965602 142.848836 
L 554.928747 150.264935 
L 555.891892 153.885419 
L 556.855037 167.136437 
L 557.818182 173.565901 
L 558.781327 171.31151 
L 559.744472 172.465492 
L 560.707617 178.633756 
L 561.670762 192.380046 
L 562.633907 195.786032 
L 563.597052 191.913044 
L 564.560197 183.507446 
L 566.486486 177.329566 
L 567.449631 171.563805 
L 568.412776 176.497853 
L 569.375921 155.170803 
L 570.339066 156.222498 
L 571.302211 147.965573 
L 572.265356 155.673478 
L 573.228501 151.396645 
L 574.191646 158.349905 
L 575.154791 155.211111 
L 576.117936 159.52663 
L 577.081081 161.14128 
L 578.044226 162.11354 
L 579.007371 156.717238 
L 579.970516 158.847286 
L 580.933661 166.742632 
L 581.896806 173.19221 
L 582.859951 169.915415 
L 583.823096 183.675089 
L 584.786241 179.555325 
L 585.749386 184.371548 
L 586.712531 182.008194 
L 587.675676 175.81796 
L 588.638821 189.795386 
L 589.601966 193.433869 
L 590.565111 199.245497 
L 591.528256 213.489673 
L 592.4914 206.071971 
L 593.454545 203.368311 
L 594.41769 210.30259 
L 595.380835 218.152141 
L 596.34398 215.289603 
L 597.307125 219.13653 
L 598.27027 207.667595 
L 599.233415 201.937722 
L 600.19656 203.531188 
L 601.159705 207.60511 
L 602.12285 205.217278 
L 603.085995 208.137825 
L 605.012285 197.410749 
L 605.97543 202.828896 
L 606.938575 197.074351 
L 607.90172 198.868575 
L 608.864865 187.717093 
L 609.82801 179.10872 
L 610.791155 179.675501 
L 611.7543 189.384071 
L 612.717445 179.830098 
L 613.68059 185.349141 
L 614.643735 179.582074 
L 615.60688 185.046853 
L 616.570025 195.8349 
L 617.53317 198.561711 
L 618.496314 195.078877 
L 619.459459 181.675438 
L 620.422604 186.86082 
L 621.385749 185.868293 
L 622.348894 189.366575 
L 623.312039 191.119141 
L 624.275184 203.383189 
L 625.238329 200.03002 
L 626.201474 196.18731 
L 628.127764 177.592751 
L 629.090909 175.762588 
L 630.054054 163.260259 
L 631.017199 154.939793 
L 631.980344 155.517505 
L 632.943489 156.972743 
L 633.906634 160.305892 
L 634.869779 168.174816 
L 635.832924 159.385674 
L 636.796069 154.586485 
L 637.759214 153.096246 
L 638.722359 160.74589 
L 639.685504 171.769011 
L 640.648649 177.46783 
L 641.611794 173.198468 
L 642.574939 183.009955 
L 643.538084 176.291907 
L 644.501229 164.683094 
L 645.464373 163.641394 
L 646.427518 161.4857 
L 647.390663 158.97468 
L 648.353808 156.866443 
L 649.316953 167.49777 
L 650.280098 169.669788 
L 651.243243 168.899402 
L 653.169533 158.405584 
L 654.132678 159.879841 
L 655.095823 156.556184 
L 656.058968 158.60642 
L 657.022113 138.895452 
L 657.985258 135.818358 
L 658.948403 128.766561 
L 659.911548 125.348925 
L 660.874693 132.280937 
L 661.837838 114.619547 
L 662.800983 124.973189 
L 663.764128 126.006344 
L 664.727273 125.533367 
L 665.690418 118.687463 
L 666.653563 115.181758 
L 667.616708 114.738438 
L 668.579853 119.946361 
L 669.542998 117.696912 
L 670.506143 122.170512 
L 671.469287 125.270244 
L 672.432432 129.995949 
L 673.395577 136.227917 
L 674.358722 134.252061 
L 675.321867 129.24197 
L 676.285012 128.407945 
L 677.248157 135.315793 
L 678.211302 137.392732 
L 679.174447 136.81914 
L 680.137592 142.232694 
L 681.100737 149.667221 
L 682.063882 147.556012 
L 683.990172 157.076676 
L 684.953317 147.240417 
L 685.916462 131.702896 
L 686.879607 136.195313 
L 687.842752 144.407829 
L 688.805897 144.828438 
L 689.769042 157.384872 
L 690.732187 163.303721 
L 691.695332 154.832931 
L 692.658477 148.627239 
L 693.621622 137.397947 
L 694.584767 138.509981 
L 695.547912 135.474836 
L 696.511057 134.813198 
L 697.474201 128.756462 
L 698.437346 135.341669 
L 699.400491 143.568526 
L 700.363636 147.97127 
L 701.326781 148.583508 
L 702.289926 137.4131 
L 703.253071 137.200974 
L 704.216216 139.834736 
L 705.179361 151.499138 
L 706.142506 146.226017 
L 707.105651 144.398836 
L 708.068796 152.819222 
L 709.031941 150.061674 
L 709.995086 145.316824 
L 711.921376 137.689804 
L 712.884521 139.229241 
L 713.847666 143.679875 
L 714.810811 144.987642 
L 715.773956 131.955236 
L 716.737101 133.748943 
L 717.700246 128.912148 
L 718.663391 130.602163 
L 719.626536 125.906223 
L 720.589681 138.768985 
L 721.552826 137.579355 
L 722.515971 140.358838 
L 723.479115 146.336919 
L 724.44226 149.424841 
L 725.405405 148.874434 
L 726.36855 151.062998 
L 727.331695 156.096971 
L 728.29484 171.190406 
L 729.257985 173.9249 
L 730.22113 164.93127 
L 731.184275 161.498773 
L 732.14742 168.246582 
L 733.110565 178.814338 
L 734.07371 177.035024 
L 735.036855 163.190175 
L 736 155.123029 
L 736.963145 150.063977 
L 737.92629 154.705993 
L 738.889435 158.495241 
L 739.85258 158.066662 
L 740.815725 153.139429 
L 741.77887 163.727722 
L 742.742015 168.324787 
L 743.70516 177.922552 
L 744.668305 170.385473 
L 745.63145 179.336095 
L 746.594595 178.288626 
L 747.55774 180.23835 
L 748.520885 174.309186 
L 749.484029 180.607259 
L 750.447174 180.96601 
L 751.410319 184.74605 
L 752.373464 175.989273 
L 753.336609 164.028773 
L 754.299754 168.099123 
L 755.262899 159.131734 
L 756.226044 146.413996 
L 758.152334 165.998543 
L 759.115479 166.221168 
L 760.078624 165.125793 
L 761.041769 183.990711 
L 762.004914 184.654382 
L 762.968059 189.765078 
L 763.931204 199.960861 
L 764.894349 193.336411 
L 765.857494 193.911536 
L 766.820639 196.02689 
L 767.783784 203.418923 
L 768.746929 201.12011 
L 769.710074 204.4379 
L 770.673219 216.110023 
L 771.636364 216.267487 
L 772.599509 225.680645 
L 773.562654 223.407375 
L 774.525799 215.919102 
L 775.488943 222.956823 
L 777.415233 203.124402 
L 778.378378 190.329554 
L 780.304668 189.914647 
L 781.267813 186.349676 
L 782.230958 177.509624 
L 783.194103 179.074447 
L 784.157248 185.927913 
L 785.120393 185.151695 
L 786.083538 189.467877 
L 787.046683 171.501812 
L 788.009828 193.947587 
L 789.936118 212.689407 
L 790.899263 211.408322 
L 791.862408 214.12188 
L 792.825553 224.381341 
L 793.788698 230.201979 
L 794.751843 223.64696 
L 795.714988 233.800821 
L 796.678133 226.757669 
L 797.641278 224.319011 
L 798.604423 227.205588 
L 799.567568 217.18924 
L 800.530713 218.694375 
L 801.493857 227.16239 
L 802.457002 224.411409 
L 803.420147 230.063286 
L 804.383292 225.653458 
L 805.346437 219.811525 
L 806.309582 208.149268 
L 807.272727 218.681337 
L 808.235872 213.786603 
L 809.199017 213.195294 
L 810.162162 216.187319 
L 811.125307 204.032309 
L 812.088452 214.639763 
L 813.051597 213.186504 
L 814.014742 203.816235 
L 814.977887 212.749984 
L 815.941032 195.499431 
L 816.904177 198.173303 
L 817.867322 208.922635 
L 818.830467 216.113219 
L 819.793612 219.198641 
L 820.756757 211.016508 
L 821.719902 212.383525 
L 822.683047 202.662636 
L 823.646192 203.826162 
L 824.609337 205.40276 
L 825.572482 193.006316 
L 826.535627 195.283738 
L 827.498771 181.865224 
L 828.461916 179.061765 
L 829.425061 182.727141 
L 830.388206 179.198261 
L 831.351351 176.893069 
L 832.314496 167.704885 
L 833.277641 160.134611 
L 834.240786 141.408951 
L 835.203931 145.916011 
L 836.167076 145.379602 
L 837.130221 163.839132 
L 838.093366 162.580228 
L 839.056511 158.199946 
L 840.019656 151.994494 
L 840.982801 144.059646 
L 841.945946 143.360041 
L 842.909091 143.770312 
L 843.872236 146.382307 
L 844.835381 142.368734 
L 845.798526 132.886107 
L 846.761671 129.537789 
L 847.724816 128.310832 
L 850.614251 122.337072 
L 851.577396 123.557602 
L 852.540541 125.696725 
L 854.46683 115.388377 
L 855.429975 116.395618 
L 856.39312 119.374902 
L 857.356265 127.288594 
L 858.31941 130.677991 
L 859.282555 140.116202 
L 860.2457 125.905573 
L 861.208845 128.405795 
L 862.17199 129.344151 
L 864.09828 97.298773 
L 865.061425 98.99642 
L 866.02457 96.419407 
L 866.987715 102.188633 
L 867.95086 104.710036 
L 868.914005 101.217094 
L 869.87715 104.266376 
L 870.840295 98.324649 
L 871.80344 104.264679 
L 872.766585 104.814659 
L 873.72973 99.278785 
L 874.692875 102.815204 
L 875.65602 94.851656 
L 876.619165 89.908864 
L 877.58231 94.394148 
L 878.545455 88.924167 
L 879.5086 91.278163 
L 880.471744 90.673272 
L 881.434889 98.611528 
L 882.398034 93.51277 
L 883.361179 108.202219 
L 884.324324 109.200151 
L 885.287469 119.409 
L 886.250614 123.165947 
L 887.213759 113.135194 
L 888.176904 104.336307 
L 889.140049 119.535247 
L 890.103194 114.403515 
L 892.029484 120.385274 
L 892.992629 139.501655 
L 893.955774 145.812033 
L 894.918919 139.716837 
L 895.882064 135.126703 
L 896.845209 133.038897 
L 897.808354 141.439365 
L 898.771499 138.921046 
L 899.734644 137.748033 
L 900.697789 140.270329 
L 901.660934 144.980407 
L 902.624079 139.154149 
L 903.587224 143.370883 
L 904.550369 128.128842 
L 905.513514 140.449976 
L 906.476658 154.725345 
L 907.439803 150.409829 
L 908.402948 166.433104 
L 909.366093 165.635105 
L 910.329238 166.178119 
L 911.292383 166.203499 
L 912.255528 165.320303 
L 913.218673 160.665889 
L 914.181818 161.928571 
L 915.144963 172.020538 
L 916.108108 180.214316 
L 917.071253 179.069889 
L 918.034398 180.818894 
L 918.997543 186.976355 
L 919.960688 176.656648 
L 920.923833 176.076381 
L 921.886978 176.106913 
L 922.850123 183.274709 
L 923.813268 180.750173 
L 924.776413 182.712954 
L 925.739558 177.8608 
L 926.702703 167.376062 
L 927.665848 163.736399 
L 928.628993 163.592255 
L 930.555283 183.035339 
L 931.518428 197.120085 
L 932.481572 196.377498 
L 933.444717 190.97955 
L 934.407862 194.604072 
L 935.371007 190.808524 
L 936.334152 172.682085 
L 937.297297 165.670582 
L 938.260442 170.992943 
L 939.223587 172.928119 
L 940.186732 167.037591 
L 941.149877 162.034414 
L 942.113022 161.814961 
L 943.076167 177.808835 
L 944.039312 162.070317 
L 945.002457 168.417199 
L 945.965602 176.183012 
L 946.928747 162.747618 
L 947.891892 156.5041 
L 948.855037 173.26676 
L 949.818182 186.997014 
L 950.781327 194.603998 
L 951.744472 182.377295 
L 952.707617 177.214007 
L 953.670762 179.366138 
L 954.633907 181.812181 
L 955.597052 169.301167 
L 956.560197 167.9893 
L 957.523342 161.680168 
L 958.486486 167.288964 
L 959.449631 166.169021 
L 960.412776 164.813321 
L 961.375921 174.916525 
L 962.339066 169.159032 
L 964.265356 185.744012 
L 965.228501 185.307658 
L 966.191646 186.406219 
L 967.154791 185.295963 
L 968.117936 183.231619 
L 969.081081 185.260928 
L 970.044226 192.313521 
L 971.007371 196.345826 
L 971.970516 194.26341 
L 972.933661 195.384753 
L 974.859951 170.450672 
L 975.823096 161.265726 
L 976.786241 165.59761 
L 977.749386 162.87687 
L 978.712531 156.287209 
L 979.675676 154.328804 
L 980.638821 142.139039 
L 981.601966 141.217879 
L 982.565111 140.931364 
L 983.528256 142.773961 
L 984.4914 138.682169 
L 985.454545 148.892731 
L 986.41769 142.631656 
L 987.380835 156.073599 
L 988.34398 175.223948 
L 989.307125 176.093072 
L 990.27027 189.202551 
L 991.233415 185.598818 
L 992.19656 200.055368 
L 993.159705 192.521689 
L 995.085995 192.160688 
L 996.04914 192.854631 
L 997.97543 208.309779 
L 998.938575 204.50075 
L 999.90172 209.160977 
L 1000.864865 210.120343 
L 1001.82801 208.617225 
L 1002.791155 219.858986 
L 1003.7543 208.605749 
L 1004.717445 201.660872 
L 1005.68059 185.830227 
L 1006.643735 174.092623 
L 1007.60688 165.740847 
L 1008.570025 162.975085 
L 1009.53317 165.818849 
L 1010.496314 169.362691 
L 1011.459459 164.576464 
L 1012.422604 165.928843 
L 1013.385749 173.794077 
L 1014.348894 175.072078 
L 1015.312039 172.401306 
L 1016.275184 168.368754 
L 1017.238329 151.08397 
L 1018.201474 150.008738 
L 1019.164619 132.388034 
L 1020.127764 137.60519 
L 1021.090909 137.243987 
L 1021.090909 137.243987 
" clip-path="url(#p2d2ec1dbe8)" style="fill: none; stroke: #4b4b4b; stroke-opacity: 0.8; stroke-width: 5; stroke-linecap: square"/>
   </g>
   <g id="line2d_2">
    <path d="M 58.909091 286.902685 
L 67.577396 286.801179 
L 76.2457 286.497961 
L 85.87715 285.929283 
L 95.5086 285.125418 
L 105.140049 284.099068 
L 115.734644 282.732569 
L 126.329238 281.142678 
L 137.886978 279.189288 
L 151.371007 276.679632 
L 168.707617 273.208395 
L 210.12285 264.81134 
L 223.60688 262.353489 
L 235.164619 260.458101 
L 245.759214 258.931231 
L 256.353808 257.635939 
L 265.985258 256.680283 
L 275.616708 255.951637 
L 285.248157 255.461515 
L 293.916462 255.230824 
L 302.584767 255.202614 
L 311.253071 255.377246 
L 320.884521 255.806377 
L 330.515971 256.476327 
L 340.14742 257.376509 
L 349.77887 258.4927 
L 360.373464 259.948851 
L 371.931204 261.778236 
L 384.452088 263.996489 
L 398.899263 266.785697 
L 421.051597 271.320269 
L 446.093366 276.398975 
L 460.540541 279.103553 
L 473.061425 281.219377 
L 483.65602 282.799743 
L 494.250614 284.155433 
L 503.882064 285.171015 
L 513.513514 285.963392 
L 523.144963 286.520043 
L 532.776413 286.832172 
L 541.444717 286.899862 
L 550.113022 286.764577 
L 559.744472 286.378396 
L 569.375921 285.749931 
L 579.007371 284.889113 
L 588.638821 283.809544 
L 599.233415 282.389819 
L 610.791155 280.594774 
L 623.312039 278.40649 
L 637.759214 275.641514 
L 657.985258 271.519672 
L 686.879607 265.646163 
L 701.326781 262.945589 
L 713.847666 260.834473 
L 724.44226 259.258894 
L 735.036855 257.908629 
L 744.668305 256.898445 
L 754.299754 256.111824 
L 763.931204 255.561194 
L 772.599509 255.274673 
L 781.267813 255.19007 
L 789.936118 255.308471 
L 798.604423 255.628359 
L 808.235872 256.215035 
L 817.867322 257.036072 
L 827.498771 258.078497 
L 838.093366 259.461108 
L 848.687961 261.065168 
L 860.2457 263.031483 
L 873.72973 265.552502 
L 891.066339 269.031946 
L 931.518428 277.23483 
L 945.002457 279.696813 
L 956.560197 281.596776 
L 967.154791 283.128586 
L 977.749386 284.429434 
L 987.380835 285.390586 
L 997.012285 286.125063 
L 1006.643735 286.621259 
L 1015.312039 286.857544 
L 1021.090909 286.902685 
L 1021.090909 286.902685 
" clip-path="url(#p2d2ec1dbe8)" style="fill: none; stroke: #440154; stroke-opacity: 0.8; stroke-width: 5; stroke-linecap: square"/>
   </g>
   <g id="line2d_3">
    <path d="M 299.695332 255.189443 
L 299.695332 181.378507 
" clip-path="url(#p2d2ec1dbe8)" style="fill: none; stroke-dasharray: 7.4,3.2; stroke-dashoffset: 0; stroke: #440154; stroke-width: 2"/>
   </g>
   <g id="line2d_4">
    <defs>
     <path id="m85be08f9ba" d="M 0 3 
C 0.795609 3 1.55874 2.683901 2.12132 2.12132 
C 2.683901 1.55874 3 0.795609 3 0 
C 3 -0.795609 2.683901 -1.55874 2.12132 -2.12132 
C 1.55874 -2.683901 0.795609 -3 0 -3 
C -0.795609 -3 -1.55874 -2.683901 -2.12132 -2.12132 
C -2.683901 -1.55874 -3 -0.795609 -3 0 
C -3 0.795609 -2.683901 1.55874 -2.12132 2.12132 
C -1.55874 2.683901 -0.795609 3 0 3 
z
" style="stroke: #440154"/>
    </defs>
    <g clip-path="url(#p2d2ec1dbe8)">
     <use xlink:href="#m85be08f9ba" x="299.695332" y="181.378507" style="fill: #440154; stroke: #440154"/>
    </g>
   </g>
   <g id="line2d_5">
    <path d="M 780.304668 255.189443 
L 780.304668 189.914647 
" clip-path="url(#p2d2ec1dbe8)" style="fill: none; stroke-dasharray: 7.4,3.2; stroke-dashoffset: 0; stroke: #440154; stroke-width: 2"/>
   </g>
   <g id="line2d_6">
    <g clip-path="url(#p2d2ec1dbe8)">
     <use xlink:href="#m85be08f9ba" x="780.304668" y="189.914647" style="fill: #440154; stroke: #440154"/>
    </g>
   </g>
   <g id="line2d_7">
    <path d="M 58.909091 344.72407 
L 60.835381 344.643849 
L 62.761671 344.404 
L 64.687961 344.006949 
L 67.577396 343.125833 
L 70.46683 341.920453 
L 73.356265 340.418222 
L 76.2457 338.653303 
L 80.09828 335.961576 
L 83.95086 332.983455 
L 99.361179 320.6814 
L 102.250614 318.732357 
L 105.140049 317.013803 
L 108.029484 315.564823 
L 110.918919 314.418369 
L 113.808354 313.600514 
L 115.734644 313.247338 
L 117.660934 313.052208 
L 119.587224 313.0171 
L 121.513514 313.142368 
L 123.439803 313.426745 
L 125.366093 313.867353 
L 128.255528 314.811025 
L 131.144963 316.074365 
L 134.034398 317.628644 
L 136.923833 319.438514 
L 140.776413 322.177396 
L 145.592138 325.966732 
L 157.149877 335.330558 
L 161.002457 338.094692 
L 163.891892 339.92891 
L 166.781327 341.511569 
L 169.670762 342.806676 
L 172.560197 343.784777 
L 174.486486 344.249433 
L 176.412776 344.558451 
L 178.339066 344.708705 
L 180.265356 344.698673 
L 182.191646 344.528458 
L 184.117936 344.199781 
L 186.044226 343.715969 
L 188.933661 342.710498 
L 191.823096 341.390208 
L 194.712531 339.785127 
L 197.601966 337.931756 
L 201.454545 335.147912 
L 206.27027 331.325772 
L 216.864865 322.724546 
L 220.717445 319.926208 
L 223.60688 318.058665 
L 226.496314 316.436933 
L 229.385749 315.097893 
L 232.275184 314.071999 
L 235.164619 313.382579 
L 237.090909 313.117967 
L 239.017199 313.01271 
L 240.943489 313.067873 
L 242.869779 313.2829 
L 244.796069 313.655613 
L 247.685504 314.501668 
L 250.574939 315.674428 
L 253.464373 317.147221 
L 256.353808 318.886553 
L 259.243243 320.852868 
L 263.095823 323.7498 
L 268.874693 328.443607 
L 276.579853 334.687013 
L 280.432432 337.518198 
L 283.321867 339.418161 
L 286.211302 341.078181 
L 289.100737 342.460504 
L 291.990172 343.533695 
L 294.879607 344.273347 
L 296.805897 344.572517 
L 298.732187 344.712781 
L 300.658477 344.692718 
L 302.584767 344.512531 
L 304.511057 344.174045 
L 307.400491 343.377425 
L 310.289926 342.250819 
L 313.179361 340.819849 
L 316.068796 339.117059 
L 318.958231 337.181172 
L 322.810811 334.314129 
L 328.589681 329.640012 
L 336.29484 323.373886 
L 340.14742 320.511227 
L 343.036855 318.579764 
L 345.92629 316.882261 
L 348.815725 315.457324 
L 351.70516 314.337357 
L 354.594595 313.54783 
L 356.520885 313.214247 
L 358.447174 313.039046 
L 360.373464 313.023998 
L 362.299754 313.169257 
L 364.226044 313.473353 
L 366.152334 313.933208 
L 369.041769 314.904443 
L 371.931204 316.193222 
L 374.820639 317.770236 
L 377.710074 319.599621 
L 381.562654 322.358759 
L 386.378378 326.163051 
L 397.936118 335.512181 
L 401.788698 338.256168 
L 404.678133 340.070943 
L 407.567568 341.630929 
L 410.457002 342.900648 
L 413.346437 343.851225 
L 415.272727 344.296651 
L 417.199017 344.585962 
L 419.125307 344.71623 
L 421.051597 344.686136 
L 422.977887 344.495986 
L 424.904177 344.147703 
L 427.793612 343.336918 
L 430.683047 342.197069 
L 433.572482 340.754078 
L 436.461916 339.040762 
L 439.351351 337.096085 
L 443.203931 334.22036 
L 448.982801 329.540385 
L 456.687961 323.280442 
L 460.540541 320.426635 
L 463.429975 318.504077 
L 466.31941 316.8172 
L 469.208845 315.404369 
L 472.09828 314.297712 
L 474.987715 313.522397 
L 476.914005 313.198631 
L 478.840295 313.033404 
L 480.766585 313.028388 
L 482.692875 313.183634 
L 484.619165 313.497571 
L 486.545455 313.967023 
L 489.434889 314.951982 
L 492.324324 316.253404 
L 495.213759 317.841692 
L 498.103194 319.680726 
L 501.955774 322.449828 
L 506.771499 326.261372 
L 518.329238 335.6026 
L 522.181818 338.33635 
L 525.071253 340.141296 
L 527.960688 341.689853 
L 530.850123 342.946802 
L 533.739558 343.88356 
L 535.665848 344.319345 
L 537.592138 344.598785 
L 539.518428 344.719052 
L 541.444717 344.678929 
L 543.371007 344.478823 
L 545.297297 344.120757 
L 548.186732 343.295839 
L 551.076167 342.142792 
L 553.965602 340.687837 
L 556.855037 338.964063 
L 559.744472 337.010673 
L 563.597052 334.126379 
L 569.375921 329.440733 
L 577.081081 323.187219 
L 580.933661 320.342376 
L 583.823096 318.428799 
L 586.712531 316.752616 
L 589.601966 315.351946 
L 592.4914 314.258643 
L 595.380835 313.497571 
L 597.307125 313.183634 
L 599.233415 313.028388 
L 601.159705 313.033404 
L 603.085995 313.198631 
L 605.012285 313.522397 
L 606.938575 314.001427 
L 609.82801 315.000071 
L 612.717445 316.314084 
L 615.60688 317.913584 
L 618.496314 319.762194 
L 622.348894 322.541152 
L 627.164619 326.359797 
L 637.759214 334.964272 
L 641.611794 337.767385 
L 644.501229 339.639616 
L 647.390663 341.266866 
L 650.280098 342.612129 
L 653.169533 343.644812 
L 656.058968 344.341428 
L 657.985258 344.610986 
L 659.911548 344.721247 
L 661.837838 344.671097 
L 663.764128 344.461042 
L 665.690418 344.093207 
L 668.579853 343.25419 
L 671.469287 342.087989 
L 674.358722 340.621128 
L 677.248157 338.886965 
L 680.137592 336.924938 
L 683.990172 334.032191 
L 689.769042 329.341057 
L 697.474201 323.09422 
L 701.326781 320.258455 
L 704.216216 318.353935 
L 707.105651 316.688511 
L 709.995086 315.300058 
L 712.884521 314.220152 
L 715.773956 313.473353 
L 717.700246 313.169257 
L 719.626536 313.023998 
L 721.552826 313.039046 
L 723.479115 313.214247 
L 725.405405 313.54783 
L 728.29484 314.337357 
L 731.184275 315.457324 
L 734.07371 316.882261 
L 736.963145 318.579764 
L 739.85258 320.511227 
L 743.70516 323.373886 
L 749.484029 328.045006 
L 757.189189 334.314129 
L 761.041769 337.181172 
L 763.931204 339.117059 
L 766.820639 340.819849 
L 769.710074 342.250819 
L 772.599509 343.377425 
L 775.488943 344.174045 
L 777.415233 344.512531 
L 779.341523 344.692718 
L 781.267813 344.712781 
L 783.194103 344.572517 
L 785.120393 344.273347 
L 787.046683 343.818297 
L 789.936118 342.853938 
L 792.825553 341.5715 
L 795.714988 340.000147 
L 798.604423 338.175614 
L 802.457002 335.421499 
L 807.272727 331.62089 
L 818.830467 322.267947 
L 822.683047 319.518882 
L 825.572482 317.699219 
L 828.461916 316.133542 
L 831.351351 314.857457 
L 834.240786 313.899984 
L 836.167076 313.449744 
L 838.093366 313.155502 
L 840.019656 313.020236 
L 841.945946 313.045314 
L 843.872236 313.230483 
L 845.798526 313.57387 
L 848.687961 314.377576 
L 851.577396 315.510809 
L 854.46683 316.947797 
L 857.356265 318.655858 
L 860.2457 320.59615 
L 864.09828 323.467548 
L 869.87715 328.144617 
L 877.58231 334.407683 
L 881.434889 337.26593 
L 884.324324 339.19295 
L 887.213759 340.885148 
L 890.103194 342.30404 
L 892.992629 343.417357 
L 895.882064 344.199781 
L 897.808354 344.528458 
L 899.734644 344.698673 
L 901.660934 344.708705 
L 903.587224 344.558451 
L 905.513514 344.249433 
L 907.439803 343.784777 
L 910.329238 342.806676 
L 913.218673 341.511569 
L 916.108108 339.92891 
L 918.997543 338.094692 
L 922.850123 335.330558 
L 927.665848 331.522621 
L 939.223587 322.177396 
L 943.076167 319.438514 
L 945.965602 317.628644 
L 948.855037 316.074365 
L 951.744472 314.811025 
L 954.633907 313.867353 
L 956.560197 313.426745 
L 958.486486 313.142368 
L 960.412776 313.0171 
L 962.339066 313.052208 
L 964.265356 313.247338 
L 966.191646 313.600514 
L 969.081081 314.418369 
L 971.970516 315.564823 
L 974.859951 317.013803 
L 977.749386 318.732357 
L 980.638821 320.6814 
L 984.4914 323.561423 
L 990.27027 328.244257 
L 997.97543 334.501017 
L 1001.82801 337.350356 
L 1004.717445 339.268433 
L 1007.60688 340.949971 
L 1010.496314 342.356729 
L 1013.385749 343.456714 
L 1016.275184 344.224911 
L 1018.201474 344.543765 
L 1020.127764 344.704002 
L 1021.090909 344.72407 
L 1021.090909 344.72407 
" clip-path="url(#p2d2ec1dbe8)" style="fill: none; stroke: #31688e; stroke-opacity: 0.8; stroke-width: 5; stroke-linecap: square"/>
   </g>
   <g id="line2d_8">
    <path d="M 118.624079 313.014591 
L 118.624079 115.246051 
" clip-path="url(#p2d2ec1dbe8)" style="fill: none; stroke-dasharray: 7.4,3.2; stroke-dashoffset: 0; stroke: #31688e; stroke-width: 2"/>
   </g>
   <g id="line2d_9">
    <defs>
     <path id="m4bf9bb35c3" d="M 0 3 
C 0.795609 3 1.55874 2.683901 2.12132 2.12132 
C 2.683901 1.55874 3 0.795609 3 0 
C 3 -0.795609 2.683901 -1.55874 2.12132 -2.12132 
C 1.55874 -2.683901 0.795609 -3 0 -3 
C -0.795609 -3 -1.55874 -2.683901 -2.12132 -2.12132 
C -2.683901 -1.55874 -3 -0.795609 -3 0 
C -3 0.795609 -2.683901 1.55874 -2.12132 2.12132 
C -1.55874 2.683901 -0.795609 3 0 3 
z
" style="stroke: #31688e"/>
    </defs>
    <g clip-path="url(#p2d2ec1dbe8)">
     <use xlink:href="#m4bf9bb35c3" x="118.624079" y="115.246051" style="fill: #31688e; stroke: #31688e"/>
    </g>
   </g>
   <g id="line2d_10">
    <path d="M 239.017199 313.01271 
L 239.017199 118.304514 
" clip-path="url(#p2d2ec1dbe8)" style="fill: none; stroke-dasharray: 7.4,3.2; stroke-dashoffset: 0; stroke: #31688e; stroke-width: 2"/>
   </g>
   <g id="line2d_11">
    <g clip-path="url(#p2d2ec1dbe8)">
     <use xlink:href="#m4bf9bb35c3" x="239.017199" y="118.304514" style="fill: #31688e; stroke: #31688e"/>
    </g>
   </g>
   <g id="line2d_12">
    <path d="M 359.410319 313.011455 
L 359.410319 153.971142 
" clip-path="url(#p2d2ec1dbe8)" style="fill: none; stroke-dasharray: 7.4,3.2; stroke-dashoffset: 0; stroke: #31688e; stroke-width: 2"/>
   </g>
   <g id="line2d_13">
    <g clip-path="url(#p2d2ec1dbe8)">
     <use xlink:href="#m4bf9bb35c3" x="359.410319" y="153.971142" style="fill: #31688e; stroke: #31688e"/>
    </g>
   </g>
   <g id="line2d_14">
    <path d="M 479.80344 313.010828 
L 479.80344 160.683216 
" clip-path="url(#p2d2ec1dbe8)" style="fill: none; stroke-dasharray: 7.4,3.2; stroke-dashoffset: 0; stroke: #31688e; stroke-width: 2"/>
   </g>
   <g id="line2d_15">
    <g clip-path="url(#p2d2ec1dbe8)">
     <use xlink:href="#m4bf9bb35c3" x="479.80344" y="160.683216" style="fill: #31688e; stroke: #31688e"/>
    </g>
   </g>
   <g id="line2d_16">
    <path d="M 600.19656 313.010828 
L 600.19656 203.531188 
" clip-path="url(#p2d2ec1dbe8)" style="fill: none; stroke-dasharray: 7.4,3.2; stroke-dashoffset: 0; stroke: #31688e; stroke-width: 2"/>
   </g>
   <g id="line2d_17">
    <g clip-path="url(#p2d2ec1dbe8)">
     <use xlink:href="#m4bf9bb35c3" x="600.19656" y="203.531188" style="fill: #31688e; stroke: #31688e"/>
    </g>
   </g>
   <g id="line2d_18">
    <path d="M 720.589681 313.011455 
L 720.589681 138.768985 
" clip-path="url(#p2d2ec1dbe8)" style="fill: none; stroke-dasharray: 7.4,3.2; stroke-dashoffset: 0; stroke: #31688e; stroke-width: 2"/>
   </g>
   <g id="line2d_19">
    <g clip-path="url(#p2d2ec1dbe8)">
     <use xlink:href="#m4bf9bb35c3" x="720.589681" y="138.768985" style="fill: #31688e; stroke: #31688e"/>
    </g>
   </g>
   <g id="line2d_20">
    <path d="M 840.982801 313.01271 
L 840.982801 144.059646 
" clip-path="url(#p2d2ec1dbe8)" style="fill: none; stroke-dasharray: 7.4,3.2; stroke-dashoffset: 0; stroke: #31688e; stroke-width: 2"/>
   </g>
   <g id="line2d_21">
    <g clip-path="url(#p2d2ec1dbe8)">
     <use xlink:href="#m4bf9bb35c3" x="840.982801" y="144.059646" style="fill: #31688e; stroke: #31688e"/>
    </g>
   </g>
   <g id="line2d_22">
    <path d="M 961.375921 313.014591 
L 961.375921 174.916525 
" clip-path="url(#p2d2ec1dbe8)" style="fill: none; stroke-dasharray: 7.4,3.2; stroke-dashoffset: 0; stroke: #31688e; stroke-width: 2"/>
   </g>
   <g id="line2d_23">
    <g clip-path="url(#p2d2ec1dbe8)">
     <use xlink:href="#m4bf9bb35c3" x="961.375921" y="174.916525" style="fill: #31688e; stroke: #31688e"/>
    </g>
   </g>
   <g id="line2d_24">
    <path d="M 58.909091 402.545455 
L 59.872236 402.42017 
L 60.835381 402.046296 
L 61.798526 401.42974 
L 62.761671 400.580246 
L 63.724816 399.511237 
L 65.651106 396.785448 
L 67.577396 393.423985 
L 70.46683 387.660553 
L 74.31941 379.908494 
L 76.2457 376.553741 
L 78.17199 373.83708 
L 79.135135 372.773367 
L 80.09828 371.929548 
L 81.061425 371.318956 
L 82.02457 370.951241 
L 82.987715 370.832213 
L 83.95086 370.963753 
L 84.914005 371.343782 
L 85.87715 371.966296 
L 86.840295 372.821456 
L 87.80344 373.89575 
L 89.72973 376.63064 
L 91.65602 379.998781 
L 94.545455 385.766812 
L 98.398034 393.514137 
L 100.324324 396.862147 
L 102.250614 399.569654 
L 103.213759 400.62806 
L 104.176904 401.466197 
L 105.140049 402.070818 
L 106.103194 402.432371 
L 107.066339 402.545141 
L 108.029484 402.407347 
L 108.992629 402.021166 
L 109.955774 401.392701 
L 110.918919 400.531883 
L 111.882064 399.452314 
L 113.808354 396.70835 
L 115.734644 393.333566 
L 118.624079 387.560992 
L 122.476658 379.818476 
L 124.402948 376.477243 
L 126.329238 373.778918 
L 127.292383 372.725828 
L 128.255528 371.893383 
L 129.218673 371.294738 
L 130.181818 370.939352 
L 131.144963 370.83284 
L 132.108108 370.976887 
L 133.071253 371.369215 
L 134.034398 372.003626 
L 134.997543 372.870094 
L 135.960688 373.954927 
L 137.886978 376.707938 
L 139.813268 380.089332 
L 142.702703 385.866391 
L 146.555283 393.60402 
L 148.481572 396.938444 
L 150.407862 399.627561 
L 151.371007 400.675323 
L 152.334152 401.502068 
L 153.297297 402.094732 
L 154.260442 402.443949 
L 155.223587 402.5442 
L 156.186732 402.393902 
L 157.149877 401.99543 
L 158.113022 401.35508 
L 159.076167 400.482971 
L 160.039312 399.392885 
L 161.965602 396.630855 
L 163.891892 393.242884 
L 166.781327 387.461396 
L 170.633907 379.72873 
L 172.560197 376.401149 
L 174.486486 373.721266 
L 175.449631 372.678842 
L 176.412776 371.857805 
L 177.375921 371.271129 
L 178.339066 370.928085 
L 179.302211 370.834095 
L 180.265356 370.990642 
L 181.228501 371.395254 
L 182.191646 372.041537 
L 183.154791 372.919278 
L 184.117936 374.014607 
L 186.044226 376.785629 
L 187.970516 380.180144 
L 190.859951 385.966002 
L 194.712531 393.693629 
L 196.638821 397.014335 
L 198.565111 399.684956 
L 199.528256 400.722033 
L 200.4914 401.537354 
L 201.454545 402.118036 
L 202.41769 402.454903 
L 203.380835 402.542632 
L 204.34398 402.379836 
L 205.307125 401.969088 
L 206.27027 401.316879 
L 207.233415 400.433514 
L 208.19656 399.332954 
L 210.12285 396.552967 
L 212.04914 393.151943 
L 214.938575 387.36177 
L 218.791155 379.639259 
L 220.717445 376.325461 
L 222.643735 373.664128 
L 223.60688 372.632409 
L 224.570025 371.822812 
L 225.53317 371.248129 
L 226.496314 370.917442 
L 227.459459 370.835976 
L 228.422604 371.005019 
L 229.385749 371.421899 
L 230.348894 372.080028 
L 231.312039 372.969007 
L 232.275184 374.074789 
L 234.201474 376.863713 
L 236.127764 380.271213 
L 239.017199 386.065642 
L 242.869779 393.782961 
L 244.796069 397.089818 
L 246.722359 399.741837 
L 247.685504 400.768187 
L 248.648649 401.572052 
L 249.611794 402.14073 
L 250.574939 402.465234 
L 251.538084 402.540437 
L 252.501229 402.365149 
L 253.464373 401.942142 
L 254.427518 401.278099 
L 255.390663 400.383514 
L 256.353808 399.272522 
L 258.280098 396.474688 
L 260.206388 393.060746 
L 263.095823 387.262117 
L 265.985258 381.382808 
L 267.911548 377.830133 
L 269.837838 374.835188 
L 270.800983 373.607504 
L 271.764128 372.586533 
L 272.727273 371.788408 
L 273.690418 371.225741 
L 274.653563 370.907423 
L 275.616708 370.838485 
L 276.579853 371.020016 
L 277.542998 371.449147 
L 278.506143 372.119097 
L 279.469287 373.019279 
L 280.432432 374.135469 
L 282.358722 376.942185 
L 284.285012 380.362537 
L 287.174447 386.165307 
L 290.063882 392.041745 
L 291.990172 395.58877 
L 293.916462 398.575463 
L 294.879607 399.798202 
L 295.842752 400.813785 
L 296.805897 401.606162 
L 297.769042 402.162813 
L 298.732187 402.474941 
L 299.695332 402.537615 
L 300.658477 402.349843 
L 301.621622 401.914592 
L 302.584767 401.238742 
L 303.547912 400.332971 
L 304.511057 399.211593 
L 306.437346 396.396023 
L 308.363636 392.969297 
L 311.253071 387.162442 
L 314.142506 381.288933 
L 316.068796 377.747593 
L 317.995086 374.769181 
L 318.958231 373.551399 
L 319.921376 372.541215 
L 320.884521 371.754593 
L 321.847666 371.203964 
L 322.810811 370.898028 
L 323.773956 370.841621 
L 324.737101 371.035632 
L 325.700246 371.476997 
L 326.663391 372.158742 
L 327.626536 373.070092 
L 328.589681 374.196647 
L 330.515971 377.021043 
L 332.44226 380.45411 
L 335.331695 386.264992 
L 338.22113 392.135514 
L 340.14742 395.671133 
L 342.07371 398.641234 
L 343.036855 399.854049 
L 344 400.858823 
L 344.963145 401.639682 
L 345.92629 402.184284 
L 346.889435 402.484024 
L 347.85258 402.534165 
L 348.815725 402.333916 
L 349.77887 401.88644 
L 350.742015 401.198809 
L 351.70516 400.281889 
L 352.668305 399.150168 
L 354.594595 396.316974 
L 356.520885 392.877599 
L 359.410319 387.062748 
L 362.299754 381.195271 
L 364.226044 377.665408 
L 366.152334 374.703646 
L 367.115479 373.495813 
L 368.078624 372.496456 
L 369.041769 371.721369 
L 370.004914 371.1828 
L 370.968059 370.889258 
L 371.931204 370.845383 
L 372.894349 371.051868 
L 373.857494 371.50545 
L 374.820639 372.198961 
L 375.783784 373.121443 
L 376.746929 374.258318 
L 378.673219 377.100283 
L 380.599509 380.54593 
L 383.488943 386.364694 
L 386.378378 392.229067 
L 388.304668 395.753141 
L 390.230958 398.706533 
L 391.194103 399.909374 
L 392.157248 400.903302 
L 393.120393 401.67261 
L 394.083538 402.205141 
L 395.046683 402.492481 
L 396.009828 402.530089 
L 396.972973 402.317371 
L 397.936118 401.857687 
L 398.899263 401.158303 
L 399.862408 400.230269 
L 400.825553 399.088251 
L 402.751843 396.237543 
L 404.678133 392.785657 
L 407.567568 386.963039 
L 410.457002 381.101827 
L 412.383292 377.583579 
L 414.309582 374.638585 
L 415.272727 373.440748 
L 416.235872 372.452259 
L 417.199017 371.688737 
L 418.162162 371.162249 
L 419.125307 370.881113 
L 420.088452 370.849773 
L 421.051597 371.068723 
L 422.014742 371.534503 
L 422.977887 372.239754 
L 423.941032 373.173331 
L 424.904177 374.320481 
L 426.830467 377.179903 
L 428.756757 380.637994 
L 431.646192 386.464409 
L 434.535627 392.322402 
L 436.461916 395.834789 
L 438.388206 398.771356 
L 439.351351 399.964176 
L 440.314496 400.947218 
L 441.277641 401.704945 
L 442.240786 402.225385 
L 443.203931 402.500314 
L 444.167076 402.525387 
L 445.130221 402.300207 
L 446.093366 401.828334 
L 447.056511 401.117224 
L 448.019656 400.178114 
L 448.982801 399.025843 
L 450.909091 396.157735 
L 452.835381 392.693474 
L 455.724816 386.863319 
L 458.614251 381.008603 
L 460.540541 377.502111 
L 462.46683 374.574001 
L 463.429975 373.386208 
L 464.39312 372.408625 
L 465.356265 371.656699 
L 466.31941 371.142312 
L 467.282555 370.873593 
L 468.2457 370.854788 
L 469.208845 371.086195 
L 470.17199 371.564156 
L 471.135135 372.281119 
L 472.09828 373.225753 
L 473.061425 374.383133 
L 474.987715 377.259898 
L 476.914005 380.730296 
L 479.80344 386.564133 
L 482.692875 392.415513 
L 484.619165 395.916077 
L 486.545455 398.835701 
L 487.5086 400.018454 
L 488.471744 400.99057 
L 489.434889 401.736687 
L 490.398034 402.245015 
L 491.361179 402.507521 
L 492.324324 402.520058 
L 493.287469 402.282426 
L 494.250614 401.798382 
L 495.213759 401.075574 
L 496.176904 400.125424 
L 497.140049 398.962947 
L 499.066339 396.077553 
L 500.992629 392.601053 
L 503.882064 386.763592 
L 506.771499 380.915605 
L 508.697789 377.421005 
L 510.624079 374.509896 
L 511.587224 373.332194 
L 512.550369 372.365556 
L 513.513514 371.625255 
L 514.476658 371.12299 
L 515.439803 370.866699 
L 516.402948 370.860431 
L 517.366093 371.104284 
L 518.329238 371.594407 
L 519.292383 372.323053 
L 520.255528 373.278709 
L 521.218673 374.446272 
L 523.144963 377.340267 
L 525.071253 380.822834 
L 527.960688 386.663862 
L 530.850123 392.508398 
L 532.776413 395.996999 
L 534.702703 398.899565 
L 535.665848 400.072204 
L 536.628993 401.033356 
L 537.592138 401.767833 
L 538.555283 402.264029 
L 539.518428 402.514102 
L 540.481572 402.514102 
L 541.444717 402.264029 
L 542.407862 401.767833 
L 543.371007 401.033356 
L 544.334152 400.072204 
L 545.297297 398.899565 
L 547.223587 395.996999 
L 549.149877 392.508398 
L 552.039312 386.663862 
L 554.928747 380.822834 
L 556.855037 377.340267 
L 558.781327 374.446272 
L 559.744472 373.278709 
L 560.707617 372.323053 
L 561.670762 371.594407 
L 562.633907 371.104284 
L 563.597052 370.860431 
L 564.560197 370.866699 
L 565.523342 371.12299 
L 566.486486 371.625255 
L 567.449631 372.365556 
L 568.412776 373.332194 
L 569.375921 374.509896 
L 571.302211 377.421005 
L 573.228501 380.915605 
L 577.081081 388.752324 
L 579.970516 394.400231 
L 581.896806 397.606512 
L 582.859951 398.962947 
L 583.823096 400.125424 
L 584.786241 401.075574 
L 585.749386 401.798382 
L 586.712531 402.282426 
L 587.675676 402.520058 
L 588.638821 402.507521 
L 589.601966 402.245015 
L 590.565111 401.736687 
L 591.528256 400.99057 
L 592.4914 400.018454 
L 593.454545 398.835701 
L 595.380835 395.916077 
L 597.307125 392.415513 
L 601.159705 384.575834 
L 604.04914 378.933825 
L 605.97543 375.734969 
L 606.938575 374.383133 
L 607.90172 373.225753 
L 608.864865 372.281119 
L 609.82801 371.564156 
L 610.791155 371.086195 
L 611.7543 370.854788 
L 612.717445 370.873593 
L 613.68059 371.142312 
L 614.643735 371.656699 
L 615.60688 372.408625 
L 616.570025 373.386208 
L 617.53317 374.574001 
L 619.459459 377.502111 
L 621.385749 381.008603 
L 625.238329 388.851165 
L 628.127764 394.48722 
L 630.054054 397.678621 
L 631.017199 399.025843 
L 631.980344 400.178114 
L 632.943489 401.117224 
L 633.906634 401.828334 
L 634.869779 402.300207 
L 635.832924 402.525387 
L 636.796069 402.500314 
L 637.759214 402.225385 
L 638.722359 401.704945 
L 639.685504 400.947218 
L 640.648649 399.964176 
L 641.611794 398.771356 
L 643.538084 395.834789 
L 645.464373 392.322402 
L 649.316953 384.477036 
L 652.206388 378.84699 
L 654.132678 375.663077 
L 655.095823 374.320481 
L 656.058968 373.173331 
L 657.022113 372.239754 
L 657.985258 371.534503 
L 658.948403 371.068723 
L 659.911548 370.849773 
L 660.874693 370.881113 
L 661.837838 371.162249 
L 662.800983 371.688737 
L 663.764128 372.452259 
L 664.727273 373.440748 
L 665.690418 374.638585 
L 667.616708 377.583579 
L 669.542998 381.101827 
L 673.395577 388.949919 
L 676.285012 394.573901 
L 678.211302 397.750295 
L 679.174447 399.088251 
L 680.137592 400.230269 
L 681.100737 401.158303 
L 682.063882 401.857687 
L 683.027027 402.317371 
L 683.990172 402.530089 
L 684.953317 402.492481 
L 685.916462 402.205141 
L 686.879607 401.67261 
L 687.842752 400.903302 
L 688.805897 399.909374 
L 689.769042 398.706533 
L 691.695332 395.753141 
L 693.621622 392.229067 
L 697.474201 384.378325 
L 700.363636 378.760464 
L 702.289926 375.591621 
L 703.253071 374.258318 
L 704.216216 373.121443 
L 705.179361 372.198961 
L 706.142506 371.50545 
L 707.105651 371.051868 
L 708.068796 370.845383 
L 709.031941 370.889258 
L 709.995086 371.1828 
L 710.958231 371.721369 
L 711.921376 372.496456 
L 712.884521 373.495813 
L 713.847666 374.703646 
L 715.773956 377.665408 
L 717.700246 381.195271 
L 721.552826 389.048585 
L 724.44226 394.66027 
L 726.36855 397.821532 
L 727.331695 399.150168 
L 728.29484 400.281889 
L 729.257985 401.198809 
L 730.22113 401.88644 
L 731.184275 402.333916 
L 732.14742 402.534165 
L 733.110565 402.484024 
L 734.07371 402.184284 
L 735.036855 401.639682 
L 736 400.858823 
L 736.963145 399.854049 
L 737.92629 398.641234 
L 739.85258 395.671133 
L 741.77887 392.135514 
L 749.484029 377.021043 
L 751.410319 374.196647 
L 752.373464 373.070092 
L 753.336609 372.158742 
L 754.299754 371.476997 
L 755.262899 371.035632 
L 756.226044 370.841621 
L 757.189189 370.898028 
L 758.152334 371.203964 
L 759.115479 371.754593 
L 760.078624 372.541215 
L 761.041769 373.551399 
L 762.004914 374.769181 
L 763.931204 377.747593 
L 765.857494 381.288933 
L 773.562654 396.396023 
L 775.488943 399.211593 
L 776.452088 400.332971 
L 777.415233 401.238742 
L 778.378378 401.914592 
L 779.341523 402.349843 
L 780.304668 402.537615 
L 781.267813 402.474941 
L 782.230958 402.162813 
L 783.194103 401.606162 
L 784.157248 400.813785 
L 785.120393 399.798202 
L 786.083538 398.575463 
L 788.009828 395.58877 
L 789.936118 392.041745 
L 797.641278 376.942185 
L 799.567568 374.135469 
L 800.530713 373.019279 
L 801.493857 372.119097 
L 802.457002 371.449147 
L 803.420147 371.020016 
L 804.383292 370.838485 
L 805.346437 370.907423 
L 806.309582 371.225741 
L 807.272727 371.788408 
L 808.235872 372.586533 
L 809.199017 373.607504 
L 810.162162 374.835188 
L 812.088452 377.830133 
L 814.014742 381.382808 
L 821.719902 396.474688 
L 823.646192 399.272522 
L 824.609337 400.383514 
L 825.572482 401.278099 
L 826.535627 401.942142 
L 827.498771 402.365149 
L 828.461916 402.540437 
L 829.425061 402.465234 
L 830.388206 402.14073 
L 831.351351 401.572052 
L 832.314496 400.768187 
L 833.277641 399.741837 
L 834.240786 398.509222 
L 836.167076 395.506055 
L 838.093366 391.947764 
L 844.835381 378.502785 
L 846.761671 375.379898 
L 847.724816 374.074789 
L 848.687961 372.969007 
L 849.651106 372.080028 
L 850.614251 371.421899 
L 851.577396 371.005019 
L 852.540541 370.835976 
L 853.503686 370.917442 
L 854.46683 371.248129 
L 855.429975 371.822812 
L 856.39312 372.632409 
L 857.356265 373.664128 
L 858.31941 374.901664 
L 860.2457 377.913022 
L 862.17199 381.476893 
L 868.914005 394.91747 
L 870.840295 398.032588 
L 871.80344 399.332954 
L 872.766585 400.433514 
L 873.72973 401.316879 
L 874.692875 401.969088 
L 875.65602 402.379836 
L 876.619165 402.542632 
L 877.58231 402.454903 
L 878.545455 402.118036 
L 879.5086 401.537354 
L 880.471744 400.722033 
L 881.434889 399.684956 
L 882.398034 398.442513 
L 884.324324 395.422992 
L 886.250614 391.853575 
L 892.992629 378.417535 
L 894.918919 375.310215 
L 895.882064 374.014607 
L 896.845209 372.919278 
L 897.808354 372.041537 
L 898.771499 371.395254 
L 899.734644 370.990642 
L 900.697789 370.834095 
L 901.660934 370.928085 
L 902.624079 371.271129 
L 903.587224 371.857805 
L 904.550369 372.678842 
L 905.513514 373.721266 
L 906.476658 374.968605 
L 908.402948 377.996259 
L 910.329238 381.571185 
L 917.071253 395.002557 
L 918.997543 398.102047 
L 919.960688 399.392885 
L 920.923833 400.482971 
L 921.886978 401.35508 
L 922.850123 401.99543 
L 923.813268 402.393902 
L 924.776413 402.5442 
L 925.739558 402.443949 
L 926.702703 402.094732 
L 927.665848 401.502068 
L 928.628993 400.675323 
L 929.592138 399.627561 
L 930.555283 398.375339 
L 932.481572 395.339582 
L 934.407862 391.759182 
L 941.149877 378.332612 
L 943.076167 375.240982 
L 944.039312 373.954927 
L 945.002457 372.870094 
L 945.965602 372.003626 
L 946.928747 371.369215 
L 947.891892 370.976887 
L 948.855037 370.83284 
L 949.818182 370.939352 
L 950.781327 371.294738 
L 951.744472 371.893383 
L 952.707617 372.725828 
L 953.670762 373.778918 
L 954.633907 375.036011 
L 956.560197 378.07984 
L 958.486486 381.665679 
L 965.228501 395.087315 
L 967.154791 398.171054 
L 968.117936 399.452314 
L 969.081081 400.531883 
L 970.044226 401.392701 
L 971.007371 402.021166 
L 971.970516 402.407347 
L 972.933661 402.545141 
L 973.896806 402.432371 
L 974.859951 402.070818 
L 975.823096 401.466197 
L 976.786241 400.62806 
L 977.749386 399.569654 
L 978.712531 398.307702 
L 980.638821 395.255831 
L 982.565111 391.664589 
L 989.307125 378.248019 
L 991.233415 375.172202 
L 992.19656 373.89575 
L 993.159705 372.821456 
L 994.12285 371.966296 
L 995.085995 371.343782 
L 996.04914 370.963753 
L 997.012285 370.832213 
L 997.97543 370.951241 
L 998.938575 371.318956 
L 999.90172 371.929548 
L 1000.864865 372.773367 
L 1001.82801 373.83708 
L 1003.7543 376.553741 
L 1005.68059 379.908494 
L 1008.570025 385.667269 
L 1012.422604 393.423985 
L 1014.348894 396.785448 
L 1016.275184 399.511237 
L 1017.238329 400.580246 
L 1018.201474 401.42974 
L 1019.164619 402.046296 
L 1020.127764 402.42017 
L 1021.090909 402.545455 
L 1021.090909 402.545455 
" clip-path="url(#p2d2ec1dbe8)" style="fill: none; stroke: #35b779; stroke-opacity: 0.8; stroke-width: 5; stroke-linecap: square"/>
   </g>
   <g id="line2d_25">
    <path d="M 82.987715 370.832213 
L 82.987715 143.239347 
" clip-path="url(#p2d2ec1dbe8)" style="fill: none; stroke-dasharray: 7.4,3.2; stroke-dashoffset: 0; stroke: #35b779; stroke-width: 2"/>
   </g>
   <g id="line2d_26">
    <defs>
     <path id="mab964ec7f3" d="M 0 3 
C 0.795609 3 1.55874 2.683901 2.12132 2.12132 
C 2.683901 1.55874 3 0.795609 3 0 
C 3 -0.795609 2.683901 -1.55874 2.12132 -2.12132 
C 1.55874 -2.683901 0.795609 -3 0 -3 
C -0.795609 -3 -1.55874 -2.683901 -2.12132 -2.12132 
C -2.683901 -1.55874 -3 -0.795609 -3 0 
C -3 0.795609 -2.683901 1.55874 -2.12132 2.12132 
C -1.55874 2.683901 -0.795609 3 0 3 
z
" style="stroke: #35b779"/>
    </defs>
    <g clip-path="url(#p2d2ec1dbe8)">
     <use xlink:href="#mab964ec7f3" x="82.987715" y="143.239347" style="fill: #35b779; stroke: #35b779"/>
    </g>
   </g>
   <g id="line2d_27">
    <path d="M 131.144963 370.83284 
L 131.144963 103.876882 
" clip-path="url(#p2d2ec1dbe8)" style="fill: none; stroke-dasharray: 7.4,3.2; stroke-dashoffset: 0; stroke: #35b779; stroke-width: 2"/>
   </g>
   <g id="line2d_28">
    <g clip-path="url(#p2d2ec1dbe8)">
     <use xlink:href="#mab964ec7f3" x="131.144963" y="103.876882" style="fill: #35b779; stroke: #35b779"/>
    </g>
   </g>
   <g id="line2d_29">
    <path d="M 179.302211 370.834095 
L 179.302211 93.182513 
" clip-path="url(#p2d2ec1dbe8)" style="fill: none; stroke-dasharray: 7.4,3.2; stroke-dashoffset: 0; stroke: #35b779; stroke-width: 2"/>
   </g>
   <g id="line2d_30">
    <g clip-path="url(#p2d2ec1dbe8)">
     <use xlink:href="#mab964ec7f3" x="179.302211" y="93.182513" style="fill: #35b779; stroke: #35b779"/>
    </g>
   </g>
   <g id="line2d_31">
    <path d="M 227.459459 370.835976 
L 227.459459 70.996154 
" clip-path="url(#p2d2ec1dbe8)" style="fill: none; stroke-dasharray: 7.4,3.2; stroke-dashoffset: 0; stroke: #35b779; stroke-width: 2"/>
   </g>
   <g id="line2d_32">
    <g clip-path="url(#p2d2ec1dbe8)">
     <use xlink:href="#mab964ec7f3" x="227.459459" y="70.996154" style="fill: #35b779; stroke: #35b779"/>
    </g>
   </g>
   <g id="line2d_33">
    <path d="M 275.616708 370.838485 
L 275.616708 208.037966 
" clip-path="url(#p2d2ec1dbe8)" style="fill: none; stroke-dasharray: 7.4,3.2; stroke-dashoffset: 0; stroke: #35b779; stroke-width: 2"/>
   </g>
   <g id="line2d_34">
    <g clip-path="url(#p2d2ec1dbe8)">
     <use xlink:href="#mab964ec7f3" x="275.616708" y="208.037966" style="fill: #35b779; stroke: #35b779"/>
    </g>
   </g>
   <g id="line2d_35">
    <path d="M 323.773956 370.841621 
L 323.773956 192.723423 
" clip-path="url(#p2d2ec1dbe8)" style="fill: none; stroke-dasharray: 7.4,3.2; stroke-dashoffset: 0; stroke: #35b779; stroke-width: 2"/>
   </g>
   <g id="line2d_36">
    <g clip-path="url(#p2d2ec1dbe8)">
     <use xlink:href="#mab964ec7f3" x="323.773956" y="192.723423" style="fill: #35b779; stroke: #35b779"/>
    </g>
   </g>
   <g id="line2d_37">
    <path d="M 371.931204 370.845383 
L 371.931204 178.751196 
" clip-path="url(#p2d2ec1dbe8)" style="fill: none; stroke-dasharray: 7.4,3.2; stroke-dashoffset: 0; stroke: #35b779; stroke-width: 2"/>
   </g>
   <g id="line2d_38">
    <g clip-path="url(#p2d2ec1dbe8)">
     <use xlink:href="#mab964ec7f3" x="371.931204" y="178.751196" style="fill: #35b779; stroke: #35b779"/>
    </g>
   </g>
   <g id="line2d_39">
    <path d="M 420.088452 370.849773 
L 420.088452 169.171663 
" clip-path="url(#p2d2ec1dbe8)" style="fill: none; stroke-dasharray: 7.4,3.2; stroke-dashoffset: 0; stroke: #35b779; stroke-width: 2"/>
   </g>
   <g id="line2d_40">
    <g clip-path="url(#p2d2ec1dbe8)">
     <use xlink:href="#mab964ec7f3" x="420.088452" y="169.171663" style="fill: #35b779; stroke: #35b779"/>
    </g>
   </g>
   <g id="line2d_41">
    <path d="M 468.2457 370.854788 
L 468.2457 176.615643 
" clip-path="url(#p2d2ec1dbe8)" style="fill: none; stroke-dasharray: 7.4,3.2; stroke-dashoffset: 0; stroke: #35b779; stroke-width: 2"/>
   </g>
   <g id="line2d_42">
    <g clip-path="url(#p2d2ec1dbe8)">
     <use xlink:href="#mab964ec7f3" x="468.2457" y="176.615643" style="fill: #35b779; stroke: #35b779"/>
    </g>
   </g>
   <g id="line2d_43">
    <path d="M 516.402948 370.860431 
L 516.402948 157.213724 
" clip-path="url(#p2d2ec1dbe8)" style="fill: none; stroke-dasharray: 7.4,3.2; stroke-dashoffset: 0; stroke: #35b779; stroke-width: 2"/>
   </g>
   <g id="line2d_44">
    <g clip-path="url(#p2d2ec1dbe8)">
     <use xlink:href="#mab964ec7f3" x="516.402948" y="157.213724" style="fill: #35b779; stroke: #35b779"/>
    </g>
   </g>
   <g id="line2d_45">
    <path d="M 563.597052 370.860431 
L 563.597052 191.913044 
" clip-path="url(#p2d2ec1dbe8)" style="fill: none; stroke-dasharray: 7.4,3.2; stroke-dashoffset: 0; stroke: #35b779; stroke-width: 2"/>
   </g>
   <g id="line2d_46">
    <g clip-path="url(#p2d2ec1dbe8)">
     <use xlink:href="#mab964ec7f3" x="563.597052" y="191.913044" style="fill: #35b779; stroke: #35b779"/>
    </g>
   </g>
   <g id="line2d_47">
    <path d="M 611.7543 370.854788 
L 611.7543 189.384071 
" clip-path="url(#p2d2ec1dbe8)" style="fill: none; stroke-dasharray: 7.4,3.2; stroke-dashoffset: 0; stroke: #35b779; stroke-width: 2"/>
   </g>
   <g id="line2d_48">
    <g clip-path="url(#p2d2ec1dbe8)">
     <use xlink:href="#mab964ec7f3" x="611.7543" y="189.384071" style="fill: #35b779; stroke: #35b779"/>
    </g>
   </g>
   <g id="line2d_49">
    <path d="M 659.911548 370.849773 
L 659.911548 125.348925 
" clip-path="url(#p2d2ec1dbe8)" style="fill: none; stroke-dasharray: 7.4,3.2; stroke-dashoffset: 0; stroke: #35b779; stroke-width: 2"/>
   </g>
   <g id="line2d_50">
    <g clip-path="url(#p2d2ec1dbe8)">
     <use xlink:href="#mab964ec7f3" x="659.911548" y="125.348925" style="fill: #35b779; stroke: #35b779"/>
    </g>
   </g>
   <g id="line2d_51">
    <path d="M 708.068796 370.845383 
L 708.068796 152.819222 
" clip-path="url(#p2d2ec1dbe8)" style="fill: none; stroke-dasharray: 7.4,3.2; stroke-dashoffset: 0; stroke: #35b779; stroke-width: 2"/>
   </g>
   <g id="line2d_52">
    <g clip-path="url(#p2d2ec1dbe8)">
     <use xlink:href="#mab964ec7f3" x="708.068796" y="152.819222" style="fill: #35b779; stroke: #35b779"/>
    </g>
   </g>
   <g id="line2d_53">
    <path d="M 756.226044 370.841621 
L 756.226044 146.413996 
" clip-path="url(#p2d2ec1dbe8)" style="fill: none; stroke-dasharray: 7.4,3.2; stroke-dashoffset: 0; stroke: #35b779; stroke-width: 2"/>
   </g>
   <g id="line2d_54">
    <g clip-path="url(#p2d2ec1dbe8)">
     <use xlink:href="#mab964ec7f3" x="756.226044" y="146.413996" style="fill: #35b779; stroke: #35b779"/>
    </g>
   </g>
   <g id="line2d_55">
    <path d="M 804.383292 370.838485 
L 804.383292 225.653458 
" clip-path="url(#p2d2ec1dbe8)" style="fill: none; stroke-dasharray: 7.4,3.2; stroke-dashoffset: 0; stroke: #35b779; stroke-width: 2"/>
   </g>
   <g id="line2d_56">
    <g clip-path="url(#p2d2ec1dbe8)">
     <use xlink:href="#mab964ec7f3" x="804.383292" y="225.653458" style="fill: #35b779; stroke: #35b779"/>
    </g>
   </g>
   <g id="line2d_57">
    <path d="M 852.540541 370.835976 
L 852.540541 125.696725 
" clip-path="url(#p2d2ec1dbe8)" style="fill: none; stroke-dasharray: 7.4,3.2; stroke-dashoffset: 0; stroke: #35b779; stroke-width: 2"/>
   </g>
   <g id="line2d_58">
    <g clip-path="url(#p2d2ec1dbe8)">
     <use xlink:href="#mab964ec7f3" x="852.540541" y="125.696725" style="fill: #35b779; stroke: #35b779"/>
    </g>
   </g>
   <g id="line2d_59">
    <path d="M 900.697789 370.834095 
L 900.697789 140.270329 
" clip-path="url(#p2d2ec1dbe8)" style="fill: none; stroke-dasharray: 7.4,3.2; stroke-dashoffset: 0; stroke: #35b779; stroke-width: 2"/>
   </g>
   <g id="line2d_60">
    <g clip-path="url(#p2d2ec1dbe8)">
     <use xlink:href="#mab964ec7f3" x="900.697789" y="140.270329" style="fill: #35b779; stroke: #35b779"/>
    </g>
   </g>
   <g id="line2d_61">
    <path d="M 948.855037 370.83284 
L 948.855037 173.26676 
" clip-path="url(#p2d2ec1dbe8)" style="fill: none; stroke-dasharray: 7.4,3.2; stroke-dashoffset: 0; stroke: #35b779; stroke-width: 2"/>
   </g>
   <g id="line2d_62">
    <g clip-path="url(#p2d2ec1dbe8)">
     <use xlink:href="#mab964ec7f3" x="948.855037" y="173.26676" style="fill: #35b779; stroke: #35b779"/>
    </g>
   </g>
   <g id="line2d_63">
    <path d="M 997.012285 370.832213 
L 997.012285 200.330545 
" clip-path="url(#p2d2ec1dbe8)" style="fill: none; stroke-dasharray: 7.4,3.2; stroke-dashoffset: 0; stroke: #35b779; stroke-width: 2"/>
   </g>
   <g id="line2d_64">
    <g clip-path="url(#p2d2ec1dbe8)">
     <use xlink:href="#mab964ec7f3" x="997.012285" y="200.330545" style="fill: #35b779; stroke: #35b779"/>
    </g>
   </g>
   <g id="legend_1">
    <g id="line2d_65">
     <path d="M 949.356563 34.377188 
L 967.356563 34.377188 
L 985.356563 34.377188 
" style="fill: none; stroke: #4b4b4b; stroke-opacity: 0.8; stroke-width: 5; stroke-linecap: square"/>
    </g>
    <g id="text_1">
     <!-- signal -->
     <g transform="translate(999.756563 40.677188) scale(0.18 -0.18)">
      <defs>
       <path id="DejaVuSans-73" d="M 2834 3397 
L 2834 2853 
Q 2591 2978 2328 3040 
Q 2066 3103 1784 3103 
Q 1356 3103 1142 2972 
Q 928 2841 928 2578 
Q 928 2378 1081 2264 
Q 1234 2150 1697 2047 
L 1894 2003 
Q 2506 1872 2764 1633 
Q 3022 1394 3022 966 
Q 3022 478 2636 193 
Q 2250 -91 1575 -91 
Q 1294 -91 989 -36 
Q 684 19 347 128 
L 347 722 
Q 666 556 975 473 
Q 1284 391 1588 391 
Q 1994 391 2212 530 
Q 2431 669 2431 922 
Q 2431 1156 2273 1281 
Q 2116 1406 1581 1522 
L 1381 1569 
Q 847 1681 609 1914 
Q 372 2147 372 2553 
Q 372 3047 722 3315 
Q 1072 3584 1716 3584 
Q 2034 3584 2315 3537 
Q 2597 3491 2834 3397 
z
" transform="scale(0.015625)"/>
       <path id="DejaVuSans-69" d="M 603 3500 
L 1178 3500 
L 1178 0 
L 603 0 
L 603 3500 
z
M 603 4863 
L 1178 4863 
L 1178 4134 
L 603 4134 
L 603 4863 
z
" transform="scale(0.015625)"/>
       <path id="DejaVuSans-67" d="M 2906 1791 
Q 2906 2416 2648 2759 
Q 2391 3103 1925 3103 
Q 1463 3103 1205 2759 
Q 947 2416 947 1791 
Q 947 1169 1205 825 
Q 1463 481 1925 481 
Q 2391 481 2648 825 
Q 2906 1169 2906 1791 
z
M 3481 434 
Q 3481 -459 3084 -895 
Q 2688 -1331 1869 -1331 
Q 1566 -1331 1297 -1286 
Q 1028 -1241 775 -1147 
L 775 -588 
Q 1028 -725 1275 -790 
Q 1522 -856 1778 -856 
Q 2344 -856 2625 -561 
Q 2906 -266 2906 331 
L 2906 616 
Q 2728 306 2450 153 
Q 2172 0 1784 0 
Q 1141 0 747 490 
Q 353 981 353 1791 
Q 353 2603 747 3093 
Q 1141 3584 1784 3584 
Q 2172 3584 2450 3431 
Q 2728 3278 2906 2969 
L 2906 3500 
L 3481 3500 
L 3481 434 
z
" transform="scale(0.015625)"/>
       <path id="DejaVuSans-6e" d="M 3513 2113 
L 3513 0 
L 2938 0 
L 2938 2094 
Q 2938 2591 2744 2837 
Q 2550 3084 2163 3084 
Q 1697 3084 1428 2787 
Q 1159 2491 1159 1978 
L 1159 0 
L 581 0 
L 581 3500 
L 1159 3500 
L 1159 2956 
Q 1366 3272 1645 3428 
Q 1925 3584 2291 3584 
Q 2894 3584 3203 3211 
Q 3513 2838 3513 2113 
z
" transform="scale(0.015625)"/>
       <path id="DejaVuSans-61" d="M 2194 1759 
Q 1497 1759 1228 1600 
Q 959 1441 959 1056 
Q 959 750 1161 570 
Q 1363 391 1709 391 
Q 2188 391 2477 730 
Q 2766 1069 2766 1631 
L 2766 1759 
L 2194 1759 
z
M 3341 1997 
L 3341 0 
L 2766 0 
L 2766 531 
Q 2569 213 2275 61 
Q 1981 -91 1556 -91 
Q 1019 -91 701 211 
Q 384 513 384 1019 
Q 384 1609 779 1909 
Q 1175 2209 1959 2209 
L 2766 2209 
L 2766 2266 
Q 2766 2663 2505 2880 
Q 2244 3097 1772 3097 
Q 1472 3097 1187 3025 
Q 903 2953 641 2809 
L 641 3341 
Q 956 3463 1253 3523 
Q 1550 3584 1831 3584 
Q 2591 3584 2966 3190 
Q 3341 2797 3341 1997 
z
" transform="scale(0.015625)"/>
       <path id="DejaVuSans-6c" d="M 603 4863 
L 1178 4863 
L 1178 0 
L 603 0 
L 603 4863 
z
" transform="scale(0.015625)"/>
      </defs>
      <use xlink:href="#DejaVuSans-73"/>
      <use xlink:href="#DejaVuSans-69" x="52.099609"/>
      <use xlink:href="#DejaVuSans-67" x="79.882812"/>
      <use xlink:href="#DejaVuSans-6e" x="143.359375"/>
      <use xlink:href="#DejaVuSans-61" x="206.738281"/>
      <use xlink:href="#DejaVuSans-6c" x="268.017578"/>
     </g>
    </g>
    <g id="line2d_66">
     <path d="M 949.356563 60.797812 
L 967.356563 60.797812 
L 985.356563 60.797812 
" style="fill: none; stroke: #440154; stroke-opacity: 0.8; stroke-width: 5; stroke-linecap: square"/>
    </g>
    <g id="text_2">
     <!-- 2 Hz -->
     <g transform="translate(999.756563 67.097812) scale(0.18 -0.18)">
      <defs>
       <path id="DejaVuSans-32" d="M 1228 531 
L 3431 531 
L 3431 0 
L 469 0 
L 469 531 
Q 828 903 1448 1529 
Q 2069 2156 2228 2338 
Q 2531 2678 2651 2914 
Q 2772 3150 2772 3378 
Q 2772 3750 2511 3984 
Q 2250 4219 1831 4219 
Q 1534 4219 1204 4116 
Q 875 4013 500 3803 
L 500 4441 
Q 881 4594 1212 4672 
Q 1544 4750 1819 4750 
Q 2544 4750 2975 4387 
Q 3406 4025 3406 3419 
Q 3406 3131 3298 2873 
Q 3191 2616 2906 2266 
Q 2828 2175 2409 1742 
Q 1991 1309 1228 531 
z
" transform="scale(0.015625)"/>
       <path id="DejaVuSans-20" transform="scale(0.015625)"/>
       <path id="DejaVuSans-48" d="M 628 4666 
L 1259 4666 
L 1259 2753 
L 3553 2753 
L 3553 4666 
L 4184 4666 
L 4184 0 
L 3553 0 
L 3553 2222 
L 1259 2222 
L 1259 0 
L 628 0 
L 628 4666 
z
" transform="scale(0.015625)"/>
       <path id="DejaVuSans-7a" d="M 353 3500 
L 3084 3500 
L 3084 2975 
L 922 459 
L 3084 459 
L 3084 0 
L 275 0 
L 275 525 
L 2438 3041 
L 353 3041 
L 353 3500 
z
" transform="scale(0.015625)"/>
      </defs>
      <use xlink:href="#DejaVuSans-32"/>
      <use xlink:href="#DejaVuSans-20" x="63.623047"/>
      <use xlink:href="#DejaVuSans-48" x="95.410156"/>
      <use xlink:href="#DejaVuSans-7a" x="170.605469"/>
     </g>
    </g>
    <g id="line2d_67">
     <path d="M 949.356563 87.218438 
L 967.356563 87.218438 
L 985.356563 87.218438 
" style="fill: none; stroke: #31688e; stroke-opacity: 0.8; stroke-width: 5; stroke-linecap: square"/>
    </g>
    <g id="text_3">
     <!-- 8 Hz -->
     <g transform="translate(999.756563 93.518438) scale(0.18 -0.18)">
      <defs>
       <path id="DejaVuSans-38" d="M 2034 2216 
Q 1584 2216 1326 1975 
Q 1069 1734 1069 1313 
Q 1069 891 1326 650 
Q 1584 409 2034 409 
Q 2484 409 2743 651 
Q 3003 894 3003 1313 
Q 3003 1734 2745 1975 
Q 2488 2216 2034 2216 
z
M 1403 2484 
Q 997 2584 770 2862 
Q 544 3141 544 3541 
Q 544 4100 942 4425 
Q 1341 4750 2034 4750 
Q 2731 4750 3128 4425 
Q 3525 4100 3525 3541 
Q 3525 3141 3298 2862 
Q 3072 2584 2669 2484 
Q 3125 2378 3379 2068 
Q 3634 1759 3634 1313 
Q 3634 634 3220 271 
Q 2806 -91 2034 -91 
Q 1263 -91 848 271 
Q 434 634 434 1313 
Q 434 1759 690 2068 
Q 947 2378 1403 2484 
z
M 1172 3481 
Q 1172 3119 1398 2916 
Q 1625 2713 2034 2713 
Q 2441 2713 2670 2916 
Q 2900 3119 2900 3481 
Q 2900 3844 2670 4047 
Q 2441 4250 2034 4250 
Q 1625 4250 1398 4047 
Q 1172 3844 1172 3481 
z
" transform="scale(0.015625)"/>
      </defs>
      <use xlink:href="#DejaVuSans-38"/>
      <use xlink:href="#DejaVuSans-20" x="63.623047"/>
      <use xlink:href="#DejaVuSans-48" x="95.410156"/>
      <use xlink:href="#DejaVuSans-7a" x="170.605469"/>
     </g>
    </g>
    <g id="line2d_68">
     <path d="M 949.356563 113.639062 
L 967.356563 113.639062 
L 985.356563 113.639062 
" style="fill: none; stroke: #35b779; stroke-opacity: 0.8; stroke-width: 5; stroke-linecap: square"/>
    </g>
    <g id="text_4">
     <!-- 20 Hz -->
     <g transform="translate(999.756563 119.939062) scale(0.18 -0.18)">
      <defs>
       <path id="DejaVuSans-30" d="M 2034 4250 
Q 1547 4250 1301 3770 
Q 1056 3291 1056 2328 
Q 1056 1369 1301 889 
Q 1547 409 2034 409 
Q 2525 409 2770 889 
Q 3016 1369 3016 2328 
Q 3016 3291 2770 3770 
Q 2525 4250 2034 4250 
z
M 2034 4750 
Q 2819 4750 3233 4129 
Q 3647 3509 3647 2328 
Q 3647 1150 3233 529 
Q 2819 -91 2034 -91 
Q 1250 -91 836 529 
Q 422 1150 422 2328 
Q 422 3509 836 4129 
Q 1250 4750 2034 4750 
z
" transform="scale(0.015625)"/>
      </defs>
      <use xlink:href="#DejaVuSans-32"/>
      <use xlink:href="#DejaVuSans-30" x="63.623047"/>
      <use xlink:href="#DejaVuSans-20" x="127.246094"/>
      <use xlink:href="#DejaVuSans-48" x="159.033203"/>
      <use xlink:href="#DejaVuSans-7a" x="234.228516"/>
     </g>
    </g>
   </g>
  </g>
 </g>
 <defs>
  <clipPath id="p2d2ec1dbe8">
   <rect x="10.8" y="10.8" width="1058.4" height="410.4"/>
  </clipPath>
 </defs>
</svg>
